<?xml version="1.0" encoding="UTF-8"?>
<svg id="Text" xmlns="http://www.w3.org/2000/svg" viewBox="0 0 96.75 53.52">
  <defs>
    <style>
      .cls-1 {
        fill: none;
        stroke: #001d34;
        stroke-width: .5px;
      }

      .cls-2 {
        fill: #001d34;
      }
    </style>
  </defs>
  <g>
    <path class="cls-2" d="M1.98,4.44v5.79h3.66v1.14H.61v-6.93h1.38Z"/>
    <path class="cls-2" d="M10.77,10.2c0,.25.13.37.34.37.13,0,.26-.03.41-.1v.7c-.21.17-.47.31-.91.31-.55,0-.97-.35-1.07-.94-.28.57-.89.95-1.69.95-.92,0-1.54-.5-1.54-1.33,0-.92.73-1.31,1.85-1.52l1.33-.25v-.14c0-.54-.29-.87-.85-.87s-.85.33-.96.8l-1.2-.11c.17-.99.92-1.68,2.21-1.68s2.08.59,2.08,1.87v1.94ZM9.48,9.11l-.91.19c-.6.12-.98.27-.98.73,0,.34.24.59.67.59.69,0,1.22-.52,1.22-1.34v-.17Z"/>
    <path class="cls-2" d="M12.31,7.45h-.69v-.78l.33-.05c.47-.08.6-.32.71-.77l.15-.66h.8v1.34h1.32v.92h-1.32v2.4c0,.42.19.61.58.61.26,0,.54-.1.83-.23v.87c-.35.26-.75.42-1.34.42-.75,0-1.38-.33-1.38-1.36v-2.7Z"/>
    <path class="cls-2" d="M15.81,4.44h1.35v1.29h-1.35v-1.29ZM17.15,6.52v4.85h-1.32v-4.85h1.32Z"/>
    <path class="cls-2" d="M19.64,11.38h-1.32v-4.85h1.32v.79c.24-.55.86-.92,1.58-.92,1.3,0,1.77.88,1.77,1.96v3.03h-1.32v-2.76c0-.75-.3-1.18-.95-1.18s-1.09.53-1.09,1.34v2.6Z"/>
    <path class="cls-2" d="M29.95,4.44l2.83,6.93h-1.46l-.69-1.72h-2.95l-.67,1.72h-1.39l2.81-6.93h1.53ZM28.1,8.6h2.11l-1.05-2.6h-.04l-1.02,2.6Z"/>
    <path class="cls-2" d="M39.49,6.39c1.31,0,1.73.9,1.73,1.96v3.03h-1.32v-2.76c0-.75-.23-1.18-.88-1.18s-1.02.53-1.02,1.34v2.6h-1.32v-2.76c0-.75-.24-1.18-.88-1.18s-1.02.53-1.02,1.34v2.6h-1.32v-4.85h1.32v.79c.24-.55.79-.92,1.53-.92.86,0,1.34.41,1.55,1,.26-.57.85-1,1.64-1Z"/>
    <path class="cls-2" d="M46.96,9.76c-.24,1.1-1.1,1.75-2.34,1.75-1.5,0-2.57-.96-2.57-2.49s1.09-2.63,2.54-2.63c1.58,0,2.4,1.1,2.4,2.42v.42h-3.64c.04.79.6,1.28,1.32,1.28.65,0,1.04-.29,1.23-.86l1.07.11ZM45.7,8.54c-.02-.63-.39-1.18-1.12-1.18s-1.13.53-1.21,1.18h2.33Z"/>
    <path class="cls-2" d="M51.14,7.82c-.25-.14-.47-.21-.79-.21-.68,0-1.14.48-1.14,1.36v2.4h-1.32v-4.85h1.32v.92c.18-.55.68-1.06,1.35-1.06.3,0,.54.08.68.2l-.1,1.23Z"/>
    <path class="cls-2" d="M51.88,4.44h1.35v1.29h-1.35v-1.29ZM53.22,6.52v4.85h-1.32v-4.85h1.32Z"/>
    <path class="cls-2" d="M56.66,6.39c1.44,0,2.23.95,2.34,2.11l-1.11.08c-.1-.73-.51-1.18-1.23-1.18s-1.23.54-1.23,1.55.51,1.54,1.23,1.54,1.13-.46,1.23-1.2l1.11.1c-.11,1.17-.9,2.11-2.34,2.11s-2.56-1.01-2.56-2.55,1.07-2.56,2.56-2.56Z"/>
    <path class="cls-2" d="M64.08,10.2c0,.25.13.37.34.37.13,0,.26-.03.41-.1v.7c-.21.17-.47.31-.91.31-.55,0-.97-.35-1.07-.94-.28.57-.89.95-1.69.95-.92,0-1.54-.5-1.54-1.33,0-.92.73-1.31,1.85-1.52l1.33-.25v-.14c0-.54-.29-.87-.85-.87s-.85.33-.96.8l-1.2-.11c.17-.99.92-1.68,2.21-1.68s2.08.59,2.08,1.87v1.94ZM62.79,9.11l-.91.19c-.6.12-.98.27-.98.73,0,.34.24.59.67.59.69,0,1.22-.52,1.22-1.34v-.17Z"/>
  </g>
  <g>
    <path class="cls-2" d="M3.75,18.31c1.98,0,3.1,1.22,3.23,3l-.92.04c-.08-1.28-.88-2.23-2.31-2.23s-2.42,1.08-2.42,2.78,1.01,2.78,2.42,2.78,2.23-.96,2.31-2.23l.92.04c-.13,1.78-1.25,3-3.23,3s-3.4-1.46-3.4-3.6,1.49-3.6,3.4-3.6Z"/>
    <path class="cls-2" d="M10.16,25.51c-1.41,0-2.44-1.03-2.44-2.53s1.03-2.54,2.44-2.54,2.46,1.04,2.46,2.54-1.04,2.53-2.46,2.53ZM10.16,24.81c.98,0,1.53-.76,1.53-1.83s-.55-1.83-1.53-1.83-1.51.75-1.51,1.83.54,1.83,1.51,1.83Z"/>
    <path class="cls-2" d="M14.52,25.38h-.91v-4.81h.91v.86c.23-.58.88-.99,1.6-.99,1.25,0,1.76.84,1.76,1.96v2.98h-.91v-2.9c0-.8-.38-1.31-1.14-1.31s-1.3.57-1.3,1.45v2.76Z"/>
    <path class="cls-2" d="M19.28,21.23h-.73v-.5l.31-.05c.45-.09.55-.31.66-.77l.14-.67h.52v1.33h1.35v.66h-1.35v2.92c0,.43.18.63.59.63.31,0,.63-.13.9-.29v.62c-.35.26-.7.41-1.23.41-.68,0-1.17-.32-1.17-1.25v-3.03Z"/>
    <path class="cls-2" d="M25.4,21.48c-.26-.14-.45-.2-.75-.2-.69,0-1.21.63-1.21,1.55v2.54h-.91v-4.81h.91v.98c.18-.55.67-1.11,1.36-1.11.3,0,.52.08.68.22l-.09.83Z"/>
    <path class="cls-2" d="M30.03,24.43c0,.25.14.37.37.37.11,0,.29-.03.42-.11v.49c-.17.17-.36.29-.74.29-.5,0-.87-.38-.92-.98-.25.56-.92,1.01-1.74,1.01-.9,0-1.51-.5-1.51-1.33,0-.91.77-1.28,1.94-1.51l1.3-.26v-.2c0-.66-.39-1.07-1.06-1.07s-1.07.41-1.22.97l-.8-.11c.18-.9.9-1.56,2.04-1.56,1.21,0,1.93.62,1.93,1.84v2.16ZM29.15,22.99l-1.08.22c-.77.17-1.24.34-1.24.9,0,.41.27.74.83.74.85,0,1.5-.64,1.5-1.62v-.24Z"/>
    <path class="cls-2" d="M33.7,20.44c1.41,0,2.17.95,2.27,2.1l-.8.06c-.08-.85-.58-1.42-1.47-1.42s-1.52.69-1.52,1.8.62,1.8,1.52,1.8,1.4-.61,1.47-1.45l.8.08c-.1,1.17-.86,2.1-2.27,2.1s-2.46-1-2.46-2.53,1.01-2.54,2.46-2.54Z"/>
    <path class="cls-2" d="M37.1,21.23h-.73v-.5l.31-.05c.45-.09.55-.31.66-.77l.14-.67h.52v1.33h1.35v.66h-1.35v2.92c0,.43.18.63.59.63.31,0,.63-.13.9-.29v.62c-.35.26-.7.41-1.23.41-.68,0-1.17-.32-1.17-1.25v-3.03Z"/>
    <path class="cls-2" d="M44.73,23.75c-.23,1.1-1.04,1.76-2.24,1.76-1.43,0-2.48-.97-2.48-2.46s1.05-2.61,2.43-2.61c1.53,0,2.31,1.09,2.31,2.4v.35h-3.83c.04.96.72,1.61,1.57,1.61.8,0,1.29-.38,1.47-1.13l.76.09ZM43.82,22.63c-.02-.78-.47-1.5-1.38-1.5s-1.4.69-1.5,1.5h2.87Z"/>
    <path class="cls-2" d="M49.39,24.38c-.22.59-.83,1.13-1.73,1.13-1.43,0-2.2-1.11-2.2-2.53s.77-2.54,2.2-2.54c.9,0,1.51.55,1.73,1.14v-3.13h.91v6.93h-.91v-1ZM49.4,22.84c0-1.05-.66-1.66-1.53-1.66-.95,0-1.47.7-1.47,1.8s.53,1.8,1.47,1.8c.87,0,1.53-.62,1.53-1.67v-.27Z"/>
    <path class="cls-2" d="M56.99,18.45l2.88,6.93h-1.01l-.84-2.04h-3.16l-.81,2.04h-.94l2.83-6.93h1.04ZM55.17,22.58h2.55l-1.27-3.08h-.04l-1.24,3.08Z"/>
    <path class="cls-2" d="M61.1,23.71c.1.74.6,1.14,1.44,1.14.66,0,1.11-.24,1.11-.73,0-.45-.32-.61-.91-.72l-.8-.13c-.91-.15-1.46-.54-1.46-1.36,0-.88.75-1.47,1.87-1.47,1.27,0,2.01.59,2.09,1.71l-.73.04c-.11-.75-.57-1.09-1.38-1.09-.6,0-1,.27-1,.71,0,.4.24.59.74.68l.9.14c.97.17,1.54.53,1.54,1.4,0,.96-.85,1.47-1.97,1.47-1.2,0-2.11-.56-2.2-1.75l.76-.05Z"/>
    <path class="cls-2" d="M65.91,23.71c.1.74.6,1.14,1.44,1.14.66,0,1.11-.24,1.11-.73,0-.45-.32-.61-.91-.72l-.8-.13c-.91-.15-1.46-.54-1.46-1.36,0-.88.75-1.47,1.87-1.47,1.27,0,2.01.59,2.09,1.71l-.73.04c-.11-.75-.57-1.09-1.38-1.09-.6,0-1,.27-1,.71,0,.4.24.59.74.68l.9.14c.97.17,1.54.53,1.54,1.4,0,.96-.85,1.47-1.97,1.47-1.2,0-2.11-.56-2.2-1.75l.76-.05Z"/>
    <path class="cls-2" d="M74.75,23.75c-.23,1.1-1.04,1.76-2.24,1.76-1.43,0-2.48-.97-2.48-2.46s1.05-2.61,2.43-2.61c1.53,0,2.31,1.09,2.31,2.4v.35h-3.83c.04.96.72,1.61,1.57,1.61.8,0,1.29-.38,1.47-1.13l.76.09ZM73.83,22.63c-.02-.78-.47-1.5-1.38-1.5s-1.4.69-1.5,1.5h2.87Z"/>
    <path class="cls-2" d="M81.4,20.44c1.25,0,1.69.87,1.69,1.96v2.98h-.91v-2.9c0-.8-.33-1.31-1.07-1.31-.68,0-1.23.57-1.23,1.45v2.76h-.91v-2.9c0-.8-.33-1.31-1.07-1.31-.68,0-1.22.57-1.22,1.45v2.76h-.91v-4.81h.91v.86c.23-.58.79-.99,1.53-.99.86,0,1.36.42,1.57,1.04.25-.59.85-1.04,1.62-1.04Z"/>
    <path class="cls-2" d="M85.03,25.38h-.69v-6.93h.91v3.13c.21-.59.83-1.14,1.73-1.14,1.42,0,2.2,1.12,2.2,2.54s-.78,2.53-2.21,2.53c-.89,0-1.52-.53-1.74-1.13l-.2,1ZM85.23,23.11c0,1.06.67,1.67,1.54,1.67.95,0,1.46-.7,1.46-1.8s-.52-1.8-1.46-1.8c-.87,0-1.54.62-1.54,1.66v.27Z"/>
    <path class="cls-2" d="M91.09,18.45v6.93h-.91v-6.93h.91Z"/>
    <path class="cls-2" d="M93.08,27.23l.78-1.86-2.02-4.8h.96l1.53,3.7h.04l1.47-3.7h.9l-2.77,6.66h-.89Z"/>
  </g>
  <path class="cls-2" d="M1.83,37.9c-.74,0-1.32-.55-1.32-1.33s.58-1.33,1.32-1.33,1.34.56,1.34,1.33-.59,1.33-1.34,1.33Z"/>
  <g>
    <path class="cls-2" d="M15.71,39.38l-2.1-5.96h-.04v5.96h-.89v-6.93h1.53l1.95,5.64h.03l1.85-5.64h1.51v6.93h-.96v-5.96h-.04l-2.02,5.96h-.8Z"/>
    <path class="cls-2" d="M25.3,37.75c-.23,1.1-1.04,1.76-2.24,1.76-1.43,0-2.48-.97-2.48-2.46s1.05-2.61,2.43-2.61c1.53,0,2.31,1.09,2.31,2.4v.35h-3.83c.04.96.72,1.61,1.57,1.61.8,0,1.29-.38,1.47-1.13l.76.09ZM24.39,36.63c-.02-.78-.47-1.5-1.38-1.5s-1.4.69-1.5,1.5h2.87Z"/>
    <path class="cls-2" d="M28.61,36.86l2,2.52h-1.06l-1.47-1.87-1.45,1.87h-.99l1.97-2.48-1.82-2.33h1.06l1.29,1.66,1.27-1.66h.98l-1.77,2.29Z"/>
    <path class="cls-2" d="M31.36,32.45h.95v1.03h-.95v-1.03ZM32.3,34.57v4.81h-.91v-4.81h.91Z"/>
    <path class="cls-2" d="M35.75,34.44c1.41,0,2.17.95,2.27,2.1l-.8.06c-.08-.85-.58-1.42-1.47-1.42s-1.52.69-1.52,1.8.62,1.8,1.52,1.8,1.4-.61,1.47-1.45l.8.08c-.1,1.17-.86,2.1-2.27,2.1s-2.46-1-2.46-2.53,1.01-2.54,2.46-2.54Z"/>
    <path class="cls-2" d="M41.16,39.51c-1.41,0-2.44-1.03-2.44-2.53s1.03-2.54,2.44-2.54,2.46,1.04,2.46,2.54-1.04,2.53-2.46,2.53ZM41.16,38.81c.98,0,1.53-.76,1.53-1.83s-.55-1.83-1.53-1.83-1.51.75-1.51,1.83.54,1.83,1.51,1.83Z"/>
  </g>
  <path class="cls-2" d="M1.83,51.9c-.74,0-1.32-.55-1.32-1.33s.58-1.33,1.32-1.33,1.34.56,1.34,1.33-.59,1.33-1.34,1.33Z"/>
  <g>
    <path class="cls-2" d="M15.75,46.32c1.98,0,3.1,1.22,3.23,3l-.92.04c-.08-1.28-.88-2.23-2.31-2.23s-2.42,1.08-2.42,2.78,1.01,2.78,2.42,2.78,2.23-.96,2.31-2.23l.92.04c-.13,1.78-1.25,3-3.23,3s-3.4-1.46-3.4-3.6,1.49-3.6,3.4-3.6Z"/>
    <path class="cls-2" d="M22.16,53.52c-1.41,0-2.44-1.03-2.44-2.53s1.03-2.54,2.44-2.54,2.46,1.04,2.46,2.54-1.04,2.53-2.46,2.53ZM22.16,52.81c.98,0,1.53-.76,1.53-1.83s-.55-1.83-1.53-1.83-1.51.75-1.51,1.83.54,1.83,1.51,1.83Z"/>
    <path class="cls-2" d="M26.52,46.45v6.93h-.91v-6.93h.91Z"/>
    <path class="cls-2" d="M29.96,53.52c-1.41,0-2.44-1.03-2.44-2.53s1.03-2.54,2.44-2.54,2.46,1.04,2.46,2.54-1.04,2.53-2.46,2.53ZM29.96,52.81c.98,0,1.53-.76,1.53-1.83s-.55-1.83-1.53-1.83-1.51.75-1.51,1.83.54,1.83,1.51,1.83Z"/>
    <path class="cls-2" d="M39.04,48.45c1.25,0,1.69.87,1.69,1.96v2.98h-.91v-2.9c0-.8-.33-1.31-1.07-1.31-.68,0-1.23.57-1.23,1.45v2.76h-.91v-2.9c0-.8-.33-1.31-1.07-1.31-.68,0-1.22.57-1.22,1.45v2.76h-.91v-4.81h.91v.86c.23-.58.79-.99,1.53-.99.86,0,1.36.42,1.57,1.04.25-.59.85-1.04,1.62-1.04Z"/>
    <path class="cls-2" d="M42.68,53.39h-.69v-6.93h.91v3.13c.21-.59.83-1.14,1.73-1.14,1.42,0,2.2,1.12,2.2,2.54s-.78,2.53-2.21,2.53c-.89,0-1.52-.53-1.74-1.13l-.2,1ZM42.88,51.12c0,1.06.67,1.67,1.54,1.67.95,0,1.46-.7,1.46-1.8s-.52-1.8-1.46-1.8c-.87,0-1.54.62-1.54,1.66v.27Z"/>
    <path class="cls-2" d="M47.81,46.45h.95v1.03h-.95v-1.03ZM48.74,48.58v4.81h-.91v-4.81h.91Z"/>
    <path class="cls-2" d="M53.91,52.44c0,.25.14.37.37.37.11,0,.29-.03.42-.11v.49c-.17.17-.36.29-.74.29-.5,0-.87-.38-.92-.98-.25.56-.92,1.01-1.74,1.01-.9,0-1.51-.5-1.51-1.33,0-.91.77-1.28,1.94-1.51l1.3-.26v-.2c0-.66-.39-1.07-1.06-1.07s-1.07.41-1.22.97l-.8-.11c.18-.9.9-1.56,2.04-1.56,1.21,0,1.93.62,1.93,1.84v2.16ZM53.03,51l-1.08.22c-.77.17-1.24.34-1.24.9,0,.41.27.74.83.74.85,0,1.5-.64,1.5-1.62v-.24Z"/>
  </g>
  <line class="cls-1" y1=".25" x2="91.33" y2=".25"/>
</svg>