<svg xmlns="http://www.w3.org/2000/svg" xmlns:xlink="http://www.w3.org/1999/xlink" xml:space="preserve" version="1.1" style="shape-rendering:geometricPrecision;text-rendering:geometricPrecision;image-rendering:optimizeQuality;fill:url(#CerosGradient_id3135c116a);" viewBox="0 0 847 847" x="0px" y="0px" fill-rule="evenodd" clip-rule="evenodd" aria-hidden="true" width="847px" height="847px"><defs><linearGradient class="cerosgradient" data-cerosgradient="true" id="CerosGradient_id3135c116a" gradientUnits="userSpaceOnUse" x1="50%" y1="100%" x2="50%" y2="0%"><stop offset="0%" stop-color="#E51938"/><stop offset="100%" stop-color="#E51938"/></linearGradient><linearGradient/><style type="text/css">
   
    .fil0-iddc78b3743-6842e2fd159a0{fill:black}
   
  </style></defs><g><path class="fil0-iddc78b3743-6842e2fd159a0" d="M423 20c223,0 404,180 404,403 0,223 -181,404 -404,404 -223,0 -403,-181 -403,-404 0,-223 180,-403 403,-403zm0 355l109 -109c32,-32 81,16 49,48l-109 109 109 109c32,32 -17,81 -49,49l-109 -109 -109 109c-32,32 -80,-17 -48,-49l109 -109 -109 -109c-32,-32 16,-80 48,-48l109 109z" style="fill:url(#CerosGradient_id3135c116a);"/></g></svg>