<!-- Generator: Adobe Illustrator 25.0.1, SVG Export Plug-In  -->
<svg version="1.1" xmlns="http://www.w3.org/2000/svg" xmlns:xlink="http://www.w3.org/1999/xlink" x="0px" y="0px" width="35px"
	 height="35px" viewBox="0 0 35 35" style="overflow:visible;enable-background:new 0 0 35 35;" xml:space="preserve">
<style type="text/css">
	.st0{fill:#373E4E;}
</style>
<defs>
</defs>
<path class="st0" d="M17.5,0C7.8,0,0,7.8,0,17.5c0,6,3,11.3,7.7,14.5l0.9-1.3c-4.2-2.9-7-7.7-7-13.2c0-4.4,1.8-8.4,4.7-11.3
	c2.9-2.9,6.9-4.7,11.3-4.7c4.4,0,8.4,1.8,11.3,4.7c2.9,2.9,4.7,6.9,4.7,11.3c0,4.4-1.8,8.4-4.7,11.3c-2.9,2.9-6.9,4.7-11.3,4.7
	c-1.9,0-3.6-0.3-5.3-0.9l1.7-8.1c1.2,0.6,2.6,1,4.1,1c5,0,9-4,9-9c0-5-4-9-9-9h-0.9c-5.2,0-9.5,4.2-9.5,9.5c0,1.2,0.2,2.3,0.6,3.4
	l1.4-0.5h0C9.4,18.9,9.2,18,9.2,17c0-2.2,0.9-4.2,2.3-5.6C13,9.9,14.9,9,17.1,9H18c2.1,0,3.9,0.8,5.3,2.2c1.4,1.4,2.2,3.2,2.2,5.3
	c0,2.1-0.8,3.9-2.2,5.3C21.9,23.1,20.1,24,18,24c-1.4,0-2.7-0.4-3.8-1l1.7-8l-1.5-0.3h0l-4,18.8l0.6,0.2c2,0.8,4.2,1.2,6.5,1.2
	C27.2,35,35,27.2,35,17.5C35,7.8,27.2,0,17.5,0z"/>
</svg>
