<svg xmlns="http://www.w3.org/2000/svg" data-name="Layer 1" viewBox="0 0 100 100" x="0px" y="0px" aria-hidden="true" width="100px" height="100px" style="fill:url(#CerosGradient_idbd10e6a8b);"><defs><linearGradient class="cerosgradient" data-cerosgradient="true" id="CerosGradient_idbd10e6a8b" gradientUnits="userSpaceOnUse" x1="50%" y1="100%" x2="50%" y2="0%"><stop offset="0%" stop-color="#D1D1D1"/><stop offset="100%" stop-color="#D1D1D1"/></linearGradient><linearGradient/></defs><path d="M19.9,63.85a1.88,1.88,0,0,1-1.72-1.11A34,34,0,0,1,76.1,27.93a1.88,1.88,0,0,1-3,2.31,30.27,30.27,0,0,0-51.51,31,1.88,1.88,0,0,1-1.72,2.65Z" style="fill:url(#CerosGradient_idbd10e6a8b);"/><path d="M76.24,32.54H70.15a1.89,1.89,0,0,1,0-3.77h4.2v-4.2a1.89,1.89,0,1,1,3.77,0v6.09A1.88,1.88,0,0,1,76.24,32.54Z" style="fill:url(#CerosGradient_idbd10e6a8b);"/><path d="M50.76,85.21A33.8,33.8,0,0,1,23.9,72.07a1.88,1.88,0,1,1,3-2.31,30.27,30.27,0,0,0,51.51-31,1.88,1.88,0,0,1,3.44-1.54A34,34,0,0,1,50.76,85.21Z" style="fill:url(#CerosGradient_idbd10e6a8b);"/><path d="M23.76,77.32a1.89,1.89,0,0,1-1.88-1.89V69.34a1.88,1.88,0,0,1,1.88-1.88h6.09a1.89,1.89,0,0,1,0,3.77h-4.2v4.2A1.89,1.89,0,0,1,23.76,77.32Z" style="fill:url(#CerosGradient_idbd10e6a8b);"/></svg>