<!-- Generator: Adobe Illustrator 25.0.1, SVG Export Plug-In  -->
<svg version="1.1" xmlns="http://www.w3.org/2000/svg" xmlns:xlink="http://www.w3.org/1999/xlink" x="0px" y="0px" width="33.6px"
	 height="33.6px" viewBox="0 0 33.6 33.6" style="overflow:visible;enable-background:new 0 0 33.6 33.6;" xml:space="preserve">
<style type="text/css">
	.st0{fill:#373E4E;}
</style>
<defs>
</defs>
<g>
	<path class="st0" d="M24.3,16.8c0-4.2-3.4-7.6-7.6-7.6c-4.2,0-7.6,3.4-7.6,7.6c0,4.2,3.4,7.6,7.6,7.6C20.9,24.4,24.3,21,24.3,16.8z
		 M10.6,16.8c0-1.7,0.7-3.2,1.8-4.3c1.1-1.1,2.6-1.8,4.3-1.8c1.7,0,3.2,0.7,4.3,1.8c1.1,1.1,1.8,2.6,1.8,4.3c0,1.7-0.7,3.2-1.8,4.3
		c-1.1,1.1-2.6,1.8-4.3,1.8c-1.7,0-3.2-0.7-4.3-1.8C11.3,20,10.7,18.5,10.6,16.8z"/>
	<path class="st0" d="M27.5,7.7c0-0.8-0.7-1.5-1.5-1.5c-0.8,0-1.5,0.7-1.5,1.5c0,0.8,0.7,1.5,1.5,1.5C26.8,9.2,27.5,8.5,27.5,7.7z"
		/>
	<path class="st0" d="M25.4,0H8.2C3.7,0,0,3.7,0,8.2v0.9h1.5V8.2c0-1.8,0.8-3.5,2-4.7c1.2-1.2,2.9-2,4.7-2h17.1c1.8,0,3.5,0.8,4.7,2
		c1.2,1.2,2,2.9,2,4.7v17.1c0,1.8-0.8,3.5-2,4.7c-1.2,1.2-2.9,2-4.7,2H8.2c-1.8,0-3.5-0.8-4.7-2c-1.2-1.2-2-2.9-2-4.7V12.2H0l0,13.1
		c0,4.5,3.7,8.2,8.2,8.2h17.1c4.5,0,8.2-3.7,8.2-8.2V8.2C33.6,3.7,29.9,0,25.4,0z"/>
</g>
</svg>
