<svg xmlns="http://www.w3.org/2000/svg" xmlns:xlink="http://www.w3.org/1999/xlink" version="1.1" x="0px" y="0px" viewBox="0 0 100 100" style="enable-background:new 0 0 100 100;fill:url(#CerosGradient_iddccda2631);" xml:space="preserve" aria-hidden="true" width="100px" height="100px"><defs><linearGradient class="cerosgradient" data-cerosgradient="true" id="CerosGradient_iddccda2631" gradientUnits="userSpaceOnUse" x1="50%" y1="100%" x2="50%" y2="0%"><stop offset="0%" stop-color="#D1D1D1"/><stop offset="100%" stop-color="#D1D1D1"/></linearGradient><linearGradient/></defs><path d="M60.4,56.2c1.2,1.2,1.2,3.1,0,4.2c-0.6,0.6-1.4,0.9-2.1,0.9s-1.5-0.3-2.1-0.9L50,54.2l-6.2,6.2c-0.6,0.6-1.4,0.9-2.1,0.9  s-1.5-0.3-2.1-0.9c-1.2-1.2-1.2-3.1,0-4.2l6.2-6.2l-6.2-6.2c-1.2-1.2-1.2-3.1,0-4.2c1.2-1.2,3.1-1.2,4.2,0l6.2,6.2l6.2-6.2  c1.2-1.2,3.1-1.2,4.2,0c1.2,1.2,1.2,3.1,0,4.2L54.2,50L60.4,56.2z M76,50c0,14.3-11.7,26-26,26S24,64.3,24,50s11.7-26,26-26  S76,35.7,76,50z M70,50c0-11-9-20-20-20s-20,9-20,20s9,20,20,20S70,61,70,50z" style="fill:url(#CerosGradient_iddccda2631);"/></svg>