<?xml version="1.0" encoding="UTF-8"?><svg xmlns="http://www.w3.org/2000/svg" id="Icons67f8444ca456f" viewBox="0 0 60.056 86.783" aria-hidden="true" style="fill:url(#CerosGradient_idc4c923aa8);" width="60px" height="86px"><defs><linearGradient class="cerosgradient" data-cerosgradient="true" id="CerosGradient_idc4c923aa8" gradientUnits="userSpaceOnUse" x1="50%" y1="100%" x2="50%" y2="0%"><stop offset="0%" stop-color="#0065DF"/><stop offset="100%" stop-color="#0065DF"/></linearGradient><linearGradient/></defs><polyline points="8.916 21.117 11.49 23.584 17.556 17.771" fill="none" stroke="#001d34" stroke-miterlimit="10" stroke-width="2.5" style="stroke:url(#CerosGradient_idc4c923aa8);"/><polyline points="8.916 31.117 11.49 33.584 17.556 27.771" fill="none" stroke="#001d34" stroke-miterlimit="10" stroke-width="2.5" style="stroke:url(#CerosGradient_idc4c923aa8);"/><polyline points="8.916 41.117 11.49 43.584 17.556 37.771" fill="none" stroke="#001d34" stroke-miterlimit="10" stroke-width="2.5" style="stroke:url(#CerosGradient_idc4c923aa8);"/><polyline points="8.916 51.117 11.49 53.584 17.556 47.771" fill="none" stroke="#001d34" stroke-miterlimit="10" stroke-width="2.5" style="stroke:url(#CerosGradient_idc4c923aa8);"/><polyline points="8.916 61.117 11.49 63.584 17.556 57.771" fill="none" stroke="#001d34" stroke-miterlimit="10" stroke-width="2.5" style="stroke:url(#CerosGradient_idc4c923aa8);"/><polyline points="8.916 71.117 11.49 73.584 17.556 67.771" fill="none" stroke="#001d34" stroke-miterlimit="10" stroke-width="2.5" style="stroke:url(#CerosGradient_idc4c923aa8);"/><line x1="22.583" y1="71.663" x2="48.821" y2="71.69" fill="none" stroke="#001d34" stroke-miterlimit="10" stroke-width="2.5" style="stroke:url(#CerosGradient_idc4c923aa8);"/><line x1="22.583" y1="61.616" x2="48.821" y2="61.642" fill="none" stroke="#001d34" stroke-miterlimit="10" stroke-width="2.5" style="stroke:url(#CerosGradient_idc4c923aa8);"/><line x1="22.583" y1="51.568" x2="48.821" y2="51.595" fill="none" stroke="#001d34" stroke-miterlimit="10" stroke-width="2.5" style="stroke:url(#CerosGradient_idc4c923aa8);"/><line x1="22.61" y1="41.521" x2="48.821" y2="41.547" fill="none" stroke="#001d34" stroke-miterlimit="10" stroke-width="2.5" style="stroke:url(#CerosGradient_idc4c923aa8);"/><line x1="22.556" y1="31.473" x2="48.821" y2="31.5" fill="none" stroke="#001d34" stroke-miterlimit="10" stroke-width="2.5" style="stroke:url(#CerosGradient_idc4c923aa8);"/><line x1="22.556" y1="21.439" x2="48.821" y2="21.466" fill="none" stroke="#001d34" stroke-miterlimit="10" stroke-width="2.5" style="stroke:url(#CerosGradient_idc4c923aa8);"/><path d="M58.806,25.265v55.417c0,2.679-2.172,4.851-4.851,4.851H6.101c-2.679,0-4.851-2.172-4.851-4.851V10.111c0-2.679,2.172-4.851,4.851-4.851h5.202" fill="none" stroke="#001d34" stroke-miterlimit="10" stroke-width="2.5" style="stroke:url(#CerosGradient_idc4c923aa8);"/><path d="M58.796,19.021v-8.91c0-2.679-2.172-4.851-4.851-4.851h-11.39v-.623c0-1.871-1.517-3.388-3.388-3.388h-18.224c-1.871,0-3.388,1.517-3.388,3.388v1.006c0,1.871,1.517,3.388,3.388,3.388h16.612" fill="none" stroke="#001d34" stroke-miterlimit="10" stroke-width="2.5" style="stroke:url(#CerosGradient_idc4c923aa8);"/></svg>