<?xml version="1.0" encoding="UTF-8"?><svg xmlns="http://www.w3.org/2000/svg" id="Icons67f841b5a454d" viewBox="0 0 92.783 115.16" aria-hidden="true" style="fill:url(#CerosGradient_ida033ff33d);" width="92px" height="115px"><defs><linearGradient class="cerosgradient" data-cerosgradient="true" id="CerosGradient_ida033ff33d" gradientUnits="userSpaceOnUse" x1="50%" y1="100%" x2="50%" y2="0%"><stop offset="0%" stop-color="#0065DF"/><stop offset="100%" stop-color="#0065DF"/></linearGradient><linearGradient/></defs><ellipse cx="18.311" cy="24.163" rx="4.549" ry="5.68" fill="none" stroke="#001d34" stroke-miterlimit="10" stroke-width="2.5" style="stroke:url(#CerosGradient_ida033ff33d);"/><line x1="26.222" y1="51.805" x2="37.609" y2="114.923" fill="none" stroke="#001d34" stroke-miterlimit="10" stroke-width="2.5" style="stroke:url(#CerosGradient_ida033ff33d);"/><path d="M50.19,57.542l-12.829-7.407c-1.424-.812-2.61-1.996-3.423-3.419l-4.393-7.656c-1.569-2.744-4.526-4.604-7.897-4.604h-6.818c-3.37,0-6.328,1.859-7.897,4.603l-4.434,7.632c-.825,1.415-1.258,3.035-1.25,4.674v15.994" fill="none" stroke="#001d34" stroke-miterlimit="10" stroke-width="2.5" style="stroke:url(#CerosGradient_ida033ff33d);"/><path d="M3.537,114.837l12.573-46.895c.267-.957,1.146-1.659,2.189-1.659h0c1.043,0,1.921.702,2.189,1.659l12.565,46.877" fill="none" stroke="#001d34" stroke-miterlimit="10" stroke-width="2.5" style="stroke:url(#CerosGradient_ida033ff33d);"/><ellipse cx="77.071" cy="24.163" rx="4.549" ry="5.68" fill="none" stroke="#001d34" stroke-miterlimit="10" stroke-width="2.5" style="stroke:url(#CerosGradient_ida033ff33d);"/><line x1="82.722" y1="67.416" x2="82.722" y2="115.093" fill="none" stroke="#001d34" stroke-miterlimit="10" stroke-width="2.5" style="stroke:url(#CerosGradient_ida033ff33d);"/><line x1="71.368" y1="67.416" x2="71.368" y2="115.093" fill="none" stroke="#001d34" stroke-miterlimit="10" stroke-width="2.5" style="stroke:url(#CerosGradient_ida033ff33d);"/><path d="M91.548,67.245l-3.927-25.1c-.703-4.312-4.468-7.631-8.971-7.631h-3.18c-4.503,0-8.268,3.319-8.971,7.631l-3.927,25.1" fill="none" stroke="#001d34" stroke-miterlimit="10" stroke-width="2.5" style="stroke:url(#CerosGradient_ida033ff33d);"/><line x1="82.376" y1="91.26" x2="71.473" y2="91.26" fill="none" stroke="#001d34" stroke-miterlimit="10" stroke-width="2.5" style="stroke:url(#CerosGradient_ida033ff33d);"/><path d="M41.425,4.834c0-1.971,1.613-3.584,3.584-3.584h17.847c1.971,0,3.584,1.613,3.584,3.584v10.424c0,1.971-1.613,3.584-3.584,3.584l-1.3-.003.033,3.583" fill="none" stroke="#001d34" stroke-miterlimit="10" stroke-width="2.5" style="stroke:url(#CerosGradient_ida033ff33d);"/><path d="M35.108,26.27c-2.038,0-3.705-1.667-3.705-3.705l-.02-10.092c0-2.038,1.667-3.705,3.705-3.705h17.563c2.038,0,3.705,1.667,3.705,3.705v10.086c0,2.038-1.667,3.705-3.705,3.705l-10.064.01c-2.038,0-3.705,1.667-3.705,3.705" fill="none" stroke="#001d34" stroke-miterlimit="10" stroke-width="2.5" style="stroke:url(#CerosGradient_ida033ff33d);"/><path d="M37.656,19.71c-.415,0-.83.163-1.14.485-.605.63-.586,1.631.044,2.236.307.295.702.442,1.096.442.415,0,.83-.163,1.14-.485.605-.63.586-1.631-.044-2.236-.307-.295-.702-.442-1.096-.442h0Z" fill="#001d34" style="fill:url(#CerosGradient_ida033ff33d);"/><path d="M44.002,19.71c-.415,0-.83.163-1.14.485-.605.63-.586,1.631.044,2.236.307.295.702.442,1.096.442.415,0,.83-.163,1.14-.485.605-.63.586-1.631-.044-2.236-.307-.295-.702-.442-1.096-.442h0Z" fill="#001d34" style="fill:url(#CerosGradient_ida033ff33d);"/><path d="M50.238,19.71c-.415,0-.83.163-1.14.485-.605.63-.586,1.631.044,2.236.307.295.702.442,1.096.442.415,0,.83-.163,1.14-.485.605-.63.586-1.631-.044-2.236-.307-.295-.702-.442-1.096-.442h0Z" fill="#001d34" style="fill:url(#CerosGradient_ida033ff33d);"/></svg>