<?xml version="1.0" encoding="UTF-8"?><svg xmlns="http://www.w3.org/2000/svg" id="Icons67f6f930a04f2" viewBox="0 0 84.899 85.039" aria-hidden="true" style="fill:url(#CerosGradient_idc85c6d509);" width="84px" height="85px"><defs><linearGradient class="cerosgradient" data-cerosgradient="true" id="CerosGradient_idc85c6d509" gradientUnits="userSpaceOnUse" x1="50%" y1="100%" x2="50%" y2="0%"><stop offset="0%" stop-color="#FFFFFF"/><stop offset="100%" stop-color="#FFFFFF"/></linearGradient><linearGradient/></defs><path d="M54.323,16.81l13.864-.008C53.374,1.989,28.953,2.634,14.937,18.723c-9.989,11.467-11.55,27.922-4.679,40.93" fill="none" stroke="#0f4841" stroke-miterlimit="10" stroke-width="2.5" style="stroke:url(#CerosGradient_idc85c6d509);"/><path d="M71.609,0l-.008,13.397C54.828-3.375,27.174-2.645,11.304,15.573-.421,29.033-1.892,48.561,6.898,63.521" fill="none" stroke="#0f4841" stroke-miterlimit="10" stroke-width="2.5" style="stroke:url(#CerosGradient_idc85c6d509);"/><path d="M73.111,22.914c9.028,14.086,7.373,33.044-4.956,45.373h0c-14.831,14.831-39.252,14.216-53.248-1.856l13.418-.008" fill="none" stroke="#0f4841" stroke-miterlimit="10" stroke-width="2.5" style="stroke:url(#CerosGradient_idc85c6d509);"/><path d="M76.533,19.383c10.928,16.03,9.269,38.077-4.968,52.313h0c-16.793,16.793-44.446,16.097-60.294-2.102l-.008,13.447" fill="none" stroke="#0f4841" stroke-miterlimit="10" stroke-width="2.5" style="stroke:url(#CerosGradient_idc85c6d509);"/></svg>