<?xml version="1.0" encoding="UTF-8"?><svg id="Layer_1" xmlns="http://www.w3.org/2000/svg" viewBox="0 0 160 160"><path d="m46.72,97.72c-7.24-13.76-5.33-30.54,4.82-42.32,6.83-7.93,16.68-12.63,27.14-12.96,10.43-.34,20.54,3.64,27.93,11.01l2.12,2.13h-16.86v-2.5h10.67c-6.65-5.53-15.1-8.42-23.74-8.14-9.77.3-18.97,4.69-25.34,12.11-9.48,10.99-11.27,26.65-4.53,39.5l-2.21,1.17Z" style="fill:#061e32; stroke-width:0px;"/><path d="m43.41,101.63c-11.9-20.21-5.16-46.23,15.05-58.13,15.74-9.26,35.63-7.43,49.41,4.56v-10.53h2.5v16.42l-2.13-2.13c-7.84-7.82-18.57-12.05-29.64-11.68-11.1.33-21.56,5.31-28.81,13.72-11.14,13.04-12.83,31.68-4.24,46.51l-2.13,1.27Z" style="fill:#061e32; stroke-width:0px;"/><path d="m80,117.7h-1.28c-10.47-.31-20.33-5-27.18-12.93l-1.8-2.07h16.16v2.5h-10.53c6.25,6.18,14.61,9.76,23.4,10.03,19.4.68,35.69-14.49,36.37-33.9.25-7.15-1.68-14.21-5.55-20.23l2.1-1.34c11.21,17.51,6.1,40.79-11.41,52-6.06,3.88-13.09,5.94-20.28,5.94Z" style="fill:#061e32; stroke-width:0px;"/><path d="m80,122.54h-1.45c-10.68-.31-20.84-4.67-28.42-12.2v10.28h-2.53v-16.77l2.18,2.45c14.47,16.67,39.7,18.45,56.37,3.98,15.28-13.27,18.23-35.87,6.87-52.62l2.04-1.45c13.18,19.4,8.14,45.8-11.26,58.98-7.02,4.77-15.31,7.33-23.8,7.34Z" style="fill:#061e32; stroke-width:0px;"/><path d="m80,156.23C37.9,156.23,3.77,122.1,3.77,80S37.9,3.77,80,3.77s76.23,34.13,76.23,76.23c-.06,42.08-34.15,76.17-76.23,76.23Zm.17-149.97C39.44,6.16,6.34,39.09,6.24,79.82c-.1,40.73,32.83,73.83,73.56,73.93,40.73.1,73.83-32.83,73.93-73.56,0-.07,0-.13,0-.2-.09-40.62-32.95-73.54-73.56-73.73Z" style="fill:#061e32; stroke-width:0px;"/></svg>