<?xml version="1.0" encoding="UTF-8"?>
<svg id="Text" xmlns="http://www.w3.org/2000/svg" viewBox="0 0 97.78 41.34">
  <defs>
    <style>
      .cls-1 {
        fill: none;
        stroke: #001d34;
        stroke-width: .5px;
      }

      .cls-2 {
        fill: #001d34;
      }
    </style>
  </defs>
  <g>
    <path class="cls-2" d="M4.4,4.42l2.83,6.93h-1.46l-.69-1.72h-2.95l-.67,1.72H.07l2.81-6.93h1.53ZM2.54,8.58h2.11l-1.05-2.6h-.04l-1.02,2.6Z"/>
    <path class="cls-2" d="M7.24,7.42v-.92h.71v-.41c0-1.13.68-1.8,1.77-1.8.88,0,1.42.42,1.63,1.19l-.85.28c-.11-.31-.32-.52-.66-.52-.41,0-.58.31-.58.76v.51h1.3v.92h-1.3v3.93h-1.31v-3.93h-.71Z"/>
    <path class="cls-2" d="M14.42,7.8c-.25-.14-.47-.21-.79-.21-.68,0-1.14.48-1.14,1.36v2.4h-1.32v-4.85h1.32v.92c.18-.55.68-1.06,1.35-1.06.3,0,.54.08.68.2l-.1,1.23Z"/>
    <path class="cls-2" d="M15.16,4.42h1.35v1.29h-1.35v-1.29ZM16.5,6.5v4.85h-1.32v-4.85h1.32Z"/>
    <path class="cls-2" d="M19.94,6.37c1.44,0,2.23.95,2.34,2.11l-1.11.08c-.1-.73-.51-1.18-1.23-1.18s-1.23.54-1.23,1.55.51,1.54,1.23,1.54,1.13-.46,1.23-1.2l1.11.1c-.11,1.17-.9,2.11-2.34,2.11s-2.56-1.01-2.56-2.55,1.07-2.56,2.56-2.56Z"/>
    <path class="cls-2" d="M27.36,10.17c0,.25.13.37.34.37.13,0,.26-.03.41-.1v.7c-.21.17-.47.31-.91.31-.55,0-.97-.35-1.07-.94-.28.57-.89.95-1.69.95-.92,0-1.54-.5-1.54-1.33,0-.92.73-1.31,1.85-1.52l1.33-.25v-.14c0-.54-.29-.87-.85-.87s-.85.33-.96.8l-1.2-.11c.17-.99.92-1.68,2.21-1.68s2.08.59,2.08,1.87v1.94ZM26.07,9.08l-.91.19c-.6.12-.98.27-.98.73,0,.34.24.59.67.59.69,0,1.22-.52,1.22-1.34v-.17Z"/>
  </g>
  <g>
    <path class="cls-2" d="M3.75,18.29c1.98,0,3.1,1.22,3.23,3l-.92.04c-.08-1.28-.88-2.23-2.31-2.23s-2.42,1.08-2.42,2.78,1.01,2.78,2.42,2.78,2.23-.96,2.31-2.23l.92.04c-.13,1.78-1.25,3-3.23,3s-3.4-1.46-3.4-3.6,1.49-3.6,3.4-3.6Z"/>
    <path class="cls-2" d="M10.15,25.48c-1.41,0-2.44-1.03-2.44-2.53s1.03-2.54,2.44-2.54,2.46,1.05,2.46,2.54-1.04,2.53-2.46,2.53ZM10.15,24.78c.98,0,1.53-.76,1.53-1.83s-.55-1.83-1.53-1.83-1.51.75-1.51,1.83.54,1.83,1.51,1.83Z"/>
    <path class="cls-2" d="M14.52,25.35h-.91v-4.81h.91v.86c.23-.58.88-.99,1.6-.99,1.25,0,1.76.84,1.76,1.96v2.98h-.91v-2.9c0-.8-.38-1.31-1.14-1.31s-1.3.57-1.3,1.45v2.76Z"/>
    <path class="cls-2" d="M19.28,21.21h-.73v-.5l.31-.06c.45-.09.55-.31.66-.77l.14-.67h.52v1.33h1.35v.66h-1.35v2.92c0,.43.18.63.59.63.31,0,.63-.13.9-.29v.62c-.35.26-.7.41-1.23.41-.68,0-1.17-.32-1.17-1.25v-3.03Z"/>
    <path class="cls-2" d="M25.4,21.46c-.26-.14-.45-.2-.75-.2-.69,0-1.21.63-1.21,1.55v2.54h-.91v-4.81h.91v.98c.18-.55.67-1.11,1.36-1.11.3,0,.52.08.68.22l-.09.83Z"/>
    <path class="cls-2" d="M30.03,24.41c0,.25.14.37.37.37.11,0,.29-.03.42-.11v.49c-.17.17-.36.29-.74.29-.5,0-.87-.38-.92-.98-.25.56-.92,1.01-1.74,1.01-.9,0-1.51-.5-1.51-1.33,0-.91.77-1.28,1.94-1.51l1.3-.26v-.2c0-.66-.39-1.07-1.06-1.07s-1.07.41-1.22.97l-.8-.11c.18-.9.9-1.56,2.04-1.56,1.21,0,1.93.62,1.93,1.84v2.16ZM29.15,22.97l-1.08.22c-.77.17-1.24.34-1.24.9,0,.41.27.74.83.74.85,0,1.5-.64,1.5-1.62v-.24Z"/>
    <path class="cls-2" d="M33.69,20.41c1.41,0,2.17.95,2.27,2.1l-.8.06c-.08-.85-.58-1.42-1.47-1.42s-1.52.69-1.52,1.8.62,1.8,1.52,1.8,1.4-.61,1.47-1.45l.8.08c-.1,1.17-.86,2.1-2.27,2.1s-2.46-1-2.46-2.53,1.01-2.54,2.46-2.54Z"/>
    <path class="cls-2" d="M37.1,21.21h-.73v-.5l.31-.06c.45-.09.55-.31.66-.77l.14-.67h.52v1.33h1.35v.66h-1.35v2.92c0,.43.18.63.59.63.31,0,.63-.13.9-.29v.62c-.35.26-.7.41-1.23.41-.68,0-1.17-.32-1.17-1.25v-3.03Z"/>
    <path class="cls-2" d="M44.73,23.72c-.23,1.1-1.04,1.76-2.24,1.76-1.43,0-2.48-.97-2.48-2.46s1.05-2.61,2.43-2.61c1.53,0,2.31,1.09,2.31,2.4v.35h-3.83c.04.96.71,1.61,1.57,1.61.8,0,1.29-.38,1.47-1.13l.76.09ZM43.81,22.6c-.02-.78-.47-1.5-1.38-1.5s-1.4.69-1.5,1.5h2.87Z"/>
    <path class="cls-2" d="M49.39,24.35c-.22.59-.83,1.13-1.73,1.13-1.43,0-2.2-1.11-2.2-2.53s.77-2.54,2.2-2.54c.9,0,1.51.55,1.73,1.14v-3.14h.91v6.93h-.91v-1ZM49.4,22.81c0-1.05-.66-1.66-1.53-1.66-.95,0-1.47.7-1.47,1.8s.53,1.8,1.47,1.8c.87,0,1.53-.62,1.53-1.67v-.27Z"/>
    <path class="cls-2" d="M56.99,18.42l2.88,6.93h-1.01l-.84-2.04h-3.16l-.81,2.04h-.94l2.83-6.93h1.04ZM55.16,22.56h2.55l-1.27-3.08h-.04l-1.24,3.08Z"/>
    <path class="cls-2" d="M61.09,23.68c.1.74.6,1.14,1.44,1.14.66,0,1.11-.24,1.11-.73,0-.45-.32-.61-.91-.72l-.8-.13c-.91-.15-1.46-.54-1.46-1.36,0-.88.75-1.47,1.87-1.47,1.27,0,2.01.59,2.09,1.71l-.73.04c-.11-.75-.57-1.09-1.38-1.09-.6,0-1,.28-1,.72,0,.4.24.59.74.68l.9.14c.97.17,1.54.53,1.54,1.4,0,.96-.85,1.47-1.97,1.47-1.2,0-2.11-.56-2.2-1.75l.76-.05Z"/>
    <path class="cls-2" d="M65.9,23.68c.1.74.6,1.14,1.44,1.14.66,0,1.11-.24,1.11-.73,0-.45-.32-.61-.91-.72l-.8-.13c-.91-.15-1.46-.54-1.46-1.36,0-.88.75-1.47,1.87-1.47,1.27,0,2.01.59,2.09,1.71l-.73.04c-.11-.75-.57-1.09-1.38-1.09-.6,0-1,.28-1,.72,0,.4.24.59.74.68l.9.14c.97.17,1.54.53,1.54,1.4,0,.96-.85,1.47-1.97,1.47-1.2,0-2.11-.56-2.2-1.75l.76-.05Z"/>
    <path class="cls-2" d="M74.73,23.72c-.23,1.1-1.04,1.76-2.24,1.76-1.43,0-2.48-.97-2.48-2.46s1.05-2.61,2.43-2.61c1.53,0,2.31,1.09,2.31,2.4v.35h-3.83c.04.96.71,1.61,1.57,1.61.8,0,1.29-.38,1.47-1.13l.76.09ZM73.82,22.6c-.02-.78-.47-1.5-1.38-1.5s-1.4.69-1.5,1.5h2.87Z"/>
    <path class="cls-2" d="M81.39,20.41c1.25,0,1.69.87,1.69,1.96v2.98h-.91v-2.9c0-.8-.33-1.31-1.07-1.31-.68,0-1.23.57-1.23,1.45v2.76h-.91v-2.9c0-.8-.33-1.31-1.07-1.31-.68,0-1.22.57-1.22,1.45v2.76h-.91v-4.81h.91v.86c.23-.58.79-.99,1.53-.99.86,0,1.36.42,1.57,1.05.25-.59.85-1.05,1.62-1.05Z"/>
    <path class="cls-2" d="M85.02,25.35h-.69v-6.93h.91v3.14c.21-.59.83-1.14,1.73-1.14,1.42,0,2.2,1.12,2.2,2.54s-.78,2.53-2.21,2.53c-.89,0-1.52-.53-1.74-1.13l-.2,1ZM85.22,23.09c0,1.06.67,1.67,1.54,1.67.95,0,1.46-.7,1.46-1.8s-.52-1.8-1.46-1.8c-.87,0-1.54.62-1.54,1.66v.27Z"/>
    <path class="cls-2" d="M91.08,18.42v6.93h-.91v-6.93h.91Z"/>
    <path class="cls-2" d="M93.07,27.2l.78-1.86-2.02-4.8h.96l1.53,3.7h.04l1.47-3.7h.9l-2.77,6.66h-.89Z"/>
  </g>
  <path class="cls-2" d="M1.83,37.87c-.74,0-1.32-.55-1.32-1.33s.58-1.33,1.32-1.33,1.34.56,1.34,1.33-.59,1.33-1.34,1.33Z"/>
  <g>
    <path class="cls-2" d="M17.46,37.73v-5.3h.89v6.93h-.76l-4.03-5.57v5.57h-.89v-6.93h.99l3.8,5.3Z"/>
    <path class="cls-2" d="M19.68,32.43h.95v1.03h-.95v-1.03ZM20.61,34.55v4.81h-.91v-4.81h.91Z"/>
    <path class="cls-2" d="M23.84,37.68c-.4,0-.75-.07-1.04-.2-.17.1-.33.26-.33.48,0,.26.15.42.58.42h1.88c1.04,0,1.6.54,1.6,1.3,0,1.18-1.33,1.65-2.77,1.65-1.3,0-2.38-.41-2.38-1.3,0-.55.4-.9.99-1.02-.44-.13-.63-.45-.63-.81,0-.42.29-.71.71-.9-.4-.29-.63-.71-.63-1.24,0-1.01.84-1.64,2.01-1.64.62,0,1.14.18,1.51.5.25-.4.7-.66,1.22-.66v.79c-.32,0-.69.08-.94.19.15.23.24.52.24.83,0,1-.85,1.63-2.04,1.63ZM23.75,40.75c1.11,0,1.9-.25,1.9-.97,0-.44-.37-.6-.94-.6h-1.57c-.5,0-.92.17-.92.69,0,.63.64.88,1.53.88ZM23.85,35c-.67,0-1.08.4-1.08,1.06s.41,1.07,1.08,1.07,1.09-.4,1.09-1.07-.41-1.06-1.09-1.06Z"/>
    <path class="cls-2" d="M31.59,37.73c-.23,1.1-1.04,1.76-2.24,1.76-1.43,0-2.48-.97-2.48-2.46s1.05-2.61,2.43-2.61c1.53,0,2.31,1.09,2.31,2.4v.35h-3.83c.04.96.71,1.61,1.57,1.61.8,0,1.29-.38,1.47-1.13l.76.09ZM30.68,36.61c-.02-.78-.47-1.5-1.38-1.5s-1.4.69-1.5,1.5h2.87Z"/>
    <path class="cls-2" d="M35.49,35.46c-.26-.14-.45-.2-.75-.2-.69,0-1.21.63-1.21,1.55v2.54h-.91v-4.81h.91v.98c.18-.55.67-1.11,1.36-1.11.3,0,.52.08.68.22l-.09.83Z"/>
    <path class="cls-2" d="M36.28,32.43h.95v1.03h-.95v-1.03ZM37.21,34.55v4.81h-.91v-4.81h.91Z"/>
  </g>
  <path class="cls-2" d="M41.98,38.49c0,.23.13.34.34.34.1,0,.26-.03.38-.1v.45c-.15.15-.33.26-.67.26-.45,0-.79-.35-.84-.89-.23.51-.84.92-1.58.92-.82,0-1.37-.45-1.37-1.21,0-.83.7-1.16,1.76-1.37l1.18-.24v-.18c0-.6-.35-.97-.96-.97s-.97.37-1.11.88l-.73-.1c.16-.82.82-1.42,1.85-1.42,1.1,0,1.75.56,1.75,1.67v1.96ZM41.18,37.18l-.98.2c-.7.15-1.13.31-1.13.82,0,.37.25.67.75.67.77,0,1.36-.58,1.36-1.47v-.22Z"/>
  <line class="cls-1" y1=".25" x2="97.78" y2=".25"/>
</svg>