<?xml version="1.0" encoding="UTF-8"?><svg xmlns="http://www.w3.org/2000/svg" id="Icons68105f430b462" viewBox="0 0 152.59 152.59" aria-hidden="true" width="152px" height="152px"><defs><linearGradient class="cerosgradient" data-cerosgradient="true" id="CerosGradient_id543a85be5" gradientUnits="userSpaceOnUse" x1="50%" y1="100%" x2="50%" y2="0%"><stop offset="0%" stop-color="#d1d1d1"/><stop offset="100%" stop-color="#d1d1d1"/></linearGradient><linearGradient/><style>.cls-1-68105f430b462{fill:none;stroke:#001d34;stroke-miterlimit:10;stroke-width:2.5px;}.cls-2-68105f430b462{fill:#001d34;stroke-width:0px;}</style></defs><path class="cls-2-68105f430b462" d="M76.3,152.59C34.23,152.59,0,118.36,0,76.29S34.3,0,76.46,0s76.13,34.22,76.13,76.29-34.23,76.3-76.3,76.3ZM76.46,2.5C35.68,2.5,2.5,35.6,2.5,76.29s33.11,73.8,73.8,73.8,73.8-33.11,73.8-73.8S117.06,2.5,76.46,2.5Z"/><path class="cls-2-68105f430b462" d="M76.48,124.4c-3.24,0-6.49-.33-9.65-.97l-1-.2v-1.02c-.04-5.67-3.09-10.94-7.97-13.76-4.88-2.82-10.97-2.83-15.89-.03l-1.24-2.17c5.69-3.23,12.73-3.22,18.38.04,5.35,3.09,8.81,8.73,9.18,14.88,5.39.97,11,.97,16.38,0,.38-6.16,3.83-11.79,9.19-14.88,5.35-3.09,11.94-3.26,17.46-.52,3.59-4.22,6.34-8.98,8.2-14.19-5.14-3.41-8.29-9.21-8.29-15.39s3.15-11.98,8.29-15.39c-1.86-5.2-4.61-9.97-8.2-14.19-5.52,2.74-12.12,2.57-17.47-.52-5.35-3.09-8.81-8.72-9.19-14.88-5.38-.97-11-.97-16.38,0-.38,6.16-3.83,11.79-9.19,14.88-5.35,3.09-11.95,3.26-17.46.52-3.59,4.22-6.34,8.98-8.2,14.19,5.14,3.41,8.29,9.21,8.29,15.39,0,6.52-3.51,12.63-9.16,15.94l-1.26-2.16c4.89-2.86,7.93-8.14,7.93-13.78s-3.04-10.92-7.93-13.78l-.88-.51.32-.96c2.07-6.2,5.32-11.83,9.67-16.73l.67-.76.88.5c4.92,2.8,11.01,2.79,15.89-.03,4.89-2.82,7.94-8.1,7.97-13.76v-1.02s1-.2,1-.2c6.32-1.28,12.99-1.29,19.31,0l1,.2v1.02c.04,5.67,3.09,10.94,7.98,13.76,4.88,2.82,10.97,2.83,15.89.03l.88-.5.67.76c4.35,4.9,7.6,10.53,9.67,16.72l.32.96-.88.51c-4.89,2.86-7.92,8.14-7.92,13.78s3.04,10.92,7.93,13.78l.88.51-.32.96c-2.07,6.2-5.32,11.82-9.67,16.72l-.67.76-.88-.5c-4.92-2.8-11.01-2.79-15.89.03-4.89,2.82-7.94,8.09-7.97,13.76v1.02s-1,.2-1,.2c-3.16.64-6.41.97-9.66.97ZM76.57,105.87c-7.6,0-15.19-2.89-20.98-8.67-11.57-11.57-11.57-30.39,0-41.95,10.33-10.34,26.96-11.56,38.66-2.84l-1.49,2.01c-10.72-7.98-25.94-6.86-35.4,2.61-10.59,10.59-10.59,27.83,0,38.42s27.82,10.59,38.42,0c9.52-9.52,10.6-24.79,2.52-35.52l2-1.5c8.83,11.72,7.65,28.4-2.74,38.8-5.78,5.78-13.38,8.67-20.98,8.67Z"/><polyline class="cls-1-68105f430b462" points="57.7 77.31 68.67 87.82 94.53 63.04"/></svg>