<?xml version="1.0" encoding="UTF-8"?><svg xmlns="http://www.w3.org/2000/svg" id="Text67f6c2561f460" viewBox="0 0 103.02 110.16" aria-hidden="true" width="103px" height="110px">
  <defs><linearGradient class="cerosgradient" data-cerosgradient="true" id="CerosGradient_id638063f53" gradientUnits="userSpaceOnUse" x1="50%" y1="100%" x2="50%" y2="0%"><stop offset="0%" stop-color="#d1d1d1"/><stop offset="100%" stop-color="#d1d1d1"/></linearGradient><linearGradient/>
    <style>
      .cls-1-67f6c2561f460{
        fill: none;
        stroke: #001d34;
        stroke-width: .5px;
      }

      .cls-2-67f6c2561f460{
        fill: #001d34;
      }
    </style>
  </defs>
  <g>
    <path class="cls-2-67f6c2561f460" d="M1.54,9.31v-4.24h1.36v4.09c0,1.2.51,1.82,1.6,1.82s1.61-.62,1.61-1.8v-4.1h1.38v4.24c0,2.02-1.32,2.83-2.98,2.83s-2.96-.8-2.96-2.83Z"/>
    <path class="cls-2-67f6c2561f460" d="M9.55,9.49c.06,1.08.84,1.56,1.8,1.56.86,0,1.41-.34,1.41-.92,0-.53-.42-.73-1.14-.87l-1.32-.24c-1.08-.2-1.83-.79-1.83-1.94,0-1.3,1.02-2.13,2.64-2.13,1.81,0,2.84.94,2.86,2.48l-1.27.04c-.04-.95-.66-1.44-1.61-1.44-.81,0-1.28.36-1.28.96,0,.51.36.68.99.8l1.28.23c1.36.25,2,.9,2,2.02,0,1.36-1.18,2.1-2.74,2.1-1.78,0-3.07-.92-3.07-2.6l1.27-.06Z"/>
    <path class="cls-2-67f6c2561f460" d="M18.74,5.08l2.83,6.93h-1.46l-.69-1.72h-2.95l-.67,1.72h-1.39l2.81-6.93h1.53ZM16.88,9.24h2.11l-1.05-2.6h-.04l-1.02,2.6Z"/>
  </g>
  <g>
    <path class="cls-2-67f6c2561f460" d="M1.67,26.01v-6.93h.96v2.97h3.98v-2.97h.96v6.93h-.96v-3.18h-3.98v3.18h-.96Z"/>
    <path class="cls-2-67f6c2561f460" d="M12.75,25.07c0,.25.14.37.37.37.11,0,.29-.03.42-.11v.49c-.17.17-.36.29-.74.29-.5,0-.87-.38-.92-.98-.25.56-.92,1.01-1.74,1.01-.9,0-1.51-.5-1.51-1.33,0-.91.77-1.28,1.94-1.51l1.3-.26v-.2c0-.66-.39-1.07-1.06-1.07s-1.07.41-1.22.97l-.8-.11c.18-.9.9-1.56,2.04-1.56,1.21,0,1.93.62,1.93,1.84v2.16ZM11.87,23.62l-1.08.22c-.77.17-1.24.34-1.24.9,0,.41.27.74.83.74.85,0,1.5-.64,1.5-1.62v-.24Z"/>
    <path class="cls-2-67f6c2561f460" d="M18.59,24.85h.04l1.11-3.64h.85l-1.53,4.81h-.88l-1.02-3.59h-.04l-1.01,3.59h-.88l-1.54-4.81h.91l1.13,3.64h.04l1.01-3.64h.77l1.03,3.64Z"/>
    <path class="cls-2-67f6c2561f460" d="M23.47,26.14c-1.41,0-2.44-1.03-2.44-2.53s1.03-2.54,2.44-2.54,2.46,1.05,2.46,2.54-1.04,2.53-2.46,2.53ZM23.47,25.44c.98,0,1.53-.76,1.53-1.83s-.55-1.83-1.53-1.83-1.51.75-1.51,1.83.54,1.83,1.51,1.83Z"/>
    <path class="cls-2-67f6c2561f460" d="M29.8,22.12c-.26-.14-.45-.2-.75-.2-.69,0-1.21.63-1.21,1.55v2.54h-.91v-4.81h.91v.98c.18-.55.67-1.11,1.36-1.11.3,0,.52.08.68.22l-.09.83Z"/>
    <path class="cls-2-67f6c2561f460" d="M30.91,21.86h-.73v-.5l.31-.06c.45-.09.55-.31.66-.77l.14-.67h.52v1.33h1.35v.66h-1.35v2.92c0,.43.18.63.59.63.31,0,.63-.13.9-.29v.62c-.35.26-.7.41-1.23.41-.68,0-1.17-.32-1.17-1.25v-3.03Z"/>
    <path class="cls-2-67f6c2561f460" d="M35.08,26.01h-.91v-6.93h.91v2.98c.23-.58.88-.99,1.6-.99,1.25,0,1.76.84,1.76,1.96v2.98h-.91v-2.9c0-.8-.38-1.31-1.14-1.31s-1.3.57-1.3,1.45v2.76Z"/>
    <path class="cls-2-67f6c2561f460" d="M44.88,26.14c-2.02,0-3.44-1.46-3.44-3.6s1.42-3.6,3.44-3.6,3.44,1.46,3.44,3.6-1.43,3.6-3.44,3.6ZM44.88,19.76c-1.5,0-2.46,1.09-2.46,2.78s.97,2.78,2.46,2.78,2.45-1.09,2.45-2.78-.96-2.78-2.45-2.78Z"/>
    <path class="cls-2-67f6c2561f460" d="M53.77,24.85h.04l1.11-3.64h.85l-1.53,4.81h-.88l-1.02-3.59h-.04l-1.01,3.59h-.88l-1.54-4.81h.91l1.13,3.64h.04l1.01-3.64h.77l1.03,3.64Z"/>
    <path class="cls-2-67f6c2561f460" d="M57.43,26.01h-.91v-4.81h.91v.86c.23-.58.88-.99,1.6-.99,1.25,0,1.76.84,1.76,1.96v2.98h-.91v-2.9c0-.8-.38-1.31-1.14-1.31s-1.3.57-1.3,1.45v2.76Z"/>
    <path class="cls-2-67f6c2561f460" d="M66.44,24.38c-.23,1.1-1.04,1.76-2.24,1.76-1.43,0-2.48-.97-2.48-2.46s1.05-2.61,2.43-2.61c1.53,0,2.31,1.09,2.31,2.4v.35h-3.83c.04.96.72,1.61,1.57,1.61.8,0,1.29-.38,1.47-1.13l.76.09ZM65.53,23.26c-.02-.78-.47-1.5-1.38-1.5s-1.4.69-1.5,1.5h2.87Z"/>
    <path class="cls-2-67f6c2561f460" d="M71.1,25.01c-.22.59-.83,1.13-1.73,1.13-1.43,0-2.2-1.11-2.2-2.53s.77-2.54,2.2-2.54c.9,0,1.51.55,1.73,1.14v-3.14h.91v6.93h-.91v-1ZM71.11,23.47c0-1.05-.66-1.66-1.53-1.66-.95,0-1.47.7-1.47,1.8s.53,1.8,1.47,1.8c.87,0,1.53-.62,1.53-1.67v-.27Z"/>
  </g>
  <g>
    <path class="cls-2-67f6c2561f460" d="M4.71,40.01l-2.1-5.96h-.04v5.96h-.89v-6.93h1.53l1.95,5.64h.03l1.85-5.64h1.51v6.93h-.96v-5.96h-.04l-2.02,5.96h-.8Z"/>
    <path class="cls-2-67f6c2561f460" d="M13.72,39.07c0,.25.14.37.37.37.11,0,.29-.03.42-.11v.49c-.17.17-.36.29-.74.29-.5,0-.87-.38-.92-.98-.25.56-.92,1.01-1.74,1.01-.9,0-1.51-.5-1.51-1.33,0-.91.77-1.28,1.94-1.51l1.3-.26v-.2c0-.66-.39-1.07-1.06-1.07s-1.07.41-1.22.97l-.8-.11c.18-.9.9-1.56,2.04-1.56,1.21,0,1.93.62,1.93,1.84v2.16ZM12.84,37.63l-1.08.22c-.77.17-1.24.34-1.24.9,0,.41.27.74.83.74.85,0,1.5-.64,1.5-1.62v-.24Z"/>
    <path class="cls-2-67f6c2561f460" d="M16.18,40.01h-.91v-4.81h.91v.86c.23-.58.88-.99,1.6-.99,1.25,0,1.76.84,1.76,1.96v2.98h-.91v-2.9c0-.8-.38-1.31-1.14-1.31s-1.3.57-1.3,1.45v2.76Z"/>
    <path class="cls-2-67f6c2561f460" d="M24.01,35.21h.91v4.81h-.91v-.85c-.23.57-.85.98-1.57.98-1.25,0-1.72-.83-1.72-1.95v-2.99h.91v2.9c0,.8.35,1.32,1.11,1.32.72,0,1.27-.57,1.27-1.46v-2.76Z"/>
    <path class="cls-2-67f6c2561f460" d="M25.67,35.87v-.66h.74v-.56c0-1.02.58-1.69,1.6-1.69.83,0,1.29.37,1.51,1.1l-.63.22c-.12-.37-.4-.66-.84-.66-.51,0-.74.36-.74.94v.66h1.35v.66h-1.35v4.15h-.9v-4.15h-.74Z"/>
    <path class="cls-2-67f6c2561f460" d="M33.21,39.07c0,.25.14.37.37.37.11,0,.29-.03.42-.11v.49c-.17.17-.36.29-.74.29-.5,0-.87-.38-.92-.98-.25.56-.92,1.01-1.74,1.01-.9,0-1.51-.5-1.51-1.33,0-.91.77-1.28,1.94-1.51l1.3-.26v-.2c0-.66-.39-1.07-1.06-1.07s-1.07.41-1.22.97l-.8-.11c.18-.9.9-1.56,2.04-1.56,1.21,0,1.93.62,1.93,1.84v2.16ZM32.33,37.63l-1.08.22c-.77.17-1.24.34-1.24.9,0,.41.27.74.83.74.85,0,1.5-.64,1.5-1.62v-.24Z"/>
    <path class="cls-2-67f6c2561f460" d="M36.87,35.08c1.41,0,2.17.95,2.27,2.1l-.8.06c-.08-.85-.58-1.42-1.47-1.42s-1.52.69-1.52,1.8.62,1.8,1.52,1.8,1.4-.61,1.47-1.45l.8.08c-.1,1.17-.86,2.1-2.27,2.1s-2.46-1-2.46-2.53,1.01-2.54,2.46-2.54Z"/>
    <path class="cls-2-67f6c2561f460" d="M40.28,35.87h-.73v-.5l.31-.05c.45-.09.55-.31.66-.77l.14-.67h.52v1.33h1.35v.66h-1.35v2.92c0,.43.18.63.59.63.31,0,.63-.13.9-.29v.62c-.35.26-.7.41-1.23.41-.68,0-1.17-.32-1.17-1.25v-3.03Z"/>
    <path class="cls-2-67f6c2561f460" d="M46.77,35.21h.91v4.81h-.91v-.85c-.23.57-.85.98-1.57.98-1.25,0-1.72-.83-1.72-1.95v-2.99h.91v2.9c0,.8.35,1.32,1.11,1.32.72,0,1.27-.57,1.27-1.46v-2.76Z"/>
    <path class="cls-2-67f6c2561f460" d="M51.85,36.12c-.26-.14-.45-.2-.75-.2-.69,0-1.21.63-1.21,1.55v2.54h-.91v-4.81h.91v.98c.18-.55.67-1.11,1.36-1.11.3,0,.52.08.68.22l-.09.83Z"/>
    <path class="cls-2-67f6c2561f460" d="M52.66,33.08h.95v1.03h-.95v-1.03ZM53.59,35.21v4.81h-.91v-4.81h.91Z"/>
    <path class="cls-2-67f6c2561f460" d="M55.8,40.01h-.91v-4.81h.91v.86c.23-.58.88-.99,1.6-.99,1.25,0,1.76.84,1.76,1.96v2.98h-.91v-2.9c0-.8-.38-1.31-1.14-1.31s-1.3.57-1.3,1.45v2.76Z"/>
    <path class="cls-2-67f6c2561f460" d="M62.32,38.34c-.4,0-.75-.07-1.04-.2-.17.1-.33.26-.33.48,0,.26.15.42.58.42h1.88c1.04,0,1.6.54,1.6,1.3,0,1.18-1.33,1.65-2.77,1.65-1.3,0-2.38-.41-2.38-1.3,0-.55.4-.9.99-1.02-.44-.13-.63-.45-.63-.81,0-.42.29-.71.71-.9-.4-.29-.63-.71-.63-1.24,0-1.01.84-1.64,2.01-1.64.62,0,1.14.18,1.51.5.25-.4.7-.66,1.22-.66v.79c-.32,0-.69.08-.94.19.15.23.24.52.24.83,0,1-.85,1.63-2.04,1.63ZM62.24,41.41c1.11,0,1.9-.25,1.9-.97,0-.44-.37-.6-.94-.6h-1.57c-.5,0-.92.17-.92.69,0,.63.64.88,1.53.88ZM62.34,35.66c-.67,0-1.08.4-1.08,1.06s.41,1.07,1.08,1.07,1.09-.4,1.09-1.07-.41-1.06-1.09-1.06Z"/>
  </g>
  <path class="cls-2-67f6c2561f460" d="M2.83,52.53c-.74,0-1.32-.55-1.32-1.33s.58-1.33,1.32-1.33,1.34.56,1.34,1.33-.59,1.33-1.34,1.33Z"/>
  <g>
    <path class="cls-2-67f6c2561f460" d="M16.71,54.02l-2.1-5.96h-.04v5.96h-.89v-6.93h1.53l1.95,5.64h.03l1.85-5.64h1.51v6.93h-.96v-5.96h-.04l-2.02,5.96h-.8Z"/>
    <path class="cls-2-67f6c2561f460" d="M21.87,47.09h.95v1.03h-.95v-1.03ZM22.8,49.21v4.81h-.91v-4.81h.91Z"/>
    <path class="cls-2-67f6c2561f460" d="M26.26,49.08c1.41,0,2.17.95,2.27,2.1l-.8.06c-.08-.85-.58-1.42-1.47-1.42s-1.52.69-1.52,1.8.62,1.8,1.52,1.8,1.4-.61,1.47-1.45l.8.08c-.1,1.17-.86,2.1-2.27,2.1s-2.46-1-2.46-2.53,1.01-2.54,2.46-2.54Z"/>
    <path class="cls-2-67f6c2561f460" d="M30.41,54.02h-.91v-6.93h.91v2.98c.23-.58.88-.99,1.6-.99,1.25,0,1.76.84,1.76,1.96v2.98h-.91v-2.9c0-.8-.38-1.31-1.14-1.31s-1.3.57-1.3,1.45v2.76Z"/>
    <path class="cls-2-67f6c2561f460" d="M34.99,47.09h.95v1.03h-.95v-1.03ZM35.92,49.21v4.81h-.91v-4.81h.91Z"/>
    <path class="cls-2-67f6c2561f460" d="M39.14,52.35c-.4,0-.75-.07-1.04-.2-.17.1-.33.26-.33.48,0,.26.15.42.58.42h1.88c1.04,0,1.6.54,1.6,1.3,0,1.18-1.33,1.65-2.77,1.65-1.3,0-2.38-.41-2.38-1.3,0-.55.4-.9.99-1.02-.44-.13-.63-.45-.63-.81,0-.42.29-.71.71-.9-.4-.29-.63-.71-.63-1.24,0-1.01.84-1.64,2.01-1.64.62,0,1.14.18,1.51.5.25-.4.7-.66,1.22-.66v.79c-.32,0-.69.08-.94.19.15.23.24.52.24.83,0,1-.85,1.63-2.04,1.63ZM39.05,55.42c1.11,0,1.9-.25,1.9-.97,0-.44-.37-.6-.94-.6h-1.57c-.5,0-.92.17-.92.69,0,.63.64.88,1.53.88ZM39.15,49.66c-.67,0-1.08.4-1.08,1.06s.41,1.07,1.08,1.07,1.09-.4,1.09-1.07-.41-1.06-1.09-1.06Z"/>
    <path class="cls-2-67f6c2561f460" d="M46.36,53.07c0,.25.14.37.37.37.11,0,.29-.03.42-.11v.49c-.17.17-.36.29-.74.29-.5,0-.87-.38-.92-.98-.25.56-.92,1.01-1.74,1.01-.9,0-1.51-.5-1.51-1.33,0-.91.77-1.28,1.94-1.51l1.3-.26v-.2c0-.66-.39-1.07-1.06-1.07s-1.07.41-1.22.97l-.8-.11c.18-.9.9-1.56,2.04-1.56,1.21,0,1.93.62,1.93,1.84v2.16ZM45.48,51.63l-1.08.22c-.77.17-1.24.34-1.24.9,0,.41.27.74.83.74.85,0,1.5-.64,1.5-1.62v-.24Z"/>
    <path class="cls-2-67f6c2561f460" d="M48.84,54.02h-.91v-4.81h.91v.86c.23-.58.88-.99,1.6-.99,1.25,0,1.76.84,1.76,1.96v2.98h-.91v-2.9c0-.8-.38-1.31-1.14-1.31s-1.3.57-1.3,1.45v2.76Z"/>
  </g>
  <path class="cls-2-67f6c2561f460" d="M2.83,66.54c-.74,0-1.32-.55-1.32-1.33s.58-1.33,1.32-1.33,1.34.56,1.34,1.33-.59,1.33-1.34,1.33Z"/>
  <g>
    <path class="cls-2-67f6c2561f460" d="M18.46,66.39v-5.3h.89v6.93h-.76l-4.03-5.57v5.57h-.89v-6.93h.99l3.8,5.3Z"/>
    <path class="cls-2-67f6c2561f460" d="M22.83,68.15c-1.41,0-2.44-1.03-2.44-2.53s1.03-2.54,2.44-2.54,2.46,1.04,2.46,2.54-1.04,2.53-2.46,2.53ZM22.83,67.45c.98,0,1.53-.76,1.53-1.83s-.55-1.83-1.53-1.83-1.51.75-1.51,1.83.54,1.83,1.51,1.83Z"/>
    <path class="cls-2-67f6c2561f460" d="M29.17,64.13c-.26-.14-.45-.2-.75-.2-.69,0-1.21.63-1.21,1.55v2.54h-.91v-4.81h.91v.98c.18-.55.67-1.11,1.36-1.11.3,0,.52.08.68.22l-.09.83Z"/>
    <path class="cls-2-67f6c2561f460" d="M30.28,63.87h-.73v-.5l.31-.05c.45-.09.55-.31.66-.77l.14-.67h.52v1.33h1.35v.66h-1.35v2.92c0,.43.18.63.59.63.31,0,.63-.13.9-.29v.62c-.35.26-.7.41-1.23.41-.68,0-1.17-.32-1.17-1.25v-3.03Z"/>
    <path class="cls-2-67f6c2561f460" d="M34.45,68.02h-.91v-6.93h.91v2.98c.23-.58.88-.99,1.6-.99,1.25,0,1.76.84,1.76,1.96v2.98h-.91v-2.9c0-.8-.38-1.31-1.14-1.31s-1.3.57-1.3,1.45v2.76Z"/>
    <path class="cls-2-67f6c2561f460" d="M44.21,60.96c1.98,0,3.1,1.22,3.23,3l-.92.04c-.08-1.28-.88-2.23-2.31-2.23s-2.42,1.08-2.42,2.78,1.01,2.78,2.42,2.78,2.23-.96,2.31-2.23l.92.04c-.13,1.78-1.25,3-3.23,3s-3.4-1.46-3.4-3.6,1.49-3.6,3.4-3.6Z"/>
    <path class="cls-2-67f6c2561f460" d="M52.34,67.07c0,.25.14.37.37.37.11,0,.29-.03.42-.11v.49c-.17.17-.36.29-.74.29-.5,0-.87-.38-.92-.98-.25.56-.92,1.01-1.74,1.01-.9,0-1.51-.5-1.51-1.33,0-.91.77-1.28,1.94-1.51l1.3-.26v-.2c0-.66-.39-1.07-1.06-1.07s-1.07.41-1.22.97l-.8-.11c.18-.9.9-1.56,2.04-1.56,1.21,0,1.93.62,1.93,1.84v2.16ZM51.46,65.63l-1.08.22c-.77.17-1.24.34-1.24.9,0,.41.27.74.83.74.85,0,1.5-.64,1.5-1.62v-.24Z"/>
    <path class="cls-2-67f6c2561f460" d="M56.76,64.13c-.26-.14-.45-.2-.75-.2-.69,0-1.21.63-1.21,1.55v2.54h-.91v-4.81h.91v.98c.18-.55.67-1.11,1.36-1.11.3,0,.52.08.68.22l-.09.83Z"/>
    <path class="cls-2-67f6c2561f460" d="M59.59,68.15c-1.41,0-2.44-1.03-2.44-2.53s1.03-2.54,2.44-2.54,2.46,1.04,2.46,2.54-1.04,2.53-2.46,2.53ZM59.59,67.45c.98,0,1.53-.76,1.53-1.83s-.55-1.83-1.53-1.83-1.51.75-1.51,1.83.54,1.83,1.51,1.83Z"/>
    <path class="cls-2-67f6c2561f460" d="M63.95,61.09v6.93h-.91v-6.93h.91Z"/>
    <path class="cls-2-67f6c2561f460" d="M65.23,61.09h.95v1.03h-.95v-1.03ZM66.16,63.21v4.81h-.91v-4.81h.91Z"/>
    <path class="cls-2-67f6c2561f460" d="M68.36,68.02h-.91v-4.81h.91v.86c.23-.58.88-.99,1.6-.99,1.25,0,1.76.84,1.76,1.96v2.98h-.91v-2.9c0-.8-.38-1.31-1.14-1.31s-1.3.57-1.3,1.45v2.76Z"/>
    <path class="cls-2-67f6c2561f460" d="M76.83,67.07c0,.25.14.37.37.37.11,0,.29-.03.42-.11v.49c-.17.17-.36.29-.74.29-.5,0-.87-.38-.92-.98-.25.56-.92,1.01-1.74,1.01-.9,0-1.51-.5-1.51-1.33,0-.91.77-1.28,1.94-1.51l1.3-.26v-.2c0-.66-.39-1.07-1.06-1.07s-1.07.41-1.22.97l-.8-.11c.18-.9.9-1.56,2.04-1.56,1.21,0,1.93.62,1.93,1.84v2.16ZM75.95,65.63l-1.08.22c-.77.17-1.24.34-1.24.9,0,.41.27.74.83.74.85,0,1.5-.64,1.5-1.62v-.24Z"/>
  </g>
  <path class="cls-2-67f6c2561f460" d="M2.83,80.54c-.74,0-1.32-.55-1.32-1.33s.58-1.33,1.32-1.33,1.34.56,1.34,1.33-.59,1.33-1.34,1.33Z"/>
  <g>
    <path class="cls-2-67f6c2561f460" d="M16.71,82.02l-2.1-5.96h-.04v5.96h-.89v-6.93h1.53l1.95,5.64h.03l1.85-5.64h1.51v6.93h-.96v-5.96h-.04l-2.02,5.96h-.8Z"/>
    <path class="cls-2-67f6c2561f460" d="M21.87,75.09h.95v1.03h-.95v-1.03ZM22.8,77.22v4.81h-.91v-4.81h.91Z"/>
    <path class="cls-2-67f6c2561f460" d="M24.51,80.35c.1.74.6,1.14,1.44,1.14.66,0,1.11-.24,1.11-.73,0-.45-.32-.61-.91-.72l-.8-.13c-.91-.15-1.46-.54-1.46-1.36,0-.88.75-1.47,1.87-1.47,1.27,0,2.01.59,2.09,1.71l-.73.04c-.11-.75-.57-1.09-1.38-1.09-.6,0-1,.27-1,.71,0,.4.24.59.74.68l.9.14c.97.17,1.54.53,1.54,1.4,0,.96-.85,1.47-1.97,1.47-1.2,0-2.11-.56-2.2-1.75l.76-.05Z"/>
    <path class="cls-2-67f6c2561f460" d="M29.31,80.35c.1.74.6,1.14,1.44,1.14.66,0,1.11-.24,1.11-.73,0-.45-.32-.61-.91-.72l-.8-.13c-.91-.15-1.46-.54-1.46-1.36,0-.88.75-1.47,1.87-1.47,1.27,0,2.01.59,2.09,1.71l-.73.04c-.11-.75-.57-1.09-1.38-1.09-.6,0-1,.27-1,.71,0,.4.24.59.74.68l.9.14c.97.17,1.54.53,1.54,1.4,0,.96-.85,1.47-1.97,1.47-1.2,0-2.11-.56-2.2-1.75l.76-.05Z"/>
    <path class="cls-2-67f6c2561f460" d="M33.7,75.09h.95v1.03h-.95v-1.03ZM34.64,77.22v4.81h-.91v-4.81h.91Z"/>
    <path class="cls-2-67f6c2561f460" d="M36.33,80.35c.1.74.6,1.14,1.44,1.14.66,0,1.11-.24,1.11-.73,0-.45-.32-.61-.91-.72l-.8-.13c-.91-.15-1.46-.54-1.46-1.36,0-.88.75-1.47,1.87-1.47,1.27,0,2.01.59,2.09,1.71l-.73.04c-.11-.75-.57-1.09-1.38-1.09-.6,0-1,.27-1,.71,0,.4.24.59.74.68l.9.14c.97.17,1.54.53,1.54,1.4,0,.96-.85,1.47-1.97,1.47-1.2,0-2.11-.56-2.2-1.75l.76-.05Z"/>
    <path class="cls-2-67f6c2561f460" d="M41.15,80.35c.1.74.6,1.14,1.44,1.14.66,0,1.11-.24,1.11-.73,0-.45-.32-.61-.91-.72l-.8-.13c-.91-.15-1.46-.54-1.46-1.36,0-.88.75-1.47,1.87-1.47,1.27,0,2.01.59,2.09,1.71l-.73.04c-.11-.75-.57-1.09-1.38-1.09-.6,0-1,.27-1,.71,0,.4.24.59.74.68l.9.14c.97.17,1.54.53,1.54,1.4,0,.96-.85,1.47-1.97,1.47-1.2,0-2.11-.56-2.2-1.75l.76-.05Z"/>
    <path class="cls-2-67f6c2561f460" d="M45.54,75.09h.95v1.03h-.95v-1.03ZM46.47,77.22v4.81h-.91v-4.81h.91Z"/>
    <path class="cls-2-67f6c2561f460" d="M48.67,83.87h-.91v-6.66h.91v1.01c.21-.59.83-1.14,1.73-1.14,1.42,0,2.2,1.12,2.2,2.54s-.78,2.53-2.2,2.53c-.9,0-1.52-.54-1.73-1.13v2.85ZM48.65,79.76c0,1.06.67,1.67,1.54,1.67.95,0,1.46-.7,1.46-1.8s-.52-1.8-1.46-1.8c-.87,0-1.54.62-1.54,1.66v.27Z"/>
    <path class="cls-2-67f6c2561f460" d="M54.51,83.87h-.91v-6.66h.91v1.01c.21-.59.83-1.14,1.73-1.14,1.42,0,2.2,1.12,2.2,2.54s-.78,2.53-2.2,2.53c-.9,0-1.52-.54-1.73-1.13v2.85ZM54.49,79.76c0,1.06.67,1.67,1.54,1.67.95,0,1.46-.7,1.46-1.8s-.52-1.8-1.46-1.8c-.87,0-1.54.62-1.54,1.66v.27Z"/>
    <path class="cls-2-67f6c2561f460" d="M59.42,75.09h.95v1.03h-.95v-1.03ZM60.36,77.22v4.81h-.91v-4.81h.91Z"/>
  </g>
  <path class="cls-2-67f6c2561f460" d="M2.83,94.54c-.74,0-1.32-.55-1.32-1.33s.58-1.33,1.32-1.33,1.34.56,1.34,1.33-.59,1.33-1.34,1.33Z"/>
  <g>
    <path class="cls-2-67f6c2561f460" d="M16.71,96.03l-2.1-5.96h-.04v5.96h-.89v-6.93h1.53l1.95,5.64h.03l1.85-5.64h1.51v6.93h-.96v-5.96h-.04l-2.02,5.96h-.8Z"/>
    <path class="cls-2-67f6c2561f460" d="M21.87,89.1h.95v1.03h-.95v-1.03ZM22.8,91.22v4.81h-.91v-4.81h.91Z"/>
    <path class="cls-2-67f6c2561f460" d="M25.01,96.03h-.91v-4.81h.91v.86c.23-.58.88-.99,1.6-.99,1.25,0,1.76.84,1.76,1.96v2.98h-.91v-2.9c0-.8-.38-1.31-1.14-1.31s-1.3.57-1.3,1.45v2.76Z"/>
    <path class="cls-2-67f6c2561f460" d="M30.52,96.03h-.91v-4.81h.91v.86c.23-.58.88-.99,1.6-.99,1.25,0,1.76.84,1.76,1.96v2.98h-.91v-2.9c0-.8-.38-1.31-1.14-1.31s-1.3.57-1.3,1.45v2.76Z"/>
    <path class="cls-2-67f6c2561f460" d="M39.53,94.4c-.23,1.1-1.04,1.76-2.24,1.76-1.43,0-2.48-.97-2.48-2.46s1.05-2.61,2.43-2.61c1.53,0,2.31,1.09,2.31,2.4v.35h-3.83c.04.96.71,1.61,1.57,1.61.8,0,1.29-.38,1.47-1.13l.76.09ZM38.62,93.28c-.02-.78-.47-1.5-1.38-1.5s-1.4.69-1.5,1.5h2.87Z"/>
    <path class="cls-2-67f6c2561f460" d="M41,94.35c.1.74.6,1.14,1.44,1.14.66,0,1.11-.24,1.11-.73,0-.45-.32-.61-.91-.72l-.8-.13c-.91-.15-1.46-.54-1.46-1.36,0-.88.75-1.47,1.87-1.47,1.27,0,2.01.59,2.09,1.71l-.73.04c-.11-.75-.57-1.09-1.38-1.09-.6,0-1,.27-1,.71,0,.4.24.59.74.68l.9.14c.97.17,1.54.53,1.54,1.4,0,.96-.85,1.47-1.97,1.47-1.2,0-2.11-.56-2.2-1.75l.76-.05Z"/>
    <path class="cls-2-67f6c2561f460" d="M47.55,96.16c-1.41,0-2.44-1.03-2.44-2.53s1.03-2.54,2.44-2.54,2.46,1.04,2.46,2.54-1.04,2.53-2.46,2.53ZM47.55,95.45c.98,0,1.53-.76,1.53-1.83s-.55-1.83-1.53-1.83-1.51.75-1.51,1.83.54,1.83,1.51,1.83Z"/>
    <path class="cls-2-67f6c2561f460" d="M51.18,91.88h-.73v-.5l.31-.05c.45-.09.55-.31.66-.77l.14-.67h.52v1.33h1.35v.66h-1.35v2.92c0,.43.18.63.59.63.31,0,.63-.13.9-.29v.62c-.35.26-.7.41-1.23.41-.68,0-1.17-.32-1.17-1.25v-3.03Z"/>
    <path class="cls-2-67f6c2561f460" d="M58.3,95.08c0,.25.14.37.37.37.11,0,.29-.03.42-.11v.49c-.17.17-.36.29-.74.29-.5,0-.87-.38-.92-.98-.25.56-.92,1.01-1.74,1.01-.9,0-1.51-.5-1.51-1.33,0-.91.77-1.28,1.94-1.51l1.3-.26v-.2c0-.66-.39-1.07-1.06-1.07s-1.07.41-1.22.97l-.8-.11c.18-.9.9-1.56,2.04-1.56,1.21,0,1.93.62,1.93,1.84v2.16ZM57.42,93.64l-1.08.22c-.77.17-1.24.34-1.24.9,0,.41.27.74.83.74.85,0,1.5-.64,1.5-1.62v-.24Z"/>
    <path class="cls-2-67f6c2561f460" d="M61.88,92.81h2.53v.81h-2.53v-.81Z"/>
    <path class="cls-2-67f6c2561f460" d="M66.87,96.03v-6.14h-2.52v-.79h6.03v.79h-2.56v6.14h-.95Z"/>
    <path class="cls-2-67f6c2561f460" d="M73.9,91.22h.91v4.81h-.91v-.85c-.23.57-.85.98-1.57.98-1.25,0-1.72-.83-1.72-1.95v-2.99h.91v2.9c0,.8.35,1.32,1.11,1.32.72,0,1.27-.57,1.27-1.46v-2.76Z"/>
    <path class="cls-2-67f6c2561f460" d="M78.24,96.16c-1.41,0-2.44-1.03-2.44-2.53s1.03-2.54,2.44-2.54,2.46,1.04,2.46,2.54-1.04,2.53-2.46,2.53ZM78.24,95.45c.98,0,1.53-.76,1.53-1.83s-.55-1.83-1.53-1.83-1.51.75-1.51,1.83.54,1.83,1.51,1.83Z"/>
    <path class="cls-2-67f6c2561f460" d="M82.62,96.03h-.91v-6.93h.91v2.98c.23-.58.88-.99,1.6-.99,1.25,0,1.76.84,1.76,1.96v2.98h-.91v-2.9c0-.8-.38-1.31-1.14-1.31s-1.3.57-1.3,1.45v2.76Z"/>
    <path class="cls-2-67f6c2561f460" d="M87.84,97.88l.78-1.86-2.02-4.8h.96l1.53,3.7h.04l1.47-3.7h.9l-2.77,6.66h-.89Z"/>
  </g>
  <path class="cls-2-67f6c2561f460" d="M2.83,108.54c-.74,0-1.32-.55-1.32-1.33s.58-1.33,1.32-1.33,1.34.56,1.34,1.33-.59,1.33-1.34,1.33Z"/>
  <g>
    <path class="cls-2-67f6c2561f460" d="M16.71,110.03l-2.1-5.96h-.04v5.96h-.89v-6.93h1.53l1.95,5.64h.03l1.85-5.64h1.51v6.93h-.96v-5.96h-.04l-2.02,5.96h-.8Z"/>
    <path class="cls-2-67f6c2561f460" d="M25.72,109.08c0,.25.14.37.37.37.11,0,.29-.03.42-.11v.49c-.17.17-.36.29-.74.29-.5,0-.87-.38-.92-.98-.25.56-.92,1.01-1.74,1.01-.9,0-1.51-.5-1.51-1.33,0-.91.77-1.28,1.94-1.51l1.3-.26v-.2c0-.66-.39-1.07-1.06-1.07s-1.07.41-1.22.97l-.8-.11c.18-.9.9-1.56,2.04-1.56,1.21,0,1.93.62,1.93,1.84v2.16ZM24.84,107.64l-1.08.22c-.77.17-1.24.34-1.24.9,0,.41.27.74.83.74.85,0,1.5-.64,1.5-1.62v-.24Z"/>
    <path class="cls-2-67f6c2561f460" d="M27.67,108.36c.1.74.6,1.14,1.44,1.14.66,0,1.11-.24,1.11-.73,0-.45-.32-.61-.91-.72l-.8-.13c-.91-.15-1.46-.54-1.46-1.36,0-.88.75-1.47,1.87-1.47,1.27,0,2.01.59,2.09,1.71l-.73.04c-.11-.75-.57-1.09-1.38-1.09-.6,0-1,.27-1,.71,0,.4.24.59.74.68l.9.14c.97.17,1.54.53,1.54,1.4,0,.96-.85,1.47-1.97,1.47-1.2,0-2.11-.56-2.2-1.75l.76-.05Z"/>
    <path class="cls-2-67f6c2561f460" d="M32.49,108.36c.1.74.6,1.14,1.44,1.14.66,0,1.11-.24,1.11-.73,0-.45-.32-.61-.91-.72l-.8-.13c-.91-.15-1.46-.54-1.46-1.36,0-.88.75-1.47,1.87-1.47,1.27,0,2.01.59,2.09,1.71l-.73.04c-.11-.75-.57-1.09-1.38-1.09-.6,0-1,.27-1,.71,0,.4.24.59.74.68l.9.14c.97.17,1.54.53,1.54,1.4,0,.96-.85,1.47-1.97,1.47-1.2,0-2.11-.56-2.2-1.75l.76-.05Z"/>
    <path class="cls-2-67f6c2561f460" d="M40.77,109.08c0,.25.14.37.37.37.11,0,.29-.03.42-.11v.49c-.17.17-.36.29-.74.29-.5,0-.87-.38-.92-.98-.25.56-.92,1.01-1.74,1.01-.9,0-1.51-.5-1.51-1.33,0-.91.77-1.28,1.94-1.51l1.3-.26v-.2c0-.66-.39-1.07-1.06-1.07s-1.07.41-1.22.97l-.8-.11c.18-.9.9-1.56,2.04-1.56,1.21,0,1.93.62,1.93,1.84v2.16ZM39.89,107.64l-1.08.22c-.77.17-1.24.34-1.24.9,0,.41.27.74.83.74.85,0,1.5-.64,1.5-1.62v-.24Z"/>
    <path class="cls-2-67f6c2561f460" d="M44.43,105.09c1.41,0,2.17.95,2.27,2.1l-.8.06c-.08-.85-.58-1.42-1.47-1.42s-1.52.69-1.52,1.8.62,1.8,1.52,1.8,1.4-.61,1.47-1.45l.8.08c-.1,1.17-.86,2.1-2.27,2.1s-2.46-1-2.46-2.53,1.01-2.54,2.46-2.54Z"/>
    <path class="cls-2-67f6c2561f460" d="M48.6,110.03h-.91v-6.93h.91v2.98c.23-.58.88-.99,1.6-.99,1.25,0,1.76.84,1.76,1.96v2.98h-.91v-2.9c0-.8-.38-1.31-1.14-1.31s-1.3.57-1.3,1.45v2.76Z"/>
    <path class="cls-2-67f6c2561f460" d="M56.43,105.22h.91v4.81h-.91v-.85c-.23.57-.85.98-1.57.98-1.25,0-1.72-.83-1.72-1.95v-2.99h.91v2.9c0,.8.35,1.32,1.11,1.32.72,0,1.27-.57,1.27-1.46v-2.76Z"/>
    <path class="cls-2-67f6c2561f460" d="M59.06,108.36c.1.74.6,1.14,1.44,1.14.66,0,1.11-.24,1.11-.73,0-.45-.32-.61-.91-.72l-.8-.13c-.91-.15-1.46-.54-1.46-1.36,0-.88.75-1.47,1.87-1.47,1.27,0,2.01.59,2.09,1.71l-.73.04c-.11-.75-.57-1.09-1.38-1.09-.6,0-1,.27-1,.71,0,.4.24.59.74.68l.9.14c.97.17,1.54.53,1.54,1.4,0,.96-.85,1.47-1.97,1.47-1.2,0-2.11-.56-2.2-1.75l.76-.05Z"/>
    <path class="cls-2-67f6c2561f460" d="M67.89,108.4c-.23,1.1-1.04,1.76-2.24,1.76-1.43,0-2.48-.97-2.48-2.46s1.05-2.61,2.43-2.61c1.53,0,2.31,1.09,2.31,2.4v.35h-3.83c.04.96.72,1.61,1.57,1.61.8,0,1.29-.38,1.47-1.13l.76.09ZM66.98,107.28c-.02-.78-.47-1.5-1.38-1.5s-1.4.69-1.5,1.5h2.87Z"/>
    <path class="cls-2-67f6c2561f460" d="M69.08,105.88h-.73v-.5l.31-.05c.45-.09.55-.31.66-.77l.14-.67h.52v1.33h1.35v.66h-1.35v2.92c0,.43.18.63.59.63.31,0,.63-.13.9-.29v.62c-.35.26-.7.41-1.23.41-.68,0-1.17-.32-1.17-1.25v-3.03Z"/>
    <path class="cls-2-67f6c2561f460" d="M72.49,105.88h-.73v-.5l.31-.05c.45-.09.55-.31.66-.77l.14-.67h.52v1.33h1.35v.66h-1.35v2.92c0,.43.18.63.59.63.31,0,.63-.13.9-.29v.62c-.35.26-.7.41-1.23.41-.68,0-1.17-.32-1.17-1.25v-3.03Z"/>
    <path class="cls-2-67f6c2561f460" d="M76.15,108.36c.1.74.6,1.14,1.44,1.14.66,0,1.11-.24,1.11-.73,0-.45-.32-.61-.91-.72l-.8-.13c-.91-.15-1.46-.54-1.46-1.36,0-.88.75-1.47,1.87-1.47,1.27,0,2.01.59,2.09,1.71l-.73.04c-.11-.75-.57-1.09-1.38-1.09-.6,0-1,.27-1,.71,0,.4.24.59.74.68l.9.14c.97.17,1.54.53,1.54,1.4,0,.96-.85,1.47-1.97,1.47-1.2,0-2.11-.56-2.2-1.75l.76-.05Z"/>
    <path class="cls-2-67f6c2561f460" d="M82.59,106.82h2.53v.81h-2.53v-.81Z"/>
    <path class="cls-2-67f6c2561f460" d="M91.83,103.1l2.88,6.93h-1.01l-.84-2.04h-3.16l-.81,2.04h-.94l2.83-6.93h1.04ZM90,107.24h2.55l-1.27-3.08h-.04l-1.24,3.08Z"/>
    <path class="cls-2-67f6c2561f460" d="M96.52,103.1v6.93h-.96v-6.93h.96Z"/>
    <path class="cls-2-67f6c2561f460" d="M98.34,107.5c.06,1.26.92,1.91,2.09,1.91,1.03,0,1.68-.44,1.68-1.2,0-.64-.42-.95-1.32-1.12l-1.38-.26c-1.02-.2-1.73-.75-1.73-1.83,0-1.21.96-2.04,2.48-2.04,1.74,0,2.74.92,2.75,2.49l-.87.04c-.03-1.14-.73-1.79-1.87-1.79-1,0-1.56.47-1.56,1.24,0,.68.45.9,1.25,1.06l1.25.24c1.27.24,1.9.79,1.9,1.9,0,1.28-1.1,2.01-2.6,2.01-1.71,0-2.95-.93-2.95-2.61l.86-.05Z"/>
  </g>
  <line class="cls-1-67f6c2561f460" y1=".25" x2="91.33" y2=".25"/>
</svg>