<svg xmlns="http://www.w3.org/2000/svg" xmlns:xlink="http://www.w3.org/1999/xlink" version="1.1" x="0px" y="0px" viewBox="0 0 100 100" enable-background="new 0 0 100 100" xml:space="preserve" aria-hidden="true" width="100px" height="100px" style="fill:url(#CerosGradient_id5f665d4e5);"><defs><linearGradient class="cerosgradient" data-cerosgradient="true" id="CerosGradient_id5f665d4e5" gradientUnits="userSpaceOnUse" x1="50%" y1="100%" x2="50%" y2="0%"><stop offset="0%" stop-color="#D1D1D1"/><stop offset="100%" stop-color="#D1D1D1"/></linearGradient><linearGradient/></defs><g><path d="M51.1,5L51.1,5l-1,0c0,0-0.1,0-0.1,0c0,0-0.1,0-0.1,0l-0.8,0l0,0C24.7,5.5,5,25.5,5,50c0,24.9,20.1,45,45,45   c24.9,0,45-20.1,45-45C95,25.5,75.4,5.6,51.1,5z M50,93C26.3,93,7,73.7,7,50C7,26.6,25.8,7.5,49.1,7L49,70.1L26,47.1l-1.4,1.4   l24.8,24.8c0.2,0.2,0.5,0.3,0.7,0.3c0.3,0,0.5-0.1,0.7-0.3l24.8-24.8l-1.4-1.4L51,70.2L51.1,7C74.3,7.6,93,26.7,93,50   C93,73.7,73.7,93,50,93z" style="fill:url(#CerosGradient_id5f665d4e5);"/></g></svg>