<!-- Generator: Adobe Illustrator 25.0.1, SVG Export Plug-In  --><svg xmlns="http://www.w3.org/2000/svg" xmlns:xlink="http://www.w3.org/1999/xlink" version="1.1" x="0px" y="0px" width="33px" height="33px" viewBox="0 0 33.6 33.6" style="overflow:visible;enable-background:new 0 0 33.6 33.6;fill:url(#CerosGradient_ide2b1869c0);" xml:space="preserve" aria-hidden="true">
<style type="text/css">
	.st0-6842e2fd159a4{fill:#373E4E;}
</style>
<defs><linearGradient class="cerosgradient" data-cerosgradient="true" id="CerosGradient_ide2b1869c0" gradientUnits="userSpaceOnUse" x1="50%" y1="100%" x2="50%" y2="0%"><stop offset="0%" stop-color="#FFFFFF"/><stop offset="100%" stop-color="#FFFFFF"/></linearGradient><linearGradient/>
</defs>
<g>
	<path class="st0-6842e2fd159a4" d="M25.4,0H8.2C3.7,0,0,3.7,0,8.2v0.9h1.5V8.2c0-1.8,0.8-3.5,2-4.7c1.2-1.2,2.9-2,4.7-2h17.1c1.8,0,3.5,0.8,4.7,2   c1.2,1.2,2,2.9,2,4.7v17.1c0,1.8-0.8,3.5-2,4.7c-1.2,1.2-2.9,2-4.7,2H8.2c-1.8,0-3.5-0.8-4.7-2c-1.2-1.2-2-2.9-2-4.7V12.2H0l0,13.1   c0,4.5,3.7,8.2,8.2,8.2h17.1c4.5,0,8.2-3.7,8.2-8.2V8.2C33.6,3.7,29.9,0,25.4,0z" style="fill:url(#CerosGradient_ide2b1869c0);"/>
	<rect x="9.1" y="12.2" class="st0-6842e2fd159a4" width="1.5" height="13.8" style="fill:url(#CerosGradient_ide2b1869c0);"/>
	<path class="st0-6842e2fd159a4" d="M15.3,12.2v5.4c0,0,0,0,0,0h0v8.5h1.5v-8.5c0-1,0.4-1.9,1.1-2.5c0.7-0.7,1.6-1.1,2.6-1.1h0.3   c1,0,1.9,0.4,2.6,1.1c0.7,0.7,1.1,1.6,1.1,2.6v8.5h1.5v-8.5c0-2.8-2.3-5.1-5.1-5.1h-0.3c-1.4,0-2.7,0.6-3.6,1.5v-1.7H15.3z" style="fill:url(#CerosGradient_ide2b1869c0);"/>
	<path class="st0-6842e2fd159a4" d="M9.9,9C9.4,9,9,9.4,9,9.9c0,0.3,0.1,0.5,0.3,0.7c0.2,0.2,0.4,0.3,0.7,0.3c0.5,0,0.9-0.4,0.9-0.9   C10.9,9.4,10.4,9,9.9,9z" style="fill:url(#CerosGradient_ide2b1869c0);"/>
</g>
</svg>