<svg xmlns="http://www.w3.org/2000/svg" viewBox="0 0 33 33"><path d="M7.35,29.94H17.6v1H7.35Zm12.49,0h4.88v1H19.84Z" style="fill:#001d34"/><path d="M17.39,21.6l.72-.65,3.15,3.54-.72.64Z" style="fill:#001d34"/><path d="M23.26,30.93h-1V25.18H9.71v5.75h-1V24.22H23.26Z" style="fill:#001d34"/><path d="M11.42,25.08l-.73-.64,3.14-3.54.68.68-.18.18-2.91,3.31Zm12-9.53v-1a3.23,3.23,0,0,0,3.22-3.23V6.7H23.22v-1h4.44v5.64a4.19,4.19,0,0,1-4.19,4.19Zm-15,0a4.19,4.19,0,0,1-4.19-4.19V5.73H8.75v1H5.28v4.67A3.23,3.23,0,0,0,8.5,14.59Z" style="fill:#001d34"/><path d="M16,22.17H16a7.76,7.76,0,0,1-7.7-7.76V1.88H18.89v1H9.23V14.41a6.77,6.77,0,0,0,13.53.14V2.84H20.84v-1h2.89V14.41A7.76,7.76,0,0,1,16,22.17Z" style="fill:#001d34"/><path d="M16,19.27a4.5,4.5,0,0,1-4.49-4.49h1A3.52,3.52,0,0,0,16,18.3v1Z" style="fill:#001d34"/></svg>