<svg xmlns="http://www.w3.org/2000/svg" xmlns:xlink="http://www.w3.org/1999/xlink" version="1.1" x="0px" y="0px" viewBox="0 0 80 80" enable-background="new 0 0 80 80" xml:space="preserve" aria-hidden="true" width="80px" height="80px" style="fill:url(#CerosGradient_id62afdf3f3);"><defs><linearGradient class="cerosgradient" data-cerosgradient="true" id="CerosGradient_id62afdf3f3" gradientUnits="userSpaceOnUse" x1="50%" y1="100%" x2="50%" y2="0%"><stop offset="0%" stop-color="#D1D1D1"/><stop offset="100%" stop-color="#D1D1D1"/></linearGradient><linearGradient/></defs><g><g><path fill="#000000" d="M33,40c-3.3,0-6-2.7-6-6s2.7-6,6-6s6,2.7,6,6S36.3,40,33,40z M33,30c-2.2,0-4,1.8-4,4s1.8,4,4,4s4-1.8,4-4    S35.2,30,33,30z" style="fill:url(#CerosGradient_id62afdf3f3);"/></g><g><path fill="#000000" d="M44,54H22v-4.2c0-4.9,3.9-8.8,8.8-8.8h4.4c4.9,0,8.8,3.9,8.8,8.8V54z M24,52h18v-2.2    c0-3.8-3.1-6.8-6.8-6.8h-4.4C27,43,24,46.1,24,49.8V52z" style="fill:url(#CerosGradient_id62afdf3f3);"/></g></g><g><g><path fill="#000000" d="M47,36c-3.3,0-6-2.7-6-6s2.7-6,6-6s6,2.7,6,6S50.3,36,47,36z M47,26c-2.2,0-4,1.8-4,4s1.8,4,4,4s4-1.8,4-4    S49.2,26,47,26z" style="fill:url(#CerosGradient_id62afdf3f3);"/></g><g><path fill="#000000" d="M58,50H46v-2h10v-2.2c0-3.8-3.1-6.8-6.8-6.8h-4.4c-1.2,0-2.3,0.3-3.3,0.9l-1-1.7c1.3-0.7,2.8-1.1,4.3-1.1    h4.4c4.9,0,8.8,3.9,8.8,8.8V50z" style="fill:url(#CerosGradient_id62afdf3f3);"/></g></g></svg>