<?xml version="1.0" encoding="UTF-8"?><svg xmlns="http://www.w3.org/2000/svg" id="Map_Outline67f6c1681f459" data-name="Map Outline" viewBox="0 0 886.41 433.88" aria-hidden="true" width="886px" height="433px">
  <defs><linearGradient class="cerosgradient" data-cerosgradient="true" id="CerosGradient_id77ec8f9f3" gradientUnits="userSpaceOnUse" x1="50%" y1="100%" x2="50%" y2="0%"><stop offset="0%" stop-color="#d1d1d1"/><stop offset="100%" stop-color="#d1d1d1"/></linearGradient><linearGradient/>
    <style>
      .cls-1-67f6c1681f459{
        fill: #001d34;
      }
    </style>
  </defs>
  <path class="cls-1-67f6c1681f459" d="M261.67,433.88c-8.18-1.51-14.12-8.66-14.12-17,0-1.23.11-2.24.29-3.57.12-.88,12.24-87.83,12.36-88.83.3-2.33-.34-3.79-2.04-4.74l-11.16-5.77c-3.4-1.85-5.51-5.39-5.51-9.25v-16.53h.98v16.53c0,3.5,1.91,6.71,4.99,8.38l11.17,5.77c2.07,1.15,2.9,3.02,2.56,5.73-.13,1.01-11.87,85.26-12.36,88.84-.18,1.29-.29,2.26-.29,3.43,0,7.86,5.6,14.6,13.32,16.03l-.18.97ZM263.88,428.6c-1.39-1.96-2.13-4.27-2.13-6.68,0-2.58.7-4.85,2.04-6.55.02-.03,2.25-2.87,5.91-7.27,1.15-1.38.84-2.14.49-3.02-.33-.81-.73-1.82.27-3.11.9-1.17,2.22-2.78,3.5-4.34,1.22-1.49,2.38-2.9,2.86-3.56,1.07-1.45,1.6-2.83,1.6-4.09v-3.58c0-1.66,1.11-2.82,2.69-2.82h5.31c2.22,0,4.12-1.01,5.81-3.09,10.25-12.61,19.57-23.95,19.66-24.07,1.93-2.27,2.99-5.16,2.99-8.13,0-1.2-.11-2.15-.36-2.98-.48-1.65.05-2.98,1.45-3.65l16.58-7.8c3.19-1.53,5.25-4.8,5.25-8.34v-17.95l.1-.13c.33-.43,8.04-10.61,9.48-12.36,1.27-1.54,1.97-3.66,1.97-5.96,0-3.99-2.21-7.58-5.5-8.93-2.11-.87-8.91-3.87-14.91-6.51-4.25-1.87-7.92-3.49-9.08-3.98-3.79-1.6-7.18-4.56-9.56-8.35-1.2-1.91-2.65-4.14-3.91-6.07-1.18-1.82-2.2-3.38-2.68-4.18-1.31-2.16-3.84-3.5-6.6-3.5h-5.99l-.08-.39c-.03-.13-.71-3.1-3.98-4.37-.26-.11-24.98-10.3-27.7-11.27-1.2-.43-2.3-.64-3.36-.64-3.33,0-6.39,1.8-7.99,4.7-.74,1.35-.9,3.41-.9,3.43l-.03.46h-11.93c-4.54,0-8.24-3.69-8.24-8.24v-5.8c0-2.86-2.33-5.18-5.18-5.18h-7v-.49s-.02-9.67-.02-12.34c0-1.52-1.24-2.75-2.75-2.75-.76,0-1.5.32-2.02.88l-3.62,4.23c-2.74,3.12-6.51,2.41-8.31.9-.69-.58-2.71-2.45-2.8-2.53-5.26-5.26-6.35-13.3-2.68-19.57.76-1.3,1.43-2.45,2.01-3.46,1.26-2.17,2.17-3.74,2.93-4.94,1.14-1.79,3.16-2.2,4.68-1.98.74.11,1.9.32,3.24.56,1.28.23,2.74.5,4.16.73,1.72.28,2.4-.41,3.19-1.22.62-.63,1.32-1.35,2.54-1.35h4.55c2.43,0,4.64,1.26,5.75,3.28.32.57.88,1.61,1.54,2.83,1.5,2.75,3.55,6.52,4.08,7.4.61,1.01,1.77,1.51,2.85,1.24.66-.17,1.22-.58,1.57-1.17.35-.59.45-1.27.29-1.94l-3.39-14.17,13.01-13.16c.91-.99,1.42-2.3,1.42-3.67,0-1.46-.57-2.82-1.59-3.85l-.36-.36.37-.35s14.55-13.72,16.66-15.72c2.01-1.9,5.01-2.95,8.43-2.95h12.29c1.51,0,2.74-1.23,2.74-2.74,0-.9-.4-1.73-1.04-2.16-1.09-.73-6.77-4.05-8.74-5.1-2.31-1.23-4.44-1.82-6.52-1.82-.54,0-1.14,0-1.71.01-.5,0-.98,0-1.36,0-1.3,0-2.36-1.06-2.36-2.36s1.06-2.36,2.36-2.36c.26,0,3.05,0,6.54-.01,5.81,0,13.54-.02,14.72-.02,2.44,0,4.42,1.98,4.42,4.42,0,1.9,1.54,3.44,3.44,3.44h3.6c1.9,0,3.44-1.54,3.44-3.44,0-.75-.27-1.49-.8-2.2-.85-1.15-11.23-14.77-12.32-16.14-1-1.26-2.51-1.98-4.14-1.98h-3.48c-3.47,0-6.29-2.82-6.29-6.29v-5.08c.08-.91-.21-1.62-.8-2.03-.55-.38-1.3-.44-1.9-.16-.65.3-1.05.95-1.12,1.82-.2,2.32-1.64,2.56-5.15,2.56-2.37,0-3.56-1.58-4.71-3.1-.83-1.1-1.69-2.24-3.02-2.81-3.65-1.58-10.12-4.33-12.46-4.97-1.05-.29-2.58-.27-3.76.62-1.05.8-1.61,2.19-1.61,4v22.28c0,1.45-1.01,2.63-2.57,3.02-1.55.38-3.06-.17-3.68-1.35-1.11-2.1-1.34-2.54-2.77-5.21-1.42-2.65-3-4.84-7.88-4.84-2.67,0-3.88-1.29-5.06-2.53-1.14-1.21-2.21-2.34-4.7-2.34h-8.43c-4.83,0-5.81-2.72-5.81-6.81s1.04-5.74,4.46-7.74c2.9-1.7,9.52-4.93,11.54-5.79,2.22-.95,4.27-1.05,6.09-.29.55.23,1.29.54,2.12.89,1.83.77,4.12,1.74,5.79,2.41,1.12.45,1.98.06,2.34-.53.27-.44.31-1.11-.35-1.67-1.59-1.34-4.93-4.22-4.93-4.22-.53-.42-.74-1.07-.55-1.69.18-.58.7-.98,1.32-1.01.32-.02.82-.02,1.38-.03,1.02,0,2.3-.02,2.95-.13,2.01-.35,2.11-1.85,2.11-4.7s2.33-4.59,4.58-4.59c.34,0,.73-.01,1.15-.02,1.87-.05,4.44-.13,6.18.74,1.77.88,4.61,2.85,6.49,4.16l.77.53c1.11.76,1.68,1.85,1.48,2.82-.18.88-.94,1.52-2.1,1.76-1.2.25-2.71.49-4.32.75-1.67.27-3.39.55-5.02.87-1.03.21-1.68.71-1.72,1.36-.04.64.5,1.27,1.35,1.57,2.42.85,27.5,9.08,30.5,10.01,1.14.35,2.07.09,2.5-.71.38-.72.28-1.83-.65-2.57-2.01-1.61-6.11-5.28-7.48-6.66-.74-.74-.88-1.78-.35-2.58.5-.77,1.66-1.28,3.12-.7,2.22.89,4.47,1.78,8.42,3.33,2,.79,3.26-.17,3.73-1.23.56-1.24.27-2.93-1.36-3.75-1.86-.94-4.07-2.1-6.32-3.28-1.61-.85-3.24-1.7-4.77-2.49-2-1.03-2.66-2.53-3.24-3.86-.54-1.24-1.01-2.32-2.5-2.95-3.21-1.36-11.57-4.42-16.56-6.24l-2.31-.84c-4.65-1.71-8.5-2.57-11.42-2.57h-20.25c-2.06,0-3.23,1.25-3.63,2.43-.52,1.52,0,3.19,1.35,4.23,1.26.98,2.72,2.02,4.14,3.02,1.82,1.29,3.71,2.63,5.25,3.9,1.61,1.33,1.56,3,.82,3.98-.78,1.04-2.41,1.52-4.02.42-.58-.4-1.7-1.17-3.08-2.14-4.26-2.97-11.38-7.95-12.94-8.69-.77-.36-1.5-.37-2.07,0-.64.41-1.02,1.24-1.02,2.22v4.18c0,3.24-1.92,5.51-4.68,5.51h-23.95c-1.58,0-2.4-1.19-2.4-2.36s.83-2.36,2.4-2.36h7.56c1.08,0,1.91-.37,2.38-1.08.49-.74.54-1.77.12-2.75-.84-2.03-5.48-11.91-7.41-15.55-1.97-3.7-5.47-2.63-6.89-1.99-1.93.86-4.14,1.6-8,.35-1.03-.33-2.32-.76-3.74-1.23-3.76-1.24-8.43-2.78-11.72-3.74-4.58-1.33-7.72-.55-10.52,2.61-2.76,3.12-8.59,10.04-10.41,12.29-.84,1.04-1.06,2.34-.56,3.39.39.83,1.16,1.3,2.11,1.3h5.56c2.37,0,3.17-1.21,3.9-2.67.48-.95,1.21-1.56,2.05-1.71.59-.11,1.51-.03,2.52.91.79.74,1.7,1.62,2.63,2.53.97.95,1.97,1.93,2.9,2.79.91.85,1.24,2.02.84,2.98-.43,1.03-1.55,1.58-3.06,1.52-2.96-.11-31.21-2.57-34.62-2.88-4.16-.38-5.59.46-7.95,2.09-3.14,2.17-6.02,2.4-8.12.64-.48-.4-.92-.81-1.36-1.22-1.51-1.41-2.82-2.63-5-2.95-3.07-.45-36.79-3.57-40.19-3.76-3.8-.23-6.36.2-9.77,1.63-2.63,1.1-10.74,4.93-12.61,5.86-.93.47-1.2,1.37-1.04,2.01.07.28.32.94,1.27.94h8.32c1.6,0,2.33,1.19,2.33,2.29s-.78,2.35-2.22,2.35h-10.14c-1.03,0-1.7.59-1.91,1.18-.22.61,0,1.23.6,1.72,1.72,1.4,4.01,2.71,4.04,2.73l-.49.85c-.1-.06-2.38-1.37-4.17-2.82-.93-.75-1.26-1.8-.91-2.81.39-1.1,1.53-1.83,2.83-1.83h10.14c.81,0,1.24-.69,1.24-1.37,0-.35-.11-.68-.32-.91-.24-.26-.58-.4-1.03-.4h-8.32c-1.13,0-1.98-.65-2.23-1.69-.24-1.01.15-2.41,1.56-3.12,1.88-.94,10.02-4.79,12.67-5.89,3.56-1.49,6.23-1.93,10.21-1.7,3.59.21,37.02,3.29,40.28,3.77,2.48.37,3.96,1.75,5.52,3.21.43.4.86.8,1.32,1.19,2.21,1.86,4.99.65,6.92-.69,2.49-1.72,4.11-2.68,8.6-2.27,3.3.3,31.69,2.77,34.57,2.88,1.09.04,1.86-.29,2.12-.92.24-.58,0-1.32-.61-1.88-.93-.87-1.94-1.85-2.91-2.81-.92-.9-1.82-1.78-2.61-2.52-.57-.53-1.15-.76-1.68-.66-.53.1-1.01.52-1.35,1.19-.78,1.55-1.85,3.21-4.78,3.21h-5.56c-1.32,0-2.44-.7-3-1.86-.66-1.39-.4-3.09.68-4.43,1.87-2.31,7.62-9.14,10.43-12.32,3.04-3.44,6.6-4.34,11.53-2.9,3.31.96,7.99,2.51,11.75,3.75,1.42.47,2.7.89,3.73,1.23,3.53,1.14,5.47.5,7.3-.31,1.3-.58,5.74-2.13,8.16,2.43,1.83,3.44,6.51,13.36,7.45,15.63.54,1.29.46,2.67-.21,3.68-.65.98-1.79,1.52-3.2,1.52h-7.56c-.98,0-1.42.69-1.42,1.38s.44,1.38,1.42,1.38h23.95c2.18,0,3.7-1.86,3.7-4.53v-4.18c0-1.32.55-2.46,1.48-3.05.86-.55,1.93-.56,3.02-.05,1.64.77,8.53,5.59,13.08,8.77,1.38.96,2.49,1.74,3.07,2.13,1.15.78,2.2.44,2.68-.2.44-.59.54-1.64-.66-2.63-1.51-1.25-3.38-2.58-5.19-3.86-1.43-1.01-2.9-2.06-4.18-3.05-1.68-1.31-2.34-3.4-1.67-5.33.65-1.91,2.4-3.09,4.56-3.09h20.25c3.04,0,6.99.89,11.76,2.63l2.31.84c5,1.83,13.38,4.88,16.61,6.26,1.84.78,2.44,2.14,3.01,3.46.56,1.29,1.1,2.51,2.79,3.38,1.53.79,3.16,1.65,4.78,2.49,2.24,1.18,4.45,2.34,6.3,3.27,2.15,1.08,2.54,3.4,1.82,5.03-.7,1.57-2.52,2.72-4.99,1.74-3.95-1.55-6.21-2.44-8.43-3.33-1-.4-1.67-.08-1.93.32-.21.32-.27.85.23,1.34,1.36,1.36,5.42,4.99,7.4,6.58,1.19.95,1.57,2.55.9,3.8-.51.96-1.74,1.79-3.66,1.19-3-.93-28.11-9.17-30.53-10.02-1.28-.45-2.09-1.48-2.01-2.57.08-1.12,1.02-1.96,2.51-2.26,1.64-.33,3.38-.61,5.05-.88,1.59-.26,3.1-.5,4.27-.75.76-.16,1.24-.51,1.33-.99.12-.58-.31-1.29-1.07-1.82l-.78-.54c-1.86-1.29-4.67-3.23-6.37-4.09-1.52-.76-3.94-.69-5.71-.64-.43.01-.83.02-1.18.02-1.49,0-3.6,1.12-3.6,3.61,0,2.65,0,5.15-2.92,5.66-.73.13-1.99.14-3.11.14-.54,0-1.02,0-1.33.02-.22.01-.38.14-.45.33-.07.22.02.46.24.63.02.01,3.35,2.89,4.93,4.23.92.78,1.15,1.96.56,2.93-.57.95-1.89,1.6-3.55.93-1.67-.68-3.96-1.64-5.8-2.42l-2.11-.89c-1.59-.66-3.33-.56-5.32.29-2,.86-8.55,4.05-11.43,5.74-3.12,1.83-3.97,3.31-3.97,6.89,0,4.36,1.22,5.83,4.83,5.83h8.43c2.92,0,4.24,1.41,5.42,2.65,1.13,1.19,2.1,2.23,4.34,2.23,5.42,0,7.23,2.54,8.75,5.36,1.43,2.67,1.66,3.11,2.77,5.21.48.9,1.67,1.07,2.57.85.88-.22,1.82-.87,1.82-2.06v-22.28c0-2.69,1.09-4.09,2-4.78,1.24-.95,2.96-1.24,4.61-.79,2.4.66,8.92,3.42,12.59,5.01,1.57.68,2.51,1.92,3.41,3.13,1.1,1.45,2.05,2.71,3.93,2.71,3.85,0,4.06-.37,4.17-1.66.1-1.22.72-2.18,1.68-2.63.93-.44,2.04-.34,2.88.25.88.61,1.32,1.66,1.22,2.87v5.04c0,2.93,2.38,5.31,5.31,5.31h3.48c1.93,0,3.71.86,4.9,2.35,1.1,1.37,11.49,15.01,12.34,16.16.66.88.99,1.82.99,2.79,0,2.44-1.98,4.42-4.42,4.42h-3.6c-2.44,0-4.42-1.98-4.42-4.42,0-1.9-1.54-3.44-3.44-3.44-1.18,0-8.91.01-14.72.02-3.49,0-6.29.01-6.54.01-.76,0-1.38.62-1.38,1.38s.62,1.38,1.38,1.38c.38,0,.85,0,1.35,0,.57,0,1.17-.01,1.72-.01,2.24,0,4.52.63,6.98,1.94,1.99,1.06,7.72,4.42,8.83,5.15.93.62,1.48,1.73,1.48,2.97,0,2.06-1.67,3.73-3.73,3.73h-12.29c-3.17,0-5.93.95-7.76,2.68-1.92,1.81-14.07,13.28-16.31,15.39,1,1.16,1.54,2.63,1.54,4.18s-.6,3.15-1.69,4.34l-12.64,12.79,3.26,13.64c.23.91.09,1.86-.4,2.68-.49.81-1.26,1.38-2.18,1.61-1.51.38-3.1-.3-3.93-1.68-.54-.9-2.52-4.52-4.1-7.44-.66-1.21-1.22-2.25-1.54-2.82-.94-1.71-2.82-2.77-4.89-2.77h-4.55c-.8,0-1.26.46-1.83,1.05-.81.83-1.83,1.86-4.05,1.5-1.43-.23-2.89-.5-4.18-.74-1.33-.24-2.47-.45-3.21-.56-1.21-.17-2.82.14-3.71,1.54-.75,1.19-1.66,2.75-2.91,4.91-.59,1.02-1.25,2.16-2.02,3.46-3.44,5.89-2.41,13.44,2.52,18.37,0,0,2.07,1.92,2.75,2.48,1.18.98,4.42,2.08,6.94-.79l3.63-4.24c.72-.77,1.72-1.21,2.75-1.21,2.06,0,3.74,1.68,3.74,3.74,0,2.31.01,9.85.01,11.85h6.02c3.4,0,6.17,2.77,6.17,6.17v5.8c0,4,3.25,7.25,7.25,7.25h11.03c.09-.74.34-2.24.97-3.38,1.77-3.21,5.16-5.21,8.85-5.21,1.17,0,2.38.23,3.69.7,2.74.98,26.71,10.87,27.73,11.29,3.07,1.2,4.15,3.72,4.47,4.69h5.22c3.11,0,5.96,1.52,7.44,3.97.47.78,1.49,2.35,2.67,4.16,1.26,1.94,2.72,4.18,3.92,6.08,2.27,3.62,5.5,6.44,9.11,7.96,1.17.49,4.84,2.11,9.09,3.99,5.99,2.64,12.79,5.64,14.89,6.5,3.65,1.5,6.11,5.46,6.11,9.84,0,2.53-.78,4.87-2.19,6.58-1.34,1.63-8.43,10.97-9.36,12.19v17.62c0,3.92-2.28,7.54-5.81,9.23l-16.57,7.8c-.96.46-1.27,1.3-.92,2.49.27.92.4,1.96.4,3.26,0,3.21-1.14,6.32-3.22,8.76-.09.11-9.4,11.45-19.65,24.06-1.89,2.33-4.04,3.46-6.58,3.46h-5.31c-1.26,0-1.71.99-1.71,1.83v3.58c0,1.48-.6,3.05-1.8,4.67-.5.68-1.66,2.1-2.89,3.6-1.21,1.48-2.59,3.16-3.48,4.32-.66.85-.45,1.37-.13,2.15.39.97.88,2.18-.64,4.02-3.65,4.38-5.87,7.21-5.89,7.24-1.2,1.53-1.83,3.59-1.83,5.95,0,2.21.67,4.32,1.95,6.12l-.8.57ZM856.52,404.33c-.92,0-1.84-.35-2.55-1.05-1.4-1.41-1.4-3.69,0-5.1l8.76-8.76c1.41-1.4,3.69-1.4,5.09,0h0c1.4,1.4,1.4,3.69,0,5.09l-8.76,8.76c-.7.7-1.62,1.05-2.55,1.05ZM865.28,389.35c-.67,0-1.34.25-1.85.76l-8.76,8.76c-1.02,1.02-1.02,2.68,0,3.71,1.02,1.02,2.68,1.02,3.7,0l8.76-8.76c1.02-1.02,1.02-2.68,0-3.7-.51-.51-1.18-.76-1.85-.76ZM800.1,400.87c-2.21,0-4-1.8-4-4v-3.79c0-2.21,1.8-4,4-4s4,1.8,4,4v3.79c0,2.21-1.8,4-4,4ZM800.1,390.05c-1.67,0-3.02,1.36-3.02,3.02v3.79c0,1.67,1.36,3.02,3.02,3.02s3.02-1.36,3.02-3.02v-3.79c0-1.67-1.36-3.02-3.02-3.02ZM872.88,387.98c-.92,0-1.84-.35-2.55-1.05-.68-.68-1.05-1.58-1.05-2.55s.37-1.87,1.05-2.55l2.38-2.38c1.4-1.4,3.69-1.4,5.09,0h0c.68.68,1.06,1.58,1.06,2.55s-.38,1.87-1.06,2.55l-2.38,2.38c-.7.7-1.62,1.05-2.55,1.05ZM875.25,379.38c-.67,0-1.34.25-1.85.77l-2.38,2.38c-.5.49-.77,1.15-.77,1.85s.27,1.36.77,1.85c1.02,1.02,2.68,1.02,3.7,0l2.38-2.38c.5-.5.77-1.15.77-1.85,0-.7-.27-1.36-.77-1.85h0c-.51-.51-1.18-.77-1.85-.77ZM796.41,384.92c-4.41,0-8.42-2.21-10.71-5.91-1.21-1.95-2.71-4.11-4.03-6.01-.93-1.33-1.73-2.48-2.21-3.26-.72-1.16-2.08-1.87-3.54-1.87-.86,0-1.69.25-2.39.73l-5.21,3.62-.56-.81,5.21-3.62c.88-.59,1.89-.9,2.95-.9,1.8,0,3.47.89,4.37,2.33.47.76,1.27,1.9,2.19,3.22,1.33,1.91,2.84,4.08,4.06,6.05,2.11,3.41,5.8,5.45,9.87,5.45,3.27,0,6.34-1.3,8.2-3.48,2.17-2.54,12.26-15.59,13.62-17.43,1.37-1.86,2.09-4.1,2.09-6.5,0-1.34-.2-2.54-.58-3.57-.34-.9-7.56-20.29-8.24-22.36-.68-2.05-2.92-3.48-5.45-3.48-2.86,0-5.39-1.68-6.44-4.27-.56-1.39-4.03-9.42-6.56-15.28-1.51-3.5-2.74-6.34-2.93-6.8-.29-.69-.95-1.14-1.68-1.14-1,0-1.81.81-1.81,1.81v14.47c0,1.54-1.25,2.79-2.79,2.79-.47,0-.89-.1-1.27-.3-.38-.21-8.6-4.95-9.01-5.19-1.29-.76-1.61-2.22-.85-3.9l.17-.37c.81-1.8,1.76-3.9,1.95-4.26.14-.27.21-.55.21-.85,0-1-.81-1.81-1.81-1.81h-9.87c-1.46,0-2.79.88-3.31,2.2-.38.98-2.34,5.28-2.42,5.46-.43,1.02-1.44,1.69-2.57,1.69-.73,0-1.39-.26-1.88-.73-.17-.16-.5-.5-.9-.91-.69-.71-1.56-1.6-2.01-2.01-.63-.57-1.47-.89-2.36-.89-1.37,0-2.61.78-3.24,2.04-.59,1.2-6.15,11.47-7.72,14.27-1.58,2.82-4.81,4.56-8.44,4.56h-3.07c-5.42,0-9.83,4.41-9.83,9.83,0,1.35.25,2.61.75,3.77.56,1.3,4.93,11.43,7.5,17.36l.07.17-3.25,9.88c-.19.44-.27.88-.27,1.33,0,1.82,1.48,3.31,3.31,3.31.32,0,.64-.05.95-.14l31.76-12.19c1.31-.42,2.65-.62,4.01-.62,4.23,0,8.22,2.06,10.68,5.51l-.8.57c-2.27-3.19-5.96-5.09-9.88-5.09-1.26,0-2.5.19-3.68.57l-31.77,12.2c-2.85.87-5.55-1.31-5.55-4.1,0-.58.11-1.14.34-1.67l3.12-9.49c-2.57-5.95-6.87-15.9-7.42-17.19-.55-1.28-.83-2.67-.83-4.15,0-5.96,4.85-10.82,10.82-10.82h3.07c3.27,0,6.18-1.56,7.58-4.06,1.57-2.79,7.1-13.03,7.7-14.22.79-1.59,2.37-2.58,4.12-2.58,1.14,0,2.21.41,3.02,1.14.47.43,1.35,1.33,2.05,2.05.38.4.71.73.87.89.3.29.73.45,1.2.45.73,0,1.38-.43,1.67-1.11.03-.06,2.04-4.47,2.41-5.43.66-1.69,2.36-2.82,4.23-2.82h9.87c1.54,0,2.79,1.25,2.79,2.79,0,.45-.11.9-.32,1.3-.2.38-1.45,3.16-1.92,4.21l-.17.37c-.32.7-.68,1.98.46,2.65.41.24,8.59,4.97,8.98,5.17.23.12.5.18.8.18,1,0,1.81-.81,1.81-1.81v-14.47c0-1.54,1.25-2.79,2.79-2.79,1.13,0,2.15.68,2.59,1.74.19.46,1.41,3.29,2.92,6.79,2.53,5.86,6,13.89,6.57,15.3.89,2.19,3.11,3.66,5.53,3.66,2.94,0,5.57,1.71,6.38,4.15.66,1.97,7.66,20.81,8.23,22.32.43,1.14.65,2.45.65,3.92,0,2.6-.79,5.05-2.28,7.08-1.35,1.85-11.48,14.94-13.66,17.49-2.05,2.4-5.39,3.83-8.95,3.83ZM484.75,370.99c-3.04,0-5.75-1.79-6.76-4.46-.64-1.69-9.7-27.69-14.57-41.65-1.57-4.51-2.66-7.62-2.78-7.98-.36-1.03-.53-2.2-.53-3.67,0-5.07,2.94-9.61,7.53-11.69-.75-2.49-4.65-15.4-6.19-20.68-1.13-3.87-2.66-4.53-5.2-5.62-.37-.16-.76-.32-1.16-.51-3.66-1.66-3.26-4.58-2.51-6.93.26-.82.56-1.72.86-2.64.6-1.82,1.22-3.7,1.67-5.24.1-.33.2-.66.3-.98.59-1.87,1.06-3.35-.12-4.82-.74-.92-2.06-1.9-4.99.19-1.12.8-2.54,1.03-3.87.62-1.54-.47-2.75-1.71-3.41-3.48-1.25-3.37-3.28-4.94-6.36-4.94s-5.09,1.71-7.03,3.37l-.25.22c-2.7,2.3-5.98,2.3-8.88,2.29h-.24c-7.65,0-14.35-2.31-18.86-6.52-4.62-4.3-11.25-10.64-12.56-12.07-1.4-1.53-2.17-3.65-2.17-5.96,0-1.15.21-2.29.64-3.38.39-1,1.01-2.45,1.45-3.37.5-1.05.76-2.21.76-3.47,0-.87-.18-1.72-.36-2.43-.31-1.23-2.13-8.06-2.93-10.61-.32-1.04-.48-2.2-.48-3.56,0-4.28,1.96-8.25,5.26-10.6,2.16-1.55,12.03-8.45,12.12-8.52l.56.81c-.1.07-9.96,6.97-12.12,8.51-3.04,2.17-4.85,5.84-4.85,9.8,0,1.26.14,2.33.44,3.27.8,2.56,2.64,9.42,2.95,10.66.19.77.39,1.7.39,2.67,0,1.4-.29,2.71-.85,3.89-.43.9-1.04,2.32-1.42,3.3-.38.97-.57,1.99-.57,3.02,0,2.07.68,3.95,1.91,5.3,1.29,1.41,7.9,7.73,12.5,12.02,4.33,4.03,10.79,6.25,18.19,6.25h.24c2.71,0,5.82,0,8.24-2.06l.25-.21c1.98-1.69,4.22-3.61,7.67-3.61s5.89,1.83,7.29,5.58c.55,1.48,1.53,2.5,2.77,2.88,1.04.32,2.14.15,3.01-.48,2.67-1.91,4.8-1.91,6.32,0,1.5,1.88.91,3.75.29,5.73-.1.31-.2.63-.29.96-.46,1.56-1.08,3.45-1.68,5.28-.3.92-.6,1.81-.86,2.63-.81,2.54-.79,4.48,1.98,5.74.4.18.78.34,1.14.5,2.61,1.12,4.5,1.93,5.75,6.24,1.7,5.82,6.27,20.94,6.32,21.09l.13.43-.41.17c-4.45,1.84-7.33,6.14-7.33,10.96,0,1.36.15,2.42.48,3.35.12.35,1.21,3.47,2.78,7.98,4.87,13.96,13.93,39.95,14.56,41.63.86,2.29,3.21,3.83,5.84,3.83,3.51,0,6.36-2.86,6.36-6.36v-.49h8.44c3.12,0,6-1.28,7.92-3.5,1.38-1.61,5.22-6.88,5.66-7.48,1.16-1.59.57-3.69-.57-4.85-.92-.95-1.3-2.08-1.04-3.12.23-.92.97-1.63,2.01-1.95l1.7-.53c.76-.24,1.29-.4,2.25-.69,1.24-.37,2.55-1.82,2.55-3.76v-11.84s.12-.14.12-.14c.08-.09,7.54-8.8,9.13-10.71,2.66-3.21,4.13-7.02,4.13-10.75,0-5.54-1.52-8.12-2.74-10.2-.3-.51-.59-1-.84-1.5-1.35-2.69-1.9-4.23-1.81-6.8.07-2,.8-3.96,2.25-6,.21-.3,1.8-2.55,4.13-5.85,12.77-18.1,24.64-34.93,25.11-35.5.61-.75.91-1.48.91-2.22,0-1.75-1.42-3.18-3.18-3.18-.39,0-.76.11-1.16.23l-.15.05c-1.82.54-14.09,4.61-14.22,4.65-1.06.29-1.96.07-2.51-.6-.54-.65-.63-1.63-.23-2.42l.14-.28c.65-1.24,1.53-2.94-.6-4.68-2.69-2.19-11.92-11.23-13.91-13.62-2.08-2.5-2.65-3.96-2.75-7.12-.1-3.05-.2-6.43-1.5-8.75-.4-.72-3.98-7.13-5.47-10.47-.42-.94-.41-1.99.02-2.97.47-1.09,1.43-1.96,2.55-2.35,2.01-.69,4.17.35,5.25,2.53.73,1.46,11.22,23.01,15.7,32.21l1.9,3.89c1.13,2.31,3.4,3.75,5.92,3.75.57,0,1.3-.03,1.93-.29,1.15-.46,17.73-7.18,20.79-8.47,2.78-1.17,4.26-2.25,5.64-4.13,1.41-1.92,4.77-6.73,5.8-8.5.55-.96.84-2.04.84-3.12,0-2.2-1.16-4.22-3.03-5.27-1.31-.73-5.8-3.36-5.8-3.36-1.92-1.13-2.95-.63-4.11.14-1.63,1.09-3.32,2.14-3.69,2.36-.94.57-2.23.36-2.99-.56-.75-.91-9.74-14.5-10.26-15.34-.35-.56-.52-1.12-.52-1.69,0-1.66,1.35-3.01,3.01-3.01.6,0,1.16.16,1.62.47.52.35,6.29,3.99,11.38,7.2,3.61,2.27,7.08,4.46,8.71,5.5,4.26,2.71,9.05,4.14,13.87,4.14h10.37c1.96,0,2.81.6,3.37,2.39l.53,1.67c.73,2.29,1.83,5.75,2.13,6.89.14.51.4.87.77,1.03.43.19.99.13,1.58-.17.94-.47,1.29-.62,1.76-.83.22-.1.46-.2.81-.36.77-.35,1.48-.38,2.05-.1.66.32,1.12,1.03,1.36,2.11,1.11,4.79,2.61,11.4,4.01,17.53,1.84,8.09,3.57,15.72,3.82,16.58.54,1.88,2.17,3.14,4.06,3.14,1.68,0,3.18-.91,3.73-2.27.23-.55.46-1.21.74-1.95.26-.71.55-1.5.88-2.37.32-.82.89-1.33,1.44-1.82.74-.65,1.37-1.22,1.37-2.52v-9.23c0-2.12.71-3.77,2.22-5.17,1.38-1.29,7.57-6.79,9.14-8.16,1.14-.99,1.25-2.09,1.38-3.25.03-.28.06-.56.1-.83.47-2.95,2.31-4.51,5.31-4.51h8.29c1.04,0,2.53.18,3.44,1.74.68,1.16,4.28,6.9,4.31,6.96l.08.12v13.79c0,.67.22,1.15.59,1.3.36.14.86-.06,1.31-.55.42-.45,1.05-1.2,1.77-2.03.79-.92,1.67-1.95,2.46-2.83.56-.62,1.27-.85,1.88-.62.59.23.94.82.94,1.59v5.1c0,1.37.32,4.02,1.2,5.33.28.42.55.84.81,1.26.67,1.06,1.31,2.06,1.99,2.81.29.32.74.41,1.19.24.48-.19,1-.73,1-1.67v-4.39c0-.75.4-1.34,1-1.49.58-.15,1.17.17,1.51.81,2.57,4.81,7.85,13.92,8.51,15.03.31.51.73.79,1.17.75.48-.04.93-.44,1.19-1.08.68-1.66,3.33-7.47,3.45-7.72l.13-.29h.63c3.1,0,5.62-2.52,5.62-5.62,0-.74-.1-1.33-.3-1.81-.35-.84-2.98-6.39-7.81-16.51l-.42-.89c-.28-.6-.42-1.3-.42-2.08,0-2.92,2.38-5.3,5.3-5.3.75,0,1.65.33,1.65,1.91v6.78c0,1.3,1.04,1.89,2.01,1.89s2.01-.62,2.01-1.99v-6.29c0-1.31,1.06-2.3,2.46-2.3h2.85c5.05,0,9.8-2.17,13.03-5.95,1.43-1.67,6.76-8.34,8.76-11.02,2.05-2.75,3.13-5.98,3.13-9.35,0-4.75-2.13-9.17-5.85-12.13l-.42-.33.36-.39s3.24-3.47,4.66-4.89c.7-.7.68-1.57.46-2.11-.24-.57-.72-.9-1.32-.9s-1.16-.01-1.74-.03c-1.24-.03-2.51-.06-4.51.03-.92.03-1.73-.28-2.32-.93-.5-.56-.8-1.32-.83-2.14-.06-1.58.91-3.23,2.89-3.31,2.11-.09,7.19-.04,10.55-.02,1.25,0,2.28.02,2.9.02,2.57,0,3.98,2.04,4.23,4.06.09.73.24,1.64.41,2.71.24,1.5.54,3.37.8,5.44.17,1.32.81,2.22,1.82,2.54.86.27,1.89.06,2.4-.5,1.2-1.31,2.43-2.65,3.96-4.4,1.35-1.54.78-3.88-.44-5.3l-.74-.87c-.72-.85-1.08-1.28-2.1-2.3-.82-.82-1.25-1.8-1.22-2.75.03-.88.46-1.7,1.24-2.37.58-.5,1.42-1.34,2.39-2.31,1.55-1.55,3.48-3.47,5.32-4.97,1.69-1.38,3.25-.82,4.63-.33,1.32.47,2.45.88,3.73-.22,1.79-1.52,5.01-4.6,7.6-7.07,1.76-1.68,3.28-3.12,4.07-3.83,1.64-1.46,2.59-3.7,2.59-6.13v-5.73h.98v5.73c0,2.71-1.06,5.21-2.92,6.86-.78.69-2.29,2.13-4.04,3.8-2.73,2.61-5.83,5.56-7.64,7.1-1.71,1.46-3.3.89-4.7.39-1.29-.46-2.42-.86-3.68.16-1.8,1.47-3.71,3.37-5.25,4.9-.99.98-1.84,1.83-2.45,2.35-.58.49-.88,1.05-.9,1.66-.03.68.3,1.39.93,2.02,1.04,1.04,1.42,1.48,2.15,2.36l.73.86c1.49,1.74,2.15,4.63.44,6.59-1.54,1.76-2.76,3.09-3.95,4.39-.8.87-2.21,1.19-3.44.79-1.37-.44-2.28-1.66-2.5-3.35-.26-2.05-.56-3.91-.8-5.41-.17-1.08-.32-2.01-.42-2.74-.2-1.59-1.28-3.2-3.26-3.2-.62,0-1.66,0-2.91-.02-3.35-.03-8.42-.07-10.5.02-1.41.06-1.99,1.19-1.95,2.29s.73,2.18,2.13,2.12c2.03-.08,3.32-.05,4.58-.03.57.01,1.12.02,1.72.02,1.01,0,1.84.56,2.23,1.51.45,1.08.18,2.33-.67,3.18-1.13,1.13-3.4,3.55-4.28,4.49,3.7,3.14,5.81,7.69,5.81,12.56,0,3.58-1.15,7.01-3.33,9.93-2.01,2.69-7.36,9.38-8.8,11.07-3.42,4-8.44,6.3-13.78,6.3h-2.85c-.85,0-1.47.55-1.47,1.32v6.29c0,1.95-1.51,2.97-3,2.97s-3-.99-3-2.87v-6.78c0-.92-.36-.92-.67-.92-2.38,0-4.32,1.94-4.32,4.32,0,.64.11,1.2.33,1.66l.42.88c4.84,10.13,7.48,15.7,7.83,16.55.25.61.37,1.32.37,2.19,0,3.64-2.96,6.6-6.59,6.6-.56,1.22-2.71,5.96-3.3,7.4-.41.99-1.17,1.62-2.03,1.68-.81.06-1.58-.38-2.09-1.23-.67-1.12-5.97-10.25-8.54-15.07-.12-.23-.29-.35-.41-.32-.12.03-.25.21-.25.54v4.39c0,1.45-.84,2.29-1.63,2.59-.83.32-1.7.13-2.27-.49-.73-.81-1.39-1.84-2.09-2.94-.26-.41-.53-.83-.8-1.24-1.12-1.67-1.36-4.8-1.36-5.87v-5.1c0-.34-.12-.6-.31-.67-.21-.08-.52.05-.79.36-.79.87-1.66,1.89-2.44,2.81-.72.84-1.37,1.6-1.79,2.06-.74.8-1.64,1.1-2.39.8-.76-.3-1.21-1.12-1.21-2.21v-13.51c-.54-.86-3.62-5.77-4.25-6.87-.51-.88-1.29-1.25-2.59-1.25h-8.29c-2.49,0-3.96,1.24-4.34,3.69-.04.26-.07.52-.1.78-.13,1.24-.28,2.63-1.71,3.88-1.56,1.37-7.74,6.86-9.12,8.14-1.32,1.22-1.91,2.59-1.91,4.45v9.23c0,1.75-.91,2.55-1.7,3.26-.49.43-.94.84-1.18,1.44-.33.86-.62,1.64-.88,2.35-.28.76-.52,1.42-.75,1.99-.7,1.72-2.57,2.88-4.64,2.88-2.33,0-4.34-1.55-5.01-3.85-.25-.89-1.91-8.18-3.84-16.63-1.39-6.13-2.9-12.74-4.01-17.53-.12-.53-.37-1.21-.84-1.45-.31-.15-.72-.12-1.21.11-.35.16-.6.27-.82.37-.46.2-.8.35-1.72.81-.86.43-1.73.5-2.43.18-.64-.29-1.1-.87-1.31-1.67-.3-1.11-1.39-4.56-2.12-6.84l-.53-1.68c-.43-1.38-.89-1.7-2.43-1.7h-10.37c-5,0-9.98-1.49-14.4-4.29-1.63-1.04-5.1-3.22-8.71-5.5-5.35-3.37-10.88-6.86-11.41-7.22-.29-.2-.66-.3-1.07-.3-1.12,0-2.03.91-2.03,2.03,0,.39.12.77.37,1.17.5.8,9.49,14.39,10.19,15.23.16.2.52.53,1.05.53.24,0,.47-.06.67-.18.36-.22,2.04-1.26,3.65-2.34,1.29-.86,2.75-1.59,5.15-.17,0,0,4.47,2.61,5.78,3.35,2.18,1.22,3.54,3.57,3.54,6.12,0,1.25-.34,2.5-.97,3.61-1.04,1.81-4.43,6.66-5.86,8.6-1.5,2.04-3.09,3.21-6.05,4.45-3.07,1.29-19.66,8.02-20.81,8.48-.79.32-1.64.36-2.3.36-2.9,0-5.51-1.65-6.8-4.3l-1.9-3.89c-4.48-9.2-14.97-30.74-15.7-32.2-.73-1.46-2.26-2.65-4.06-2.04-.87.3-1.61.98-1.97,1.81-.32.73-.32,1.5-.02,2.18,1.12,2.51,3.63,7.16,5.43,10.39,1.41,2.53,1.52,6.03,1.62,9.13.09,2.99.59,4.27,2.52,6.59,1.92,2.3,11.19,11.37,13.78,13.48,2.75,2.24,1.47,4.71.85,5.89l-.14.27c-.23.45-.18,1.01.11,1.36.3.36.82.46,1.47.28.48-.16,12.39-4.11,14.22-4.65l.15-.04c.43-.13.91-.27,1.44-.27,2.29,0,4.16,1.87,4.16,4.16,0,.97-.38,1.92-1.12,2.84-.51.62-17.72,25.03-25.07,35.45-2.33,3.31-3.92,5.56-4.13,5.86-1.35,1.91-2.01,3.64-2.07,5.47-.08,2.35.44,3.79,1.71,6.32.24.48.52.95.81,1.44,1.28,2.18,2.87,4.88,2.87,10.7,0,3.96-1.55,8-4.36,11.38-1.48,1.78-8.05,9.46-9.02,10.58v11.47c0,2.45-1.64,4.22-3.26,4.71-.95.29-1.49.45-2.24.69l-1.71.53c-.72.22-1.2.67-1.35,1.25-.18.69.11,1.49.79,2.19,1.42,1.46,2.14,4.09.66,6.12-.44.6-4.3,5.91-5.71,7.54-2.1,2.45-5.26,3.85-8.66,3.85h-7.47c-.25,3.82-3.45,6.86-7.33,6.86ZM545.72,344.38c-.33,0-.67-.04-1.01-.11-1.61-.35-3.34-1.68-3.34-4.36v-18.71c0-5.76,4.89-6.62,4.94-6.62,1.02-.3,1.63-.7,2.4-2.19.08-.17,1.7-3.52,3.84-6.8,1.13-1.74,3.26-2.33,5.16-1.44,1.54.72,3.03,2.59,2.15,5.5l-.33,1.1c-2.11,6.98-8.53,28.21-9.92,31.25-.67,1.46-2.21,2.36-3.9,2.36ZM555.91,304.74c-.92,0-1.88.39-2.53,1.39-2.15,3.29-3.76,6.66-3.78,6.7h0c-.82,1.6-1.59,2.28-3.06,2.71-.23.04-4.18.76-4.18,5.67v18.71c0,1.78.96,3.05,2.57,3.4,1.37.3,3.12-.19,3.8-1.7.9-1.98,4.22-12.46,9.87-31.13l.33-1.1c.7-2.31-.44-3.78-1.63-4.33-.42-.19-.9-.31-1.39-.31ZM848.26,335.98c-.82,0-1.65-.31-2.28-.94l-1.93-1.93c-1.25-1.26-1.25-3.3,0-4.55h0c1.26-1.25,3.3-1.25,4.55,0l1.93,1.93c.61.61.94,1.42.94,2.28s-.33,1.67-.94,2.28c-.63.63-1.45.94-2.28.94ZM844.75,329.26c-.87.87-.87,2.29,0,3.16l1.93,1.93c.87.87,2.29.87,3.16,0,.42-.42.66-.98.66-1.58s-.23-1.16-.66-1.58l-1.93-1.93c-.87-.87-2.29-.87-3.16,0h0ZM806.18,298.93c-.59,0-1.19-.16-1.72-.48l-5.7-3.51c-1.54-.77-2.06-1.73-2.21-2.39-.17-.75,0-1.51.51-2.16.35-.45.21-.87-.02-1.1-.25-.25-.72-.39-1.26.02l-5.46,3.77c-.8.45-1.67.67-2.54.67-1.59,0-3.02-.65-3.92-1.78-.83-1.06-8.53-10.02-10.51-12.27-2.13-2.43-5.64-3.82-9.62-3.82h-2.29c-1.81,0-3.29-1.48-3.29-3.29s1.48-3.29,3.29-3.29h14.99c8.65,0,16.64,3.95,21.92,10.84,2.27,2.96,10.17,12.97,10.25,13.07,1.22,1.54,1.2,3.49-.04,4.73-.65.65-1.52.99-2.39.99ZM796.44,288.08c.51,0,.97.22,1.28.52.65.65.69,1.63.1,2.39-.18.24-.47.73-.33,1.34.15.66.75,1.26,1.73,1.75l5.73,3.53c.93.56,2.13.41,2.91-.37,1.02-1.02.7-2.49-.04-3.42-.08-.1-7.99-10.11-10.26-13.08-5.09-6.64-12.8-10.45-21.14-10.45h-14.99c-1.27,0-2.31,1.04-2.31,2.31s1.04,2.31,2.31,2.31h2.29c4.26,0,8.04,1.51,10.36,4.16,1.98,2.25,9.7,11.24,10.54,12.31.7.88,1.87,1.41,3.14,1.41.71,0,1.41-.18,2.03-.52l5.39-3.73c.42-.32.86-.45,1.26-.45ZM739.42,298.27c-.82,0-1.65-.31-2.28-.94-1.25-1.26-1.25-3.3,0-4.55l3.82-3.82c1.21-1.22,3.33-1.22,4.55,0h0c.61.61.94,1.42.94,2.28s-.34,1.67-.94,2.28l-3.82,3.82c-.63.63-1.45.94-2.28.94ZM743.23,289c-.6,0-1.16.23-1.58.66l-3.82,3.82c-.87.87-.87,2.29,0,3.16.87.87,2.29.87,3.16,0l3.82-3.82c.42-.42.66-.98.66-1.58s-.23-1.16-.66-1.58h0c-.42-.42-.98-.66-1.58-.66ZM716.34,293.96c-.09,0-.18,0-.27-.01l-12.44-.05c-1.55.02-3.61,0-5.43-1-1.82-1.01-12.7-8.16-13.54-8.9-.98-.86-1.64-2.87-1.64-5v-4.37c0-2.72-1.06-5.15-2.9-6.68-1.17-.98-3.46-2.99-5.47-4.76-1.44-1.27-2.71-2.39-3.25-2.84-.81-.68-1.21-1.59-1.1-2.5.09-.71.44-1.35,1.01-1.79.56-.44,1.26-.63,1.98-.55.37.04.74.17,1.09.39.14.08,1.75,1.14,4.81,3.15,5.73,3.77,15.31,10.08,16.72,10.9,1.96,1.15,3.18,3.41,3.18,5.89v8.24c3.69.81,17.48,3.84,17.95,4.01l.18.06c.23.08.48.16.73.32.67.43,1.13,1.1,1.3,1.88s.02,1.58-.42,2.25c-.55.86-1.5,1.36-2.5,1.36ZM703.81,292.91h0l12.31.05c.79.06,1.5-.28,1.9-.91.29-.45.39-.99.28-1.51-.11-.52-.42-.97-.87-1.26-.15-.09-.32-.16-.51-.22l-.2-.07c-.49-.15-11.16-2.51-18.21-4.06l-.39-.08v-9.03c0-2.14-1.03-4.07-2.69-5.04-1.43-.84-10.66-6.91-16.77-10.93-2.58-1.7-4.62-3.04-4.77-3.13-.24-.14-.47-.23-.71-.25-.45-.05-.9.07-1.25.35-.36.28-.58.68-.64,1.13-.1.78.43,1.35.75,1.62.54.46,1.82,1.58,3.27,2.86,2.01,1.77,4.29,3.78,5.45,4.74,2.06,1.71,3.25,4.43,3.25,7.44v4.37c0,2.14.68,3.71,1.31,4.26.79.69,11.66,7.83,13.37,8.78,1.59.88,3.43.89,4.95.88h.17ZM238.94,289.02c-1.87,0-4.7-2.08-4.7-5.21v-10.61c0-4.26,2-8.29,6.11-12.33,1.67-1.64,2.6-4.11,2.5-6.62-.18-4.17-3.38-8.6-8.98-8.6-3.96,0-6.73-.77-8.24-2.28-2-2-21.09-21.09-21.09-21.09-1.26-1.28-2.51-1.81-4.3-1.81h-6.97c-3.1,0-6.11-.16-8.84-2.14-1.59-1.15-3.2-2.38-5.06-3.81-1.33-1.02-2.82-2.15-4.57-3.47-2.88-2.16-4.95-4.87-6-7.82-.16-.45-.3-1.09-.46-1.84-.35-1.6-.83-3.8-1.78-5.16-.4-.58-1.69-2.42-3.36-4.81-4.15-5.96-11.11-15.95-11.95-17.11-.52-.72-1.15-.7-1.52-.46-.42.27-.68.88-.29,1.59.57,1.02,4.82,8.32,8.24,14.19,2.02,3.46,3.69,6.34,4.02,6.91.68,1.19.21,2.31-.56,2.9-.91.69-2.1.62-2.9-.18-1.36-1.36-11.07-14.36-14.01-18.31-1.86-2.49-3.35-5.81-4.24-7.8-.84-1.86-2.84-6.35-3.32-7.55-.82-1.8-2.57-3.06-4.55-3.29-2.43-.27-4.48-1.76-5.35-3.89l-2.98-7.23.91-.37,2.98,7.23c.74,1.8,2.49,3.06,4.56,3.29,2.33.26,4.38,1.75,5.35,3.88.48,1.21,2.48,5.68,3.31,7.53.88,1.95,2.34,5.21,4.14,7.61,2.09,2.8,12.57,16.85,13.92,18.2.52.52,1.18.42,1.61.1.4-.3.71-.91.3-1.63-.32-.56-2-3.44-4.01-6.9-3.42-5.87-7.67-13.18-8.25-14.2-.67-1.21-.2-2.37.62-2.89.77-.49,1.99-.48,2.85.71.84,1.17,7.53,10.77,11.96,17.12,1.67,2.39,2.95,4.23,3.35,4.81,1.06,1.52,1.57,3.83,1.93,5.51.16.71.29,1.33.43,1.72.99,2.77,2.95,5.32,5.67,7.37,1.75,1.32,3.24,2.45,4.57,3.47,1.86,1.42,3.47,2.65,5.04,3.79,2.49,1.8,5.33,1.95,8.26,1.95h6.97c2.05,0,3.55.63,5,2.1,0,0,19.09,19.09,21.08,21.08,1.3,1.3,3.91,1.99,7.55,1.99,6.21,0,9.77,4.92,9.97,9.54.12,2.78-.93,5.54-2.79,7.37-3.91,3.84-5.81,7.65-5.81,11.63v10.61c0,2.41,2.25,4.23,3.71,4.23v.98ZM740.37,281.23c-.82,0-1.6-.31-2.2-.87l-3.94-3.69c-1.29-1.21-1.36-3.25-.15-4.55,1.22-1.29,3.26-1.36,4.55-.15l3.94,3.69c.63.59.99,1.38,1.02,2.24.03.86-.28,1.68-.87,2.3h0c-.59.63-1.38.99-2.25,1.02-.04,0-.07,0-.11,0ZM736.43,272.08c-.6,0-1.19.24-1.63.71-.84.9-.79,2.32.1,3.16l3.94,3.69c.44.41.98.62,1.6.6.6-.02,1.15-.27,1.56-.71h0c.41-.44.62-1,.6-1.6s-.27-1.15-.71-1.56l-3.94-3.69c-.43-.4-.98-.6-1.53-.6ZM720.6,279.26h-7.61c-2.69,0-5.07-1.81-5.92-4.5-.2-.62-.5-1.54-.81-2.48-.44-1.33-.9-2.7-1.09-3.35-.17-.61-.26-1.44-.26-1.96,0-2.89,1.58-5.54,4.12-6.92h.01s4.99-2.55,4.99-2.55c.82-1.07,7.8-10.2,8.51-11.04.67-.79,1.81-1.74,3.42-1.74,2.34,0,4.24,1.9,4.24,4.24,0,.2-.01.4-.04.59l-.13.93c-2.07,14.89-3.28,23.26-3.49,24.19-.59,2.66-3.09,4.59-5.94,4.59ZM709.5,260.93c-2.22,1.21-3.6,3.53-3.6,6.05,0,.37.07,1.14.23,1.68.18.63.64,2,1.07,3.31.32.95.62,1.87.82,2.49.72,2.28,2.72,3.81,4.98,3.81h7.61c2.39,0,4.49-1.61,4.98-3.82.14-.63.86-5.33,3.47-24.11l.13-.93c.02-.15.03-.3.03-.45,0-1.79-1.46-3.25-3.25-3.25-1.23,0-2.13.76-2.67,1.39-.72.86-8.47,10.99-8.55,11.09l-.17.14-5.08,2.6ZM694.47,264.33c-.74,0-1.43-.41-1.92-1.15-.98-1.47-1.58-2.14-1.81-2.38-2.63-.07-4.95-1.58-5.95-3.89-.65-1.5-3.96-8.05-5.94-11.96-1.06-2.1-1.58-3.12-1.65-3.27-.17-.38-.25-.76-.25-1.13,0-1.48,1.2-2.68,2.68-2.68,1,0,1.91.55,2.37,1.43l13.93,21.57c.53.8.64,1.67.29,2.38-.3.62-.92,1.03-1.61,1.08-.04,0-.09,0-.13,0ZM679.62,238.85c-.94,0-1.7.76-1.7,1.7,0,.24.05.48.17.74.06.14.78,1.57,1.62,3.23,2.11,4.17,5.3,10.48,5.97,12.01.87,2.01,2.93,3.3,5.25,3.3h.18l.14.11c.07.06.75.64,2.12,2.7.32.49.74.75,1.17.71.34-.02.64-.22.79-.53.2-.4.12-.89-.22-1.4h0s-13.95-21.62-13.95-21.62c-.32-.59-.89-.94-1.52-.94ZM634.77,253.08c-1.54,0-2.8-1.26-2.8-2.8v-8.74c0-1.54,1.26-2.8,2.8-2.8s2.8,1.26,2.8,2.8v8.74c0,1.54-1.25,2.8-2.8,2.8ZM634.77,239.73c-1,0-1.82.82-1.82,1.82v8.74c0,1,.82,1.82,1.82,1.82s1.82-.82,1.82-1.82v-8.74c0-1-.82-1.82-1.82-1.82ZM746.86,247.39h-6.97c-2,0-3.63-1.63-3.63-3.63s1.63-3.63,3.63-3.63h6.97c2,0,3.63,1.63,3.63,3.63s-1.63,3.63-3.63,3.63ZM739.89,241.1c-1.46,0-2.65,1.19-2.65,2.65s1.19,2.65,2.65,2.65h6.97c1.46,0,2.65-1.19,2.65-2.65s-1.19-2.65-2.65-2.65h-6.97ZM748.36,235.41h-3.93c-1.81,0-3.29-1.48-3.29-3.29s1.48-3.29,3.29-3.29h3.93c1.81,0,3.29,1.48,3.29,3.29s-1.48,3.29-3.29,3.29ZM744.43,229.81c-1.27,0-2.31,1.04-2.31,2.31s1.04,2.31,2.31,2.31h3.93c1.27,0,2.31-1.04,2.31-2.31s-1.04-2.31-2.31-2.31h-3.93ZM733.47,227.04c-.33,0-.67-.05-1-.15-.86-.27-1.57-.85-1.99-1.65s-.5-1.71-.24-2.57l2.9-9.36c.55-1.78,2.44-2.77,4.22-2.22h0c1.78.55,2.77,2.45,2.22,4.22l-2.9,9.36c-.45,1.45-1.79,2.37-3.22,2.38ZM736.37,211.91c-1.02,0-1.97.66-2.29,1.68l-2.9,9.36c-.19.61-.13,1.26.17,1.82.3.57.8.98,1.41,1.17,1.26.39,2.6-.32,2.99-1.57l2.9-9.36c.19-.61.13-1.26-.17-1.82-.3-.57-.8-.98-1.41-1.17h0c-.24-.07-.47-.11-.71-.11ZM260.6,213.81h-5.37c-1.85,0-3.35-1.5-3.35-3.35s1.5-3.35,3.35-3.35h5.37c1.85,0,3.35,1.5,3.35,3.35s-1.5,3.35-3.35,3.35ZM255.24,208.09c-1.31,0-2.37,1.06-2.37,2.37s1.06,2.37,2.37,2.37h5.37c1.31,0,2.37-1.06,2.37-2.37s-1.06-2.37-2.37-2.37h-5.37ZM236.9,206.98c-.57,0-1.21-.16-1.89-.6l-6.93-4.49c-.93-.6-1.29-1.63-.92-2.61.37-.99,1.34-1.59,2.31-1.45,1.6.24,15.27,3.68,17.22,4.24,1.37.39,1.85,1.5,1.72,2.42-.15,1.06-.99,1.8-2.04,1.81h-.03c-1.63,0-5.93-.41-6.89-.5l-.48.34c-.37.39-1.12.85-2.07.85ZM229.18,198.79c-.51,0-.93.4-1.1.84-.1.26-.25.93.54,1.44l6.93,4.49c1.59,1.02,2.62,0,2.73-.13l.08-.07.82-.59.18.02c.05,0,5.24.5,7,.52h0c.65,0,1.01-.5,1.07-.96.07-.49-.16-1.09-1.02-1.34-2.28-.66-15.62-3.99-17.09-4.21-.05,0-.1-.01-.15-.01ZM405.81,180.04h-.98v-5.51c0-3.57,1.27-5.6,4.54-7.23,3.04-1.52,16.4-7.62,21.18-9.74,4.63-2.06,7.76-2.47,11.32-2.47h15.34c2.52,0,4.57,2.05,4.57,4.57s-2.05,4.57-4.57,4.57c-.85,0-1.55.7-1.55,1.55,0,.58.29,1.11.73,1.32,1.9.89,19.36,8.85,21,9.57.85.38,2.99,1.06,4.47-.74.56-.68.95-1.11,1.29-1.48.37-.4.65-.72,1.02-1.21,1.59-2.17,3.94-3.41,6.43-3.41h9.41c2.7,0,4.9,1.74,5.8,3.55h6.51c3.76,0,6.82-3.06,6.82-6.82v-5.07c0-1.75-1.42-3.16-3.17-3.16h-12.15c-4.3,0-7.81-3.5-7.81-7.8v-2.95c0-.93-.76-1.69-1.69-1.69-.46,0-.89.18-1.19.49-.11.11-.45.45-.87.88-.79.8-2.27,2.28-2.42,2.47-.23.29-.35.65-.35,1.03,0,.35.06.61.19.78.18.25.88,1.27,1.3,1.89l.3.43c.29.42.33.93.33,1.27,0,.85-.41,1.65-1.08,2.15l-4.33,3.05c-.53.36-1.14.54-1.77.54-1.75,0-3.17-1.42-3.17-3.17v-5.37c0-4.03-1.78-7.8-4.87-10.33-3.01-2.46-10.93-9.14-11.46-9.66-.24-.24-.57-.37-.92-.37-.74,0-1.34.6-1.34,1.34,0,.34.07.59.19.7.37.36,1.81,1.54,3.48,2.91,2.61,2.14,5.86,4.8,7.06,6,1.53,1.53,1.89,3.59,2.23,5.58.12.71.25,1.45.43,2.15.39,1.49-.01,2.8-1.02,3.35-1.03.56-2.35.14-3.52-1.14-2.18-2.37-12.85-13.15-14.61-14.9-1.41-1.41-3.5-1.1-4.84-.23-1.88,1.22-3.95,1.52-6.7.97-2.74-.55-5.81.88-8,3.72-1.08,1.41-2.42,3.19-3.78,4.98-2.6,3.44-5.28,7.01-6.31,8.18-1.18,1.36-2.55,2.68-5.01,2.68h-11.67c-3.32,0-6.02-2.7-6.02-6.02,0-.37.05-.72.1-1.06.29-2.09.96-5.57,1.44-8.12.16-.84.3-1.58.41-2.15.51-2.79,3-4.82,5.9-4.82h10.93c2.57,0,4.66-2.09,4.66-4.66,0-1.51-.74-2.93-1.97-3.81-.89-.69-1.4-1.71-1.4-2.82s.55-2.21,1.51-2.91c.88-.64,13.31-9.04,22.49-14.82,1.23-.78,2.55-2.05,2.55-3.3v-4c0-2.1,1.58-3.06,3.05-3.06,1.54,0,3.1,1.02,3.1,2.96v3.04c0,1.2,1.05,2.18,2.34,2.18h19.34c1.83,0,3.32-1.49,3.32-3.32v-3.51c0-1.64.91-3.14,2.31-3.82,1.12-.54,13.17-6.41,14.22-6.95.51-.26.81-.71.81-1.19,0-.7-.57-1.27-1.27-1.27h-9.49c-2.38,0-4.31-1.93-4.31-4.31,0-1.21.44-2.29,1.2-2.98,1.27-1.14,4.74-4.17,4.74-4.17.94-.78.97-1.64.6-2.12-.36-.47-1.16-.63-2.13.06h0s-11.4,9.58-13.11,11.04c-.72.61-1.13,1.64-1.13,2.82v9.24c0,2.85-2.32,5.17-5.17,5.17h-6.42c-2.55,0-4.2-1.42-4.2-3.61v-3.41c0-.59-.21-1.08-.57-1.3-.35-.21-.81-.19-1.35.08-.33.16-.67.51-1.07.91-1.16,1.16-2.91,2.9-6.72,2.41-4.13-.54-6.02-4.61-6.02-8.17,0-2.74,1.24-5.27,3.33-6.77,1.17-.84,35.09-23.55,39.03-26.13,2.23-1.46,4.84-2.23,7.54-2.23,1.82,0,3.37.27,4.71.82,1.2.49,5.15,2.23,8.97,3.9,3.76,1.65,7.31,3.21,8.23,3.59,2.37.96,4.87,1.45,7.43,1.45h8.2c2.42,0,4.38,1.97,4.38,4.38s-1.96,4.38-4.38,4.38h-11.14c-1.02,0-1.85.83-1.85,1.85s.83,1.85,1.85,1.85c1.49,0,4.43,0,7.13-.01,2.31,0,4.44-.01,5.37-.01,4.7,0,6.76-1.06,9.37-2.4l.15-.07c2.86-1.47,12.11-6.13,15.84-7.96,3.52-1.72,7.71-3.32,14.49-3.32,5.75,0,22.04.08,25.09.1v-3.47c0-1.61.64-3.02,1.72-3.78.66-.46,3.8-2.8,5.49-4.06l.74-.55c1-.74,2.36-1.6,4.09-1.6,3.34,0,6.06,2.72,6.06,6.06v9.39c0,1.53-.65,3.03-1.83,4.21l-3.73,3.73-.7-.7,3.73-3.73c1-.99,1.54-2.24,1.54-3.51v-9.39c0-2.8-2.28-5.08-5.08-5.08-1.12,0-2.21.43-3.51,1.4l-.74.55c-1.69,1.26-4.84,3.61-5.51,4.07-.82.57-1.3,1.68-1.3,2.97v4.46h-.49c-.19,0-19.26-.1-25.58-.1s-10.64,1.55-14.05,3.22c-3.72,1.82-12.97,6.48-15.82,7.95l-.15.08c-2.73,1.4-4.88,2.51-9.81,2.51-.92,0-3.06,0-5.36.01-2.71,0-5.64.02-7.13.02s-2.83-1.27-2.83-2.83,1.27-2.83,2.83-2.83h11.14c1.87,0,3.4-1.52,3.4-3.4s-1.52-3.4-3.4-3.4h-8.2c-2.69,0-5.31-.51-7.8-1.52-.93-.38-4.49-1.94-8.26-3.6-3.81-1.67-7.75-3.41-8.94-3.89-1.23-.5-2.65-.75-4.34-.75-2.51,0-4.93.72-7,2.07-3.94,2.57-37.83,25.26-38.99,26.1-1.83,1.32-2.92,3.55-2.92,5.98,0,3.25,1.6,6.73,5.16,7.19,3.33.43,4.75-.99,5.9-2.13.46-.46.86-.85,1.33-1.09.84-.42,1.66-.44,2.3-.04.66.41,1.04,1.19,1.04,2.14v3.41c0,1.94,1.66,2.63,3.21,2.63h6.42c2.31,0,4.18-1.88,4.18-4.18v-9.24c0-1.47.54-2.78,1.47-3.57,1.71-1.46,13.14-11.06,13.14-11.06,1.52-1.1,2.88-.71,3.51.11.67.87.63,2.34-.74,3.47,0,0-3.45,3.01-4.72,4.15-.55.5-.87,1.32-.87,2.25,0,1.83,1.49,3.32,3.32,3.32h9.49c1.24,0,2.26,1.01,2.26,2.26,0,.86-.5,1.63-1.34,2.06-1.12.57-13.21,6.46-14.24,6.96-1.07.52-1.76,1.67-1.76,2.93v3.51c0,2.38-1.93,4.31-4.31,4.31h-19.34c-1.83,0-3.32-1.42-3.32-3.16v-3.04c0-1.36-1.1-1.98-2.12-1.98s-2.06.64-2.06,2.08v4c0,2.02-2.11,3.57-3.01,4.14-9.17,5.77-21.56,14.15-22.44,14.79-.7.51-1.11,1.28-1.11,2.11s.36,1.54,1,2.03c1.48,1.05,2.37,2.77,2.37,4.6,0,3.11-2.53,5.64-5.64,5.64h-10.93c-2.43,0-4.51,1.69-4.94,4.02-.11.57-.25,1.32-.41,2.15-.48,2.53-1.14,6.01-1.42,7.98-.06.4-.1.7-.1,1,0,2.78,2.26,5.04,5.04,5.04h11.67c2.05,0,3.15-1.06,4.27-2.34,1-1.15,3.68-4.7,6.27-8.13,1.36-1.8,2.7-3.58,3.78-4.99,2.42-3.15,5.85-4.72,8.97-4.09,2.48.5,4.32.24,5.97-.83,1.67-1.09,4.28-1.44,6.08.36s12.45,12.55,14.64,14.93c.83.91,1.73,1.27,2.33.94.58-.32.8-1.22.54-2.24-.19-.74-.32-1.5-.45-2.23-.33-1.93-.65-3.74-1.96-5.05-1.16-1.16-4.39-3.81-6.98-5.93-1.75-1.44-3.14-2.57-3.54-2.96-.32-.31-.49-.79-.49-1.41,0-1.28,1.04-2.32,2.32-2.32.62,0,1.19.23,1.61.65.46.45,8.23,7.02,11.39,9.6,3.33,2.72,5.23,6.76,5.23,11.09v5.37c0,1.21.98,2.19,2.19,2.19.44,0,.86-.13,1.22-.37l4.31-3.04c.43-.32.68-.81.68-1.35,0-.33-.05-.57-.15-.71l-.3-.44c-.42-.61-1.12-1.63-1.29-1.88-.24-.34-.37-.8-.37-1.35,0-.6.19-1.16.55-1.63.15-.19.96-1.02,2.5-2.56.42-.42.75-.75.85-.86.48-.5,1.17-.79,1.9-.79,1.47,0,2.67,1.2,2.67,2.68v2.95c0,3.76,3.06,6.82,6.82,6.82h12.15c2.29,0,4.15,1.86,4.15,4.15v5.07c0,4.3-3.5,7.8-7.8,7.8h-7.16l-.12-.3c-.65-1.57-2.63-3.25-5.03-3.25h-9.41c-2.18,0-4.23,1.1-5.64,3.01-.39.53-.7.87-1.08,1.29-.32.36-.71.78-1.25,1.44-1.32,1.6-3.42,1.99-5.62,1.01-1.63-.72-19.11-8.69-21.01-9.58-.79-.37-1.29-1.23-1.29-2.21,0-1.4,1.14-2.53,2.53-2.53,1.98,0,3.59-1.61,3.59-3.59s-1.61-3.58-3.59-3.58h-15.34c-3.51,0-6.43.39-10.92,2.39-4.77,2.12-18.11,8.2-21.14,9.72s-4,3.14-4,6.36v5.51ZM762.36,174.32c-3.26,0-5.91-2.65-5.91-5.92,0-2.61,1.8-4.91,4.47-5.74l2.54-.78c3.34-1.02,8.38-2.56,9.96-3.07,4.67-1.5,7.65-4.62,8.62-9.01.28-1.25,1.62-7.82,2.43-11.74l.6-2.92c.43-2.07,2.43-3.58,4.75-3.58.84,0,1.55.16,2.12.48.3.17,1.03.61,1.9,1.14,1.54.94,3.88,2.37,4.33,2.53.99.36,1.34,1.48,1.34,2.33,0,1.49-1.21,2.71-2.71,2.71h-8.12c.01,2.29.07,11.82.07,12.84,0,3.33-1.81,6.39-5.09,8.61-.97.65-17,10.58-18.64,11.5-.73.41-1.62.62-2.64.62ZM789.82,132.55c-1.83,0-3.45,1.2-3.78,2.8l-.6,2.92c-.81,3.93-2.15,10.51-2.43,11.76-1.05,4.75-4.26,8.12-9.28,9.73-1.59.51-6.63,2.06-9.97,3.08l-2.54.78c-2.26.7-3.78,2.62-3.78,4.8,0,2.72,2.21,4.93,4.93,4.93.85,0,1.57-.17,2.16-.49,1.52-.86,17.68-10.85,18.58-11.46,1.74-1.17,4.66-3.75,4.66-7.79,0-1.16-.07-13.33-.07-13.33v-.49s9.11,0,9.11,0c.95,0,1.73-.77,1.73-1.72,0-.55-.22-1.23-.69-1.4-.5-.18-2.26-1.24-4.5-2.62-.85-.52-1.57-.96-1.86-1.12-.42-.23-.97-.35-1.64-.35ZM469.27,160.03c-.7,0-1.35-.26-1.86-.73l-2.92-2.73c-.53-.5-.84-1.17-.86-1.91-.02-.73.24-1.43.73-1.96.5-.53,1.17-.84,1.9-.86.73-.04,1.43.23,1.96.73l2.92,2.73c.53.5.84,1.17.86,1.91.03.73-.23,1.43-.73,1.96s-1.17.84-1.91.86c-.03,0-.06,0-.1,0ZM468.08,158.57c.34.32.78.49,1.25.47.47-.02.9-.21,1.22-.55.32-.34.48-.79.47-1.25-.02-.47-.21-.9-.55-1.22l-2.92-2.73c-.34-.32-.79-.49-1.26-.47-.47.02-.9.21-1.22.55-.32.34-.48.79-.47,1.25.02.47.21.9.55,1.22l2.92,2.73ZM561.56,159.11c-2.56,0-4.95-1.44-6.24-3.75h0c-.97-1.75-1.26-3.26-.85-4.48.34-1.02,1.17-1.82,2.44-2.39.93-.41,1.46-.92,1.56-1.52.15-.9-.56-2.13-2.08-3.56-2.55-2.41-4.59-4.49-6.42-6.54-1.13-1.28-1.64-3.11-1.34-4.9.28-1.73,1.25-3.15,2.72-3.99,0,0,5.1-3.29,6.36-4.09,1.17-.73,2.61-1.12,4.17-1.12,2,0,3.91.7,5.38,1.97.23.2.52.43.82.67.48.38,1.02.82,1.45,1.21.86.81,1.31,1.75,1.31,2.73,0,1.93-1.57,3.5-3.5,3.5-.85,0-1.65-.29-2.25-.81l-.32-.28c-.23-.19-.46-.39-.77-.68-.36-.34-.9-.52-1.54-.52-1.39,0-2.52,1.13-2.52,2.52,0,.46.08.81.24,1.07.32.51,2.45,4.64,4.51,8.64,1.35,2.61,2.62,5.07,2.94,5.66.65,1.2.99,2.41.99,3.6,0,3.89-3.17,7.06-7.06,7.06ZM556.18,154.88c1.11,2,3.18,3.25,5.38,3.25,3.35,0,6.08-2.73,6.08-6.08,0-1.03-.29-2.08-.87-3.13-.33-.6-1.54-2.95-2.95-5.68-1.86-3.6-4.18-8.09-4.47-8.57-.26-.41-.38-.93-.38-1.59,0-1.93,1.57-3.5,3.5-3.5.88,0,1.67.28,2.21.79.29.27.52.47.73.65l.34.29c.42.37.99.57,1.6.57,1.39,0,2.52-1.13,2.52-2.52,0-.71-.34-1.39-1-2.02-.4-.37-.92-.79-1.39-1.16-.31-.25-.61-.49-.85-.69-1.29-1.12-2.97-1.73-4.74-1.73-1.38,0-2.64.33-3.65.97-1.27.79-6.38,4.09-6.38,4.09-1.23.71-2.03,1.88-2.26,3.31-.24,1.5.17,3.03,1.11,4.09,1.8,2.03,3.82,4.09,6.36,6.48,1.79,1.69,2.59,3.18,2.37,4.44-.16.95-.88,1.7-2.13,2.26-1.01.44-1.65,1.05-1.9,1.8-.32.95-.06,2.19.78,3.69h0ZM122.07,147.51c-.05-.1-1.15-2.57-1.15-5.3v-14.52c0-3.49-.49-6.06-2.98-8.88-2.51-2.84-14.04-12.26-17.11-14.57-3.34-2.5-3.97-4.79-4.29-6.74-.31-1.87-.58-3.48-4.41-4.73-4.34-1.42-17.21-4.99-21.43-6.16-4.08-1.13-5.62.46-6.51,1.97-.95,1.61-2.46,3.46-5.74,3.46-2.48,0-4.91.17-7.33,2.21-.92.78-1.95,1.65-3,2.55-2.16,1.84-4.39,3.75-6.21,5.21-2.53,2.04-4.61,2.69-7.79,3.24-1.76.31-7.56,1.08-11.79,1.64-1.69.22-3.15.42-4.06.54-2,.28-3.05-.81-3.34-1.82-.32-1.12.12-2.67,1.85-3.44l.74-.33c3.54-1.57,12.95-5.75,15.41-7.08.66-.36,1.44-.94,1.42-1.7-.02-.69-.71-1.43-1.84-1.97-1.55-.74-5.31-2.12-8.63-3.34-1.63-.6-3.19-1.17-4.41-1.64-2.27-.87-2.64-2.35-2.66-3.16-.03-1.54,1.1-3.12,2.75-3.84,2.55-1.11,10.53-4.55,10.53-4.55l.39.9s-7.98,3.44-10.53,4.54c-1.28.56-2.19,1.78-2.16,2.92.02.98.72,1.77,2.03,2.27,1.22.47,2.77,1.04,4.4,1.63,3.5,1.28,7.12,2.61,8.72,3.37,1.5.71,2.37,1.75,2.4,2.83.02.69-.3,1.71-1.93,2.59-2.49,1.35-11.59,5.39-15.48,7.12l-.74.33c-1.19.53-1.51,1.55-1.3,2.27.19.66.88,1.31,2.26,1.12.91-.13,2.38-.32,4.06-.54,4.22-.56,10.01-1.33,11.75-1.63,3.08-.53,4.96-1.13,7.34-3.04,1.81-1.46,4.03-3.36,6.19-5.2,1.06-.9,2.09-1.78,3.01-2.56,2.68-2.26,5.3-2.44,7.97-2.44,2.24,0,3.66-.86,4.9-2.97,1.54-2.62,4.01-3.42,7.54-2.44,4.31,1.2,17.2,4.78,21.56,6.2,4.39,1.43,4.74,3.5,5.07,5.5.31,1.84.86,3.83,3.91,6.12,2.96,2.22,14.6,11.7,17.26,14.7,2.69,3.04,3.23,5.9,3.23,9.53v14.52c0,2.52,1.05,4.87,1.06,4.9l-.9.41ZM532.08,144.57h-5.31c-2.78,0-3.87-.77-5.88-2.39-1.73-1.39-4.91-1.82-7.39.1-2.06,1.6-4.55,2.29-8.32,2.29-2.7,0-4.89-2.19-4.89-4.89,0-1.31.51-2.53,1.43-3.46l4.38-5.56c.79-.98,1.97-1.55,3.22-1.55s2.36.52,3.12,1.42l.28.33c.2.25.35.43.6.68.76.75,1.57,1.12,2.41,1.12.71,0,1.37-.22,1.88-.62.21-.17.46-.38.72-.59.39-.33.77-.65,1-.81,1.49-1.04,3.45-1.01,4.86.02.58.43,9.96,7.69,10.05,7.77.81.63,1.29,1.63,1.29,2.69,0,1.9-1.54,3.44-3.44,3.44ZM517.26,140.01c1.63,0,3.17.55,4.24,1.4,1.93,1.55,2.81,2.17,5.27,2.17h5.31c1.36,0,2.46-1.1,2.46-2.46,0-.75-.34-1.47-.91-1.91-1.46-1.13-9.52-7.37-10.03-7.75-1.08-.79-2.56-.82-3.72,0-.21.15-.56.45-.92.75-.26.22-.52.44-.74.61-.68.54-1.56.83-2.49.83-1.11,0-2.16-.47-3.1-1.41-.29-.28-.45-.48-.68-.76l-.27-.32c-.57-.68-1.43-1.07-2.36-1.07s-1.85.43-2.45,1.18l-4.42,5.6c-.78.78-1.18,1.76-1.18,2.81,0,2.16,1.75,3.91,3.91,3.91,3.54,0,5.84-.62,7.72-2.08,1.36-1.06,2.9-1.5,4.37-1.5ZM218.88,142.2c-1.36,0-2.8-1-2.8-2.86v-5.82c0-5.98,4.04-10,10.04-10v.98c-5.5,0-9.06,3.54-9.06,9.02v5.82c0,1.29.94,1.88,1.82,1.88.81,0,1.75-.51,1.75-1.94v-5.71c0-3.03,2.47-5.5,5.5-5.5s5.5,2.47,5.5,5.5v5.19c0,.81.66,1.47,1.47,1.47.31,0,.6-.09.85-.27.41-.29,9.41-6.2,9.79-6.45l.54.82c-3.24,2.12-9.44,6.2-9.75,6.43-.41.3-.91.46-1.42.46-1.35,0-2.46-1.1-2.46-2.46v-5.19c0-2.49-2.02-4.51-4.51-4.51s-4.51,2.02-4.51,4.51v5.71c0,2.01-1.41,2.93-2.73,2.93ZM790.48,129.71c-1.45,0-2.63-1.18-2.63-2.63v-12.47h.98v12.47c0,.91.74,1.65,1.65,1.65.66,0,1.41-.38,1.53-1.02.05-.25.47-2.16,1.05-4.81.97-4.41,2.31-10.45,2.46-11.32l.03-.14c.05-.31.11-.61.11-.9,0-2.28-1.86-4.14-4.14-4.14h-13.5c-1.74,0-3.16-1.42-3.16-3.16,0-1.03.43-1.94,1.16-2.45.98-.67,8.04-5.66,9.58-6.86,2.81-2.19,6.52-3.4,10.42-3.4,2.28,0,4.02-.03,5.55-.06,1.2-.02,2.26-.04,3.34-.04,2.37,0,3.72.52,4.9.98.99.38,1.84.71,3.16.71,3.11,0,5-.1,7.53-2.05l1.91-1.48c2.97-2.31,7.04-5.46,9.39-7.13,1.78-1.27,4.06-.41,5.23,1.15,1.02,1.36,1.39,3.62-.95,5.47-2.4,1.9-5.07,3.89-7.65,5.82-1.79,1.33-3.51,2.62-5.02,3.78-1.36,1.05-2.1,2.34-2.14,3.75-.04,1.37.59,2.67,1.25,3.25.27.24.54.44.8.63.98.73,1.91,1.42,2.13,3.6.24,2.42-2.34,5.2-4.29,7.08-.79.75-.71,1.56-.29,2.03.34.38.99.61,1.71,0,1.28-1.07,9.74-8.55,13.81-12.15l2.23-1.97c1.78-1.57,2.98-3.77,2.98-5.47v-6.14c0-2.98,2.51-6.17,6.25-6.17h8.83c4,0,6.47-.57,9.44-2.17,3.04-1.63,14.65-8.28,16.41-9.35,2.04-1.24,2.91-2.45,2.91-4.03v-8.29c0-2.36-1.89-3.88-4.81-3.88h-15.66c-1.82,0-2.31.73-2.89,1.58-.57.84-1.22,1.8-3.1,1.8s-2.7-.93-3.4-1.76c-.67-.79-1.26-1.47-2.82-1.47h-13.05c-3.08,0-4.57-.99-6-1.94-1.47-.98-2.87-1.9-6.05-1.9h-13.05c-3.39,0-5.23-1.38-7.01-2.71-1.73-1.29-3.36-2.51-6.42-2.51h-8.75c-1.13,0-2.03-.63-2.27-1.61-.22-.86.11-2.03,1.35-2.69.56-.3,1.16-.62,1.77-.94,1.09-.58,2.2-1.17,3.06-1.66.76-.43,1.13-1.08.97-1.68-.17-.66-.91-1.08-1.88-1.08h-20.96c-.59,0-1.08.18-1.4.53-.28.31-.44.73-.44,1.18,0,.81.5,1.67,1.61,1.67h7.52c2.78,0,4.24,2.52,4.24,5.01,0,1.24-.34,2.4-.97,3.26-.73,1.01-1.78,1.54-3.03,1.54h-15.12c-2.06,0-2.8.86-4.14,2.64-1.25,1.66-2.75,2.5-4.46,2.5s-3.18-1.53-3.18-3.33v-3.92c0-1.8-.54-3.12-1.68-4.17-1.36-1.24-3.38-1.41-5.18-1.41h-32.17c-2.73,0-5.38-.99-7.44-2.77l-2.21-2.01c-1.88-1.63-4.29-2.53-6.79-2.53h-27.7c-2.9,0-4.22.08-6.63.9-1.32.45-4.32,1.81-8.45,4.15-5.94,3.38-7.93,3.92-10.4,3.92h-9.8c-.71,0-1.28.3-1.45.77-.17.45.06.98.62,1.46,1.44,1.22,3.64,2.96,6.03,4.78.82.63,1.21,1.48,1.1,2.4-.12.95-.8,1.82-1.73,2.2-.97.4-2.06.23-2.98-.47l-1.51-1.16c-2.89-2.21-7.25-5.54-8.5-6.58-1.35-1.12-3.06-1.56-6.12-1.56-1.76,0-3.03,1.36-3.03,3.23v11.51c0,1.53-.65,3.02-1.83,4.21l-5.2,5.2-.7-.7,5.2-5.2c1-.99,1.54-2.24,1.54-3.51v-11.51c0-2.44,1.69-4.21,4.02-4.21,3.31,0,5.2.5,6.74,1.79,1.24,1.03,5.59,4.36,8.47,6.56l1.51,1.16c.65.49,1.36.62,2.01.35.61-.25,1.06-.81,1.13-1.42.07-.56-.17-1.08-.72-1.49-2.41-1.83-4.62-3.59-6.07-4.82-.88-.75-1.22-1.7-.91-2.55.31-.86,1.24-1.41,2.37-1.41h9.8c2.28,0,4.17-.53,9.91-3.79,4.19-2.38,7.26-3.77,8.62-4.23,2.55-.87,3.93-.95,6.95-.95h27.7c2.74,0,5.38.99,7.44,2.77l2.21,2.01c1.88,1.63,4.29,2.53,6.79,2.53h32.17c1.99,0,4.23.2,5.84,1.67,1.37,1.25,2,2.8,2,4.89v3.92c0,1.13.88,2.35,2.2,2.35,1.39,0,2.63-.71,3.68-2.11,1.41-1.88,2.4-3.04,4.92-3.04h15.12c2.08,0,3.02-1.98,3.02-3.82,0-1.94-1.02-4.03-3.25-4.03h-7.52c-1.7,0-2.59-1.34-2.59-2.66,0-.71.25-1.36.7-1.85.36-.39,1.02-.85,2.12-.85h20.96c1.42,0,2.53.71,2.83,1.81.28,1.06-.27,2.12-1.43,2.79-.87.5-1.98,1.09-3.09,1.68-.6.32-1.2.64-1.76.94-.82.44-.98,1.13-.86,1.59.14.54.63.87,1.32.87h8.75c3.39,0,5.23,1.38,7.01,2.71,1.73,1.29,3.36,2.51,6.42,2.51h13.05c3.48,0,5.06,1.05,6.59,2.06,1.38.91,2.68,1.78,5.46,1.78h13.05c2.01,0,2.84.96,3.56,1.81.65.76,1.21,1.41,2.66,1.41,1.36,0,1.75-.57,2.29-1.37.61-.9,1.36-2.01,3.7-2.01h15.66c4,0,5.79,2.44,5.79,4.87v8.29c0,2.49-1.81,3.91-3.38,4.87-1.76,1.07-13.41,7.74-16.46,9.38-3.13,1.69-5.73,2.29-9.91,2.29h-8.83c-3.15,0-5.27,2.68-5.27,5.19v6.14c0,2-1.3,4.43-3.31,6.2l-2.23,1.97c-4.07,3.6-12.54,11.09-13.83,12.17-1.12.93-2.4.66-3.07-.1-.73-.82-.85-2.25.35-3.4,1.04-1,4.22-4.05,4-6.28-.17-1.75-.79-2.21-1.73-2.91-.28-.21-.57-.42-.87-.69-.83-.73-1.64-2.26-1.58-4.02.04-1.19.51-2.94,2.53-4.5,1.52-1.17,3.25-2.46,5.04-3.79,2.58-1.92,5.24-3.91,7.63-5.8,1.79-1.42,1.57-3.05.78-4.11-.87-1.16-2.6-1.85-3.87-.94-2.33,1.65-6.39,4.81-9.36,7.11l-1.92,1.48c-2.78,2.14-4.9,2.25-8.13,2.25-1.5,0-2.48-.38-3.52-.78-1.16-.45-2.36-.91-4.55-.91-1.07,0-2.13.02-3.32.04-1.53.03-3.29.06-5.57.06-3.69,0-7.17,1.13-9.82,3.19-1.62,1.26-8.88,6.38-9.63,6.9-.46.32-.74.93-.74,1.64,0,1.2.98,2.18,2.18,2.18h13.5c2.82,0,5.12,2.3,5.12,5.12,0,.38-.06.73-.12,1.07l-.02.14c-.15.9-1.49,6.95-2.47,11.37-.54,2.44-1,4.54-1.05,4.78-.2,1.04-1.27,1.82-2.5,1.82ZM427.4,116.55h-9.16c-1.12,0-2.01-.49-2.44-1.35-.5-1-.28-2.28.59-3.43,1.2-1.6,3.67-4.68,4.51-5.71-1.36-1.32-6.64-6.45-8.07-7.88-.89-.89-1.15-2.15-.69-3.28.5-1.2,1.68-1.95,3.08-1.95h10.63c2.67,0,4.2,1.56,4.2,4.29v6.04c0,2.1.73,3.07,2.29,4.62,1.88,1.88,2.21,5.11.68,6.64-1.85,1.85-3.5,2-5.61,2ZM415.21,93.93c-1.19,0-1.9.69-2.17,1.34-.32.77-.14,1.59.47,2.2,1.64,1.64,8.31,8.12,8.38,8.18l.32.31-.28.35s-3.33,4.11-4.77,6.03c-.64.85-.82,1.75-.49,2.4.26.52.82.81,1.56.81h9.16c1.94,0,3.33-.12,4.92-1.71,1.15-1.15.82-3.75-.68-5.25-1.79-1.78-2.58-2.98-2.58-5.32v-6.04c0-2.2-1.08-3.31-3.21-3.31h-10.63ZM407.22,116.11c-1.31,0-2.55-.51-3.48-1.44-.93-.93-1.44-2.16-1.44-3.48s.51-2.55,1.44-3.48l3.38-3.38c.93-.93,2.16-1.44,3.47-1.44s2.55.51,3.48,1.44h0c.93.93,1.44,2.16,1.44,3.48s-.51,2.55-1.44,3.48l-3.38,3.38c-.93.93-2.16,1.44-3.48,1.44ZM410.6,103.88c-1.05,0-2.04.41-2.78,1.15l-3.38,3.38c-.74.74-1.15,1.73-1.15,2.78s.41,2.04,1.15,2.78c1.48,1.49,4.07,1.49,5.56,0l3.38-3.38c.74-.74,1.15-1.73,1.15-2.78s-.41-2.04-1.15-2.78c-.74-.74-1.73-1.15-2.78-1.15ZM2.88,111.9c-1.27,0-2.44-.85-2.78-2.14-.4-1.53.51-3.11,2.05-3.51l4.4-1.16c.74-.2,1.51-.09,2.18.3.67.39,1.14,1.01,1.33,1.75.2.74.09,1.51-.3,2.18-.39.67-1.01,1.14-1.75,1.33l-4.39,1.16c-.25.06-.49.1-.73.1ZM7.27,105.98c-.16,0-.32.02-.48.06l-4.4,1.16c-1.01.27-1.61,1.3-1.35,2.31.27,1.01,1.31,1.61,2.31,1.35l4.4-1.16c.49-.13.89-.44,1.15-.88.26-.44.33-.95.2-1.43-.13-.49-.44-.9-.88-1.15-.29-.17-.62-.26-.95-.26ZM312.41,89.2c-3.52,0-6.47-2.68-8.38-4.69-1.63-1.72-12.13-14.61-13.11-16.71-1.02-2.17-.38-4.56,1.52-5.67,1.89-1.11,2.53-2.88,1.62-4.5-1.23-2.18-3.95-1.04-4.75-.64-.81.41-1.68.39-2.38-.04-.77-.48-1.21-1.36-1.21-2.44v-5.28c0-1.57-.49-3.87-1.11-5.24-1.44-3.16-4.55-5.19-7.93-5.19h-28.04c-2.3,0-3.51-1.74-3.51-3.46s1.1-3.4,3.51-3.4h6.69c.25-3.17,2.91-5.67,6.15-5.67h5.6c.26-6.4,5.54-11.52,12-11.52h15.68c2.41,0,2.85-.71,2.85-2.12,0-.63,0-1.33-.01-2.03-.01-1.44-.03-2.93.01-3.99.05-1.36,1.06-2.1,2.06-2.04,1.02.02,2.04.77,2.04,2.18v3c0,.53.21.88.58.99.36.1.87-.05,1.15-.52.33-.54.49-.76.74-1.09.31-.4.77-1.02,1.91-2.77,2.6-3.97,8.45-6.34,15.65-6.34h22.44c1.32,0,2.02.8,2.11,1.55.09.74-.38,1.63-1.63,1.94-2.02.51-11.89,3.12-14.13,3.83-.6.19-.76.71-.66,1.14.13.49.65.99,1.72.78.19-.05,22.4-6.02,23.78-6.4.3-.08.64-.12,1.05-.12,1.86,0,3.54,1.11,4.19,2.76.49,1.26,1.8,4.41,2.85,6.95.72,1.73,1.33,3.21,1.53,3.71.52,1.32,1.53,2.1,2.7,2.1.31,0,.58-.04.81-.12.25-.09,3.25-1.28,5.65-2.24,2.1-.84,4.05-1.62,4.42-1.76,1.94-.73,4.12.25,4.85,2.18.66,1.75-.03,3.72-1.63,4.59-.16.09-.29.16-.54.31-3.43,2.1-5.92,5.23-6.99,8.82-.19.62-1.35,4.66-2.71,9.33-2.04,7.04-4.35,15.03-4.62,15.89-.48,1.53-2.03,2.61-3.78,2.61-1.26,0-2.42-.54-3.09-1.44-.57-.76-2.88-3.81-3.85-4.98-.5-.6-1.4-1-2.19-.48-.37.25-.63.64-.7,1.08-.06.39.02.76.25,1.05.66.86,2.27,2.99,2.78,3.67.54.71.82,1.55.82,2.44,0,1.84-1.25,3.43-3.11,3.94-2.42.66-33.42,8.57-33.73,8.65l-.24-.95c.31-.08,31.31-7.99,33.72-8.65,1.43-.39,2.39-1.59,2.39-2.99,0-.67-.21-1.31-.62-1.85-.52-.69-2.13-2.81-2.78-3.67-.39-.51-.54-1.16-.44-1.81.12-.7.53-1.33,1.12-1.73,1.09-.73,2.56-.45,3.49.67.99,1.18,3.31,4.26,3.88,5.02.49.65,1.35,1.04,2.3,1.04,1.32,0,2.49-.79,2.84-1.91.27-.85,2.68-9.18,4.62-15.87,1.35-4.67,2.52-8.71,2.71-9.33,1.14-3.82,3.77-7.15,7.41-9.37.27-.17.42-.25.59-.34,1.16-.63,1.66-2.08,1.17-3.37-.54-1.43-2.15-2.16-3.58-1.61-.37.14-2.31.92-4.4,1.75-3.17,1.27-5.44,2.17-5.7,2.26-.33.12-.72.17-1.13.17-1.56,0-2.95-1.04-3.61-2.72-.2-.5-.81-1.97-1.52-3.7-1.05-2.54-2.36-5.7-2.86-6.96-.5-1.28-1.81-2.13-3.27-2.13-.32,0-.57.03-.79.09-1.38.38-23.59,6.35-23.82,6.41-1.65.33-2.65-.55-2.89-1.5-.22-.87.16-1.95,1.31-2.32,2.26-.71,12.16-3.34,14.19-3.85.59-.15.94-.49.9-.87-.04-.33-.41-.68-1.14-.68h-22.44c-6.87,0-12.42,2.21-14.83,5.9-1.16,1.78-1.64,2.41-1.95,2.82-.24.31-.38.5-.68,1-.48.8-1.41,1.2-2.25.96-.63-.17-1.3-.77-1.3-1.93v-3c0-.81-.54-1.19-1.08-1.2,0,0-.01,0-.02,0-.46,0-1.01.29-1.04,1.1-.04,1.04-.03,2.51-.01,3.94,0,.71.01,1.41.01,2.04,0,2.73-1.94,3.1-3.83,3.1h-15.68c-6.08,0-11.03,4.95-11.03,11.03v.49h-6.57c-2.86,0-5.18,2.32-5.18,5.18v.49h-7.65c-1.74,0-2.52,1.21-2.52,2.42s.79,2.48,2.52,2.48h28.04c3.76,0,7.22,2.26,8.82,5.77.67,1.48,1.2,3.96,1.2,5.65v5.28c0,.72.27,1.31.75,1.6.41.25.92.25,1.42,0,2.06-1.03,4.73-1.3,6.05,1.04,1.18,2.09.38,4.44-1.98,5.83-1.45.85-1.93,2.71-1.12,4.41.93,1.97,11.36,14.79,12.94,16.45,1.79,1.88,4.52,4.38,7.67,4.38,4.19,0,7.59-3.4,7.59-7.59v-6.38h.98v6.38c0,4.73-3.85,8.57-8.57,8.57ZM378.04,81.1c-1.89,0-3.7-.77-4.98-2.1-.77-.81-3.83-4.49-4.12-4.88-.38-.51-.58-1.17-.58-1.9,0-1.86,1.51-3.37,3.37-3.37h18.58c1.63,0,2.96,1.33,2.96,2.96,0,1.03-.51,1.97-1.33,2.47-.5.3-5.19,2.94-8.3,4.69l-2.38,1.34c-.92.52-2.03.79-3.22.79ZM371.73,69.83c-1.32,0-2.39,1.07-2.39,2.39,0,.52.13.97.39,1.31.29.39,3.28,4,4.04,4.79,1.09,1.14,2.65,1.8,4.27,1.8,1.02,0,1.97-.23,2.74-.66l2.38-1.34c2.91-1.64,7.79-4.38,8.27-4.68.53-.32.85-.94.85-1.63,0-1.09-.89-1.98-1.98-1.98h-18.58ZM571.56,56.44h-7.62c-2.14,0-3.88-1.74-3.88-3.88s1.74-3.88,3.88-3.88h2.88l.09-.75c.01-1.33.93-4.14,4.32-5.43,3.34-1.27,24.08-8.31,26.46-9.11l.21-.07c.48-.17,1.02-.35,1.63-.35,2.35,0,4.26,1.91,4.26,4.26,0,2-1.37,3.75-3.25,4.14l-2.18.46c-5.01,1.04-18.32,3.82-19.56,4.15-1.59.42-2.71,1.84-2.71,3.46v2.47c0,2.51-2.04,4.54-4.54,4.54ZM563.94,49.66c-1.6,0-2.9,1.3-2.9,2.9s1.3,2.9,2.9,2.9h7.62c1.96,0,3.56-1.6,3.56-3.56v-2.47c0-2.06,1.41-3.88,3.44-4.41,1.26-.33,14.12-3.01,19.61-4.16l2.18-.45c1.43-.3,2.47-1.64,2.47-3.18,0-1.81-1.47-3.28-3.28-3.28-.44,0-.87.15-1.31.3l-.22.07c-2.39.8-23.09,7.83-26.43,9.1-3.02,1.15-3.68,3.67-3.68,4.54v.06s-.21,1.64-.21,1.64h-3.75ZM193.22,52.72h-9.33c-1.66,0-3.01-1.35-3.01-3.01s1.35-3.01,3.01-3.01h9.33c1.66,0,3.01,1.35,3.01,3.01s-1.35,3.01-3.01,3.01ZM183.89,47.68c-1.12,0-2.03.91-2.03,2.03s.91,2.03,2.03,2.03h9.33c1.12,0,2.03-.91,2.03-2.03s-.91-2.03-2.03-2.03h-9.33ZM196.77,45.29c-.43,0-.81-.12-1.16-.25-.18-.06-19.75-7.15-20.85-7.68-1.41-.67-2.32-2.11-2.32-3.67,0-2.25,1.83-4.07,4.07-4.07.64,0,1.25.14,1.82.43h0s18.96,9.42,19.58,9.72c1.07.53,1.73,1.54,1.73,2.64,0,1.59-1.29,2.88-2.88,2.88ZM176.51,30.6c-1.7,0-3.09,1.39-3.09,3.09,0,1.19.69,2.28,1.76,2.79,1,.48,20.57,7.57,20.75,7.64.28.1.55.19.83.19,1.04,0,1.9-.85,1.9-1.9,0-.73-.44-1.39-1.18-1.76-.62-.3-19.58-9.72-19.58-9.72h0c-.43-.22-.9-.33-1.38-.33ZM162.21,35.98h-5.06c-1.6,0-2.9-1.3-2.9-2.9s1.3-2.9,2.9-2.9h5.06c1.6,0,2.9,1.3,2.9,2.9s-1.3,2.9-2.9,2.9ZM157.15,31.17c-1.06,0-1.92.86-1.92,1.92s.86,1.92,1.92,1.92h5.06c1.06,0,1.92-.86,1.92-1.92s-.86-1.92-1.92-1.92h-5.06Z"/>
</svg>