<svg xmlns="http://www.w3.org/2000/svg" xmlns:xlink="http://www.w3.org/1999/xlink" xml:space="preserve" version="1.1" style="shape-rendering:geometricPrecision;text-rendering:geometricPrecision;image-rendering:optimizeQuality;" viewBox="0 0 847 847" x="0px" y="0px" fill-rule="evenodd" clip-rule="evenodd" width="847px" height="847px"><defs><style type="text/css">
   
    .fil0 {fill:black}
   
  </style></defs><g><path class="fil0" d="M101 20l645 0c44,0 81,36 81,81l0 645c0,44 -37,81 -81,81l-645 0c-45,0 -81,-37 -81,-81l0 -645c0,-45 36,-81 81,-81zm-47 68l336 335 -336 336 34 33 335 -335 336 335 33 -33 -335 -336 335 -335 -33 -34 -336 336 -335 -336 -34 34z"/></g></svg>