<?xml version="1.0" encoding="utf-8"?><!-- Generator: Adobe Illustrator 24.0.0, SVG Export Plug-In . SVG Version: 6.00 Build 0)  --><svg xmlns="http://www.w3.org/2000/svg" xmlns:xlink="http://www.w3.org/1999/xlink" version="1.1" id="Layer_1680a916eb98ed" x="0px" y="0px" viewBox="0 0 99.28 12" style="enable-background:new 0 0 99.28 12;fill:url(#CerosGradient_idcfbe83366);" xml:space="preserve" aria-hidden="true" width="99px" height="12px"><defs><linearGradient class="cerosgradient" data-cerosgradient="true" id="CerosGradient_idcfbe83366" gradientUnits="userSpaceOnUse" x1="50%" y1="100%" x2="50%" y2="0%"><stop offset="0%" stop-color="#00293B"/><stop offset="100%" stop-color="#00293B"/></linearGradient><linearGradient/></defs>
<style type="text/css">
	.st0-680a916eb98ed{fill:#001D34;}
</style>
<g>
	<g>
		<g>
			<g>
				<path class="st0-680a916eb98ed" d="M8.89,11.66h1.88V0.34H8.89v4.33h-7V0.34H0v11.32h1.88V6.34h7V11.66z M21.63,6.97h-4.38l2.19-4.44h0.02      L21.63,6.97z M26.02,11.66L20.38,0.38l-0.02-0.04h-1.71l-5.61,11.22l-0.05,0.1h1.96l1.57-3.18h5.85l1.57,3.15l0.02,0.04H26.02z       M39.42,11.66l4.52-11.32h-1.92L38.5,9.19l-2.92-8.8l-0.02-0.05H34.2l-2.93,8.84l-3.57-8.84h-2.02l4.54,11.27l0.01,0.05h1.84      l2.75-8.18l2.78,8.18H39.42z M56.5,5.99c0,2.4-2.11,4.34-4.71,4.34c-2.56,0-4.65-1.95-4.65-4.34c0-2.38,2.09-4.32,4.65-4.32      C54.38,1.67,56.5,3.61,56.5,5.99 M58.46,5.99c0-3.3-2.99-5.99-6.68-5.99c-3.65,0-6.61,2.69-6.61,5.99      c0,3.37,2.91,6.01,6.61,6.01C55.53,12,58.46,9.36,58.46,5.99 M68.49,5.58h-5.18V2.03h4.79c0.94,0,1.59,0.11,2.15,0.68      c0.29,0.3,0.45,0.7,0.45,1.08C70.7,4.8,69.73,5.58,68.49,5.58 M72.78,11.66l-2.92-4.7c1.66-0.42,2.73-1.65,2.73-3.17      c0-0.82-0.32-1.59-0.93-2.24c-0.84-0.84-1.94-1.21-3.54-1.21h-6.68v11.32h1.88V7.25h4.61l2.7,4.41H72.78z M81.16,2.03h4.7V0.34      H74.58v1.69h4.72v9.63h1.86V2.03z M99.28,11.66V0.34H97.4v4.33h-7V0.34h-1.88v11.32h1.88V6.34h7v5.32H99.28z" style="fill:url(#CerosGradient_idcfbe83366);"/>
			</g>
		</g>
	</g>
</g>
</svg>