<svg xmlns="http://www.w3.org/2000/svg" viewBox="0 0 33 33" aria-hidden="true" width="33px" height="33px"><defs><linearGradient class="cerosgradient" data-cerosgradient="true" id="CerosGradient_idc0c61d798" gradientUnits="userSpaceOnUse" x1="50%" y1="100%" x2="50%" y2="0%"><stop offset="0%" stop-color="#d1d1d1"/><stop offset="100%" stop-color="#d1d1d1"/></linearGradient><linearGradient/></defs><path d="M7.66,6.6H2l0-2.67A3.06,3.06,0,0,1,5,.81h.16V1.7A2.17,2.17,0,0,0,2.84,3.77v.15l0,1.78H7.66Z" style="fill:#001d34"/><path d="M10.54,32.14a3.09,3.09,0,0,1-3.18-3V29l0-25.08A2.18,2.18,0,0,0,5.26,1.71H5.1V.81H24a3.07,3.07,0,0,1,3.18,2.95v.17l0,20.73h-.9l0-20.73A2.16,2.16,0,0,0,24.1,1.71H7.38a3.1,3.1,0,0,1,.91,2.23L8.26,29a2.18,2.18,0,0,0,2.13,2.22h.15v.9Z" style="fill:#001d34"/><path d="M10.54,32.14h-.11v-.9a2.19,2.19,0,0,0,2.28-2.07V29l0-2.68H31.09l0,2.66a3.07,3.07,0,0,1-3,3.13H10.54Zm3-4.89,0,1.77a3,3,0,0,1-.91,2.22H28a2.19,2.19,0,0,0,2.28-2.07V29l0-1.78H13.57ZM11,5.78h12.6v.9H11Zm0,3.59h12.6v.9H11ZM11,13h12.6v.9H11Zm8.91,11-2.62-1.38L14.64,24l.5-2.91L13,19l2.92-.42L17.25,16l1.31,2.66,2.93.42L19.37,21.1l.5,2.91ZM15,19.66l1.16,1.13-.27,1.58,1.42-.75,1.42.75-.27-1.59,1.16-1.12L18,19.44,17.26,18l-.72,1.45Z" style="fill:#001d34"/></svg>