<svg xmlns="http://www.w3.org/2000/svg" viewBox="0 0 394.3 47.67" aria-hidden="true" style="fill:url(#CerosGradient_id69ba61c4b);" width="394px" height="47px"><defs><linearGradient class="cerosgradient" data-cerosgradient="true" id="CerosGradient_id69ba61c4b" gradientUnits="userSpaceOnUse" x1="50%" y1="100%" x2="50%" y2="0%"><stop offset="0%" stop-color="#FFFFFF"/><stop offset="100%" stop-color="#FFFFFF"/></linearGradient><linearGradient/><style>.cls-1-6887bc7534681{fill:#363d4d;}</style></defs><title>haworth-logoAsset 1</title><g id="Layer_26887bc7534681" data-name="Layer 2"><g id="Layer_1-26887bc7534681" data-name="Layer 1"><g id="Layer_1-2-26887bc7534681" data-name="Layer 1-2"><path class="cls-1-6887bc7534681" d="M35.29,46.31h7.48V1.36H35.29V18.57H7.48V1.36H0v45H7.48V25.18H35.29ZM85.93,27.69H68.54l8.7-17.63h.07Zm17.42,18.62L81,1.51l-.08-.15H74.08L51.8,45.92l-.2.39h7.79l6.22-12.65H88.86l6.23,12.5.07.15Zm53.25,0,18-44.95H167L153,36.49,141.33,1.54l-.06-.18h-5.4L124.23,36.49,110.07,1.36h-8l18,44.77.06.18h7.29l10.93-32.49,11,32.49Zm67.81-22.52c0,9.52-8.39,17.26-18.71,17.26s-18.47-7.74-18.47-17.26S195.51,6.62,205.7,6.62s18.71,7.7,18.71,17.17m7.81,0C232.22,10.67,220.32,0,205.7,0s-26.27,10.67-26.27,23.79c0,13.39,11.54,23.88,26.27,23.88s26.52-10.49,26.52-23.88M272,22.17H251.47V8.06h19c3.72,0,6.31.44,8.53,2.71a6.39,6.39,0,0,1,1.78,4.3c0,4-3.85,7.1-8.78,7.1m17,24.14L277.4,27.65C284,26,288.22,21.07,288.22,15.07a12.93,12.93,0,0,0-3.71-8.91c-3.35-3.32-7.69-4.8-14.08-4.8H244v45h7.47V28.78H269.8l10.74,17.53ZM322.3,8.06H341V1.36H296.2v6.7H315V46.31h7.4Zm72,38.25V1.36h-7.4V18.57H359.08V1.36H351.6v45h7.48V25.18H386.9V46.31Z" style="fill:url(#CerosGradient_id69ba61c4b);"/></g></g></g></svg>