<!-- Generator: Adobe Illustrator 25.0.1, SVG Export Plug-In  -->
<svg version="1.1" xmlns="http://www.w3.org/2000/svg" xmlns:xlink="http://www.w3.org/1999/xlink" x="0px" y="0px" width="33.6px"
	 height="33.6px" viewBox="0 0 33.6 33.6" style="overflow:visible;enable-background:new 0 0 33.6 33.6;" xml:space="preserve">
<style type="text/css">
	.st0{fill:#373E4E;}
</style>
<defs>
</defs>
<path class="st0" d="M25.4,0H8.2C3.7,0,0,3.7,0,8.2v17.1c0,4.5,3.7,8.2,8.2,8.2h7v-1.5h-7c-1.8,0-3.5-0.8-4.7-2
	c-1.2-1.2-2-2.9-2-4.7V8.2c0-1.8,0.8-3.5,2-4.7c1.2-1.2,2.9-2,4.7-2h17.1c1.8,0,3.5,0.8,4.7,2c1.2,1.2,2,2.9,2,4.7v17.1
	c0,1.8-0.8,3.5-2,4.7c-1.2,1.2-2.9,2-4.7,2l-5.4,0V19.1h4.5v-1.5h-4.5l0-5.2c0-0.9,0.3-1.7,0.8-2.2c0.5-0.6,1.2-0.9,2.1-0.9h3.1V7.7
	h-3.1c-1.3,0-2.4,0.5-3.2,1.4c-0.8,0.8-1.3,2-1.3,3.3v5.2h-4.7v1.5h4.7v14.5l6.9,0h0c4.5,0,8.2-3.7,8.2-8.2V8.2
	C33.6,3.7,29.9,0,25.4,0z"/>
</svg>
