<?xml version="1.0" encoding="UTF-8"?><svg xmlns="http://www.w3.org/2000/svg" id="Text67f6c2561f464" viewBox="0 0 91.33 68.21" aria-hidden="true" width="91px" height="68px">
  <defs><linearGradient class="cerosgradient" data-cerosgradient="true" id="CerosGradient_idc139cb4f2" gradientUnits="userSpaceOnUse" x1="50%" y1="100%" x2="50%" y2="0%"><stop offset="0%" stop-color="#d1d1d1"/><stop offset="100%" stop-color="#d1d1d1"/></linearGradient><linearGradient/>
    <style>
      .cls-1-67f6c2561f464{
        fill: none;
        stroke: #001d34;
        stroke-width: .5px;
      }

      .cls-2-67f6c2561f464{
        fill: #001d34;
      }
    </style>
  </defs>
  <g>
    <path class="cls-2-67f6c2561f464" d="M4.41,5.13l2.83,6.93h-1.46l-.69-1.72h-2.95l-.67,1.72H.08l2.8-6.93h1.53ZM2.55,9.29h2.11l-1.04-2.6h-.04l-1.02,2.6Z"/>
    <path class="cls-2-67f6c2561f464" d="M8.7,10.41c.08.58.51.91,1.2.91.54,0,.88-.2.88-.55,0-.33-.22-.47-.7-.55l-.77-.13c-1.03-.17-1.62-.55-1.62-1.45s.79-1.56,2.02-1.56c1.34,0,2.13.61,2.22,1.68l-1.07.04c-.09-.57-.48-.86-1.18-.86-.47,0-.78.21-.78.55,0,.29.19.44.54.5l.92.15c1.02.17,1.63.59,1.63,1.51,0,.99-.86,1.54-2.11,1.54s-2.23-.55-2.32-1.74l1.13-.04Z"/>
    <path class="cls-2-67f6c2561f464" d="M12.85,5.13h1.35v1.29h-1.35v-1.29ZM14.19,7.21v4.85h-1.32v-4.85h1.32Z"/>
    <path class="cls-2-67f6c2561f464" d="M19.56,10.89c0,.25.13.37.34.37.13,0,.26-.03.41-.1v.7c-.21.17-.47.31-.91.31-.55,0-.97-.35-1.07-.94-.27.57-.89.95-1.69.95-.92,0-1.54-.5-1.54-1.33,0-.92.73-1.31,1.85-1.52l1.33-.25v-.14c0-.54-.29-.87-.85-.87s-.85.33-.96.8l-1.2-.11c.17-.99.92-1.68,2.21-1.68s2.08.59,2.08,1.87v1.94ZM18.27,9.8l-.91.19c-.61.12-.98.27-.98.73,0,.34.24.59.67.59.69,0,1.22-.52,1.22-1.34v-.17Z"/>
  </g>
  <g>
    <path class="cls-2-67f6c2561f464" d="M.68,26.07v-6.93h.96v2.97h3.98v-2.97h.96v6.93h-.96v-3.18H1.64v3.18h-.96Z"/>
    <path class="cls-2-67f6c2561f464" d="M11.76,25.12c0,.25.14.37.37.37.11,0,.29-.03.42-.11v.49c-.17.17-.36.29-.74.29-.5,0-.87-.38-.92-.98-.25.56-.92,1.01-1.74,1.01-.9,0-1.51-.5-1.51-1.33,0-.91.77-1.28,1.94-1.51l1.3-.26v-.2c0-.66-.38-1.07-1.06-1.07s-1.07.41-1.22.97l-.8-.11c.18-.9.9-1.56,2.04-1.56,1.21,0,1.93.62,1.93,1.84v2.16ZM10.88,23.68l-1.08.22c-.77.17-1.24.34-1.24.9,0,.41.28.74.83.74.85,0,1.5-.64,1.5-1.62v-.24Z"/>
    <path class="cls-2-67f6c2561f464" d="M17.61,24.9h.04l1.11-3.64h.85l-1.53,4.81h-.88l-1.02-3.59h-.04l-1.01,3.59h-.88l-1.54-4.81h.91l1.13,3.64h.04l1.01-3.64h.77l1.03,3.64Z"/>
    <path class="cls-2-67f6c2561f464" d="M22.49,26.2c-1.41,0-2.44-1.03-2.44-2.53s1.03-2.54,2.44-2.54,2.46,1.05,2.46,2.54-1.04,2.53-2.46,2.53ZM22.49,25.49c.98,0,1.53-.76,1.53-1.83s-.55-1.83-1.53-1.83-1.51.75-1.51,1.83.54,1.83,1.51,1.83Z"/>
    <path class="cls-2-67f6c2561f464" d="M28.82,22.17c-.26-.14-.45-.2-.75-.2-.69,0-1.21.63-1.21,1.55v2.54h-.91v-4.81h.91v.98c.18-.55.67-1.11,1.36-1.11.3,0,.52.08.68.22l-.09.83Z"/>
    <path class="cls-2-67f6c2561f464" d="M29.94,21.92h-.73v-.5l.31-.06c.45-.09.55-.31.66-.77l.14-.67h.52v1.33h1.35v.66h-1.35v2.92c0,.43.18.63.59.63.31,0,.63-.13.9-.29v.62c-.35.26-.7.41-1.23.41-.68,0-1.17-.32-1.17-1.25v-3.03Z"/>
    <path class="cls-2-67f6c2561f464" d="M34.11,26.07h-.91v-6.93h.91v2.98c.23-.58.88-.99,1.6-.99,1.25,0,1.76.84,1.76,1.96v2.98h-.91v-2.9c0-.8-.38-1.31-1.14-1.31s-1.3.57-1.3,1.45v2.76Z"/>
    <path class="cls-2-67f6c2561f464" d="M43.9,26.2c-2.02,0-3.44-1.46-3.44-3.6s1.42-3.6,3.44-3.6,3.44,1.46,3.44,3.6-1.43,3.6-3.44,3.6ZM43.9,19.82c-1.5,0-2.46,1.09-2.46,2.78s.97,2.78,2.46,2.78,2.45-1.09,2.45-2.78-.96-2.78-2.45-2.78Z"/>
    <path class="cls-2-67f6c2561f464" d="M52.79,24.9h.04l1.11-3.64h.85l-1.53,4.81h-.88l-1.02-3.59h-.04l-1.01,3.59h-.88l-1.54-4.81h.91l1.13,3.64h.04l1.01-3.64h.77l1.03,3.64Z"/>
    <path class="cls-2-67f6c2561f464" d="M56.46,26.07h-.91v-4.81h.91v.86c.23-.58.88-.99,1.6-.99,1.25,0,1.76.84,1.76,1.96v2.98h-.91v-2.9c0-.8-.38-1.31-1.14-1.31s-1.3.57-1.3,1.45v2.76Z"/>
    <path class="cls-2-67f6c2561f464" d="M65.47,24.44c-.23,1.1-1.05,1.76-2.25,1.76-1.43,0-2.47-.97-2.47-2.46s1.04-2.61,2.43-2.61c1.53,0,2.31,1.09,2.31,2.4v.35h-3.83c.04.96.71,1.61,1.57,1.61.8,0,1.29-.38,1.47-1.13l.76.09ZM64.56,23.32c-.02-.78-.47-1.5-1.38-1.5s-1.4.69-1.5,1.5h2.87Z"/>
    <path class="cls-2-67f6c2561f464" d="M70.14,25.07c-.22.59-.83,1.13-1.73,1.13-1.43,0-2.2-1.11-2.2-2.53s.77-2.54,2.2-2.54c.9,0,1.51.55,1.73,1.14v-3.14h.91v6.93h-.91v-1ZM70.15,23.53c0-1.05-.66-1.66-1.53-1.66-.95,0-1.47.7-1.47,1.8s.53,1.8,1.47,1.8c.87,0,1.53-.62,1.53-1.67v-.27Z"/>
  </g>
  <g>
    <path class="cls-2-67f6c2561f464" d="M3.72,40.07l-2.1-5.96h-.04v5.96h-.89v-6.93h1.53l1.95,5.64h.03l1.85-5.64h1.51v6.93h-.96v-5.96h-.04l-2.02,5.96h-.8Z"/>
    <path class="cls-2-67f6c2561f464" d="M12.73,39.12c0,.25.14.37.37.37.11,0,.29-.03.42-.11v.49c-.17.17-.36.29-.74.29-.5,0-.87-.38-.92-.98-.25.56-.92,1.01-1.74,1.01-.9,0-1.51-.5-1.51-1.33,0-.91.77-1.28,1.94-1.51l1.3-.26v-.2c0-.66-.38-1.07-1.06-1.07s-1.07.41-1.22.97l-.8-.11c.18-.9.9-1.56,2.04-1.56,1.21,0,1.93.62,1.93,1.84v2.16ZM11.85,37.68l-1.08.22c-.77.17-1.24.34-1.24.9,0,.41.28.74.83.74.85,0,1.5-.64,1.5-1.62v-.24Z"/>
    <path class="cls-2-67f6c2561f464" d="M15.19,40.07h-.91v-4.81h.91v.86c.23-.58.88-.99,1.6-.99,1.25,0,1.76.84,1.76,1.96v2.98h-.91v-2.9c0-.8-.38-1.31-1.14-1.31s-1.3.57-1.3,1.45v2.76Z"/>
    <path class="cls-2-67f6c2561f464" d="M23.02,35.26h.91v4.81h-.91v-.85c-.23.57-.85.98-1.57.98-1.25,0-1.72-.83-1.72-1.95v-2.99h.91v2.9c0,.8.35,1.32,1.11,1.32.71,0,1.26-.57,1.26-1.46v-2.76Z"/>
    <path class="cls-2-67f6c2561f464" d="M24.68,35.92v-.66h.74v-.56c0-1.02.58-1.69,1.59-1.69.83,0,1.29.37,1.51,1.1l-.63.22c-.12-.37-.4-.66-.84-.66-.51,0-.74.36-.74.94v.66h1.35v.66h-1.35v4.15h-.9v-4.15h-.74Z"/>
    <path class="cls-2-67f6c2561f464" d="M32.22,39.12c0,.25.14.37.37.37.11,0,.29-.03.42-.11v.49c-.17.17-.36.29-.74.29-.5,0-.87-.38-.92-.98-.25.56-.92,1.01-1.74,1.01-.9,0-1.51-.5-1.51-1.33,0-.91.77-1.28,1.94-1.51l1.3-.26v-.2c0-.66-.38-1.07-1.06-1.07s-1.07.41-1.22.97l-.8-.11c.18-.9.9-1.56,2.04-1.56,1.21,0,1.93.62,1.93,1.84v2.16ZM31.34,37.68l-1.08.22c-.77.17-1.24.34-1.24.9,0,.41.28.74.83.74.85,0,1.5-.64,1.5-1.62v-.24Z"/>
    <path class="cls-2-67f6c2561f464" d="M35.88,35.13c1.41,0,2.17.95,2.27,2.1l-.8.06c-.08-.85-.58-1.42-1.47-1.42s-1.52.69-1.52,1.8.62,1.8,1.52,1.8,1.4-.61,1.47-1.45l.8.08c-.1,1.17-.86,2.1-2.27,2.1s-2.46-1-2.46-2.53,1.01-2.54,2.46-2.54Z"/>
    <path class="cls-2-67f6c2561f464" d="M39.3,35.92h-.73v-.5l.31-.05c.45-.09.55-.31.66-.77l.14-.67h.52v1.33h1.35v.66h-1.35v2.92c0,.43.18.63.59.63.31,0,.63-.13.9-.29v.62c-.35.26-.7.41-1.23.41-.68,0-1.17-.32-1.17-1.25v-3.03Z"/>
    <path class="cls-2-67f6c2561f464" d="M45.78,35.26h.91v4.81h-.91v-.85c-.23.57-.85.98-1.57.98-1.25,0-1.72-.83-1.72-1.95v-2.99h.91v2.9c0,.8.35,1.32,1.11,1.32.71,0,1.26-.57,1.26-1.46v-2.76Z"/>
    <path class="cls-2-67f6c2561f464" d="M50.87,36.18c-.26-.14-.45-.2-.75-.2-.69,0-1.21.63-1.21,1.55v2.54h-.91v-4.81h.91v.98c.18-.55.67-1.11,1.36-1.11.3,0,.52.08.68.22l-.09.83Z"/>
    <path class="cls-2-67f6c2561f464" d="M51.67,33.14h.95v1.03h-.95v-1.03ZM52.6,35.26v4.81h-.91v-4.81h.91Z"/>
    <path class="cls-2-67f6c2561f464" d="M54.81,40.07h-.91v-4.81h.91v.86c.23-.58.88-.99,1.6-.99,1.25,0,1.76.84,1.76,1.96v2.98h-.91v-2.9c0-.8-.38-1.31-1.14-1.31s-1.3.57-1.3,1.45v2.76Z"/>
    <path class="cls-2-67f6c2561f464" d="M61.34,38.4c-.4,0-.75-.07-1.05-.2-.17.1-.33.26-.33.48,0,.26.15.42.58.42h1.88c1.04,0,1.59.54,1.59,1.3,0,1.18-1.33,1.65-2.77,1.65-1.3,0-2.38-.41-2.38-1.3,0-.55.4-.9.99-1.02-.44-.13-.63-.45-.63-.81,0-.42.29-.71.71-.9-.4-.29-.63-.71-.63-1.24,0-1.01.84-1.64,2.01-1.64.62,0,1.14.18,1.51.5.25-.4.7-.66,1.22-.66v.79c-.32,0-.69.08-.94.19.15.23.24.52.24.83,0,1-.85,1.63-2.04,1.63ZM61.25,41.47c1.11,0,1.9-.25,1.9-.97,0-.44-.37-.6-.93-.6h-1.57c-.5,0-.92.17-.92.69,0,.63.64.88,1.53.88ZM61.35,35.71c-.67,0-1.08.4-1.08,1.06s.41,1.07,1.08,1.07,1.09-.4,1.09-1.07-.41-1.06-1.09-1.06Z"/>
  </g>
  <path class="cls-2-67f6c2561f464" d="M1.84,52.59c-.74,0-1.32-.55-1.32-1.33s.58-1.33,1.32-1.33,1.34.56,1.34,1.33-.59,1.33-1.34,1.33Z"/>
  <g>
    <path class="cls-2-67f6c2561f464" d="M15.76,47.01c1.98,0,3.1,1.22,3.23,3l-.92.04c-.08-1.28-.88-2.23-2.31-2.23s-2.42,1.08-2.42,2.78,1.01,2.78,2.42,2.78,2.23-.96,2.31-2.23l.92.04c-.13,1.78-1.25,3-3.23,3s-3.4-1.46-3.4-3.6,1.49-3.6,3.4-3.6Z"/>
    <path class="cls-2-67f6c2561f464" d="M20.93,54.07h-.91v-6.93h.91v2.98c.23-.58.88-.99,1.6-.99,1.25,0,1.76.84,1.76,1.96v2.98h-.91v-2.9c0-.8-.38-1.31-1.14-1.31s-1.3.57-1.3,1.45v2.76Z"/>
    <path class="cls-2-67f6c2561f464" d="M25.51,47.14h.95v1.03h-.95v-1.03ZM26.44,49.26v4.81h-.91v-4.81h.91Z"/>
    <path class="cls-2-67f6c2561f464" d="M28.65,54.07h-.91v-4.81h.91v.86c.23-.58.88-.99,1.6-.99,1.25,0,1.76.84,1.76,1.96v2.98h-.91v-2.9c0-.8-.38-1.31-1.14-1.31s-1.3.57-1.3,1.45v2.76Z"/>
    <path class="cls-2-67f6c2561f464" d="M37.12,53.13c0,.25.14.37.37.37.11,0,.29-.03.42-.11v.49c-.17.17-.36.29-.74.29-.5,0-.87-.38-.92-.98-.25.56-.92,1.01-1.74,1.01-.9,0-1.51-.5-1.51-1.33,0-.91.77-1.28,1.94-1.51l1.3-.26v-.2c0-.66-.38-1.07-1.06-1.07s-1.07.41-1.22.97l-.8-.11c.18-.9.9-1.56,2.04-1.56,1.21,0,1.93.62,1.93,1.84v2.16ZM36.24,51.68l-1.08.22c-.77.17-1.24.34-1.24.9,0,.41.28.74.83.74.85,0,1.5-.64,1.5-1.62v-.24Z"/>
  </g>
  <path class="cls-2-67f6c2561f464" d="M1.84,66.59c-.74,0-1.32-.55-1.32-1.33s.58-1.33,1.32-1.33,1.34.56,1.34,1.33-.59,1.33-1.34,1.33Z"/>
  <g>
    <path class="cls-2-67f6c2561f464" d="M13.64,61.14v6.93h-.96v-6.93h.96Z"/>
    <path class="cls-2-67f6c2561f464" d="M15.9,68.08h-.91v-4.81h.91v.86c.23-.58.88-.99,1.6-.99,1.25,0,1.76.84,1.76,1.96v2.98h-.91v-2.9c0-.8-.38-1.31-1.14-1.31s-1.3.57-1.3,1.45v2.76Z"/>
    <path class="cls-2-67f6c2561f464" d="M24.12,67.07c-.22.59-.83,1.13-1.73,1.13-1.43,0-2.2-1.11-2.2-2.53s.77-2.54,2.2-2.54c.9,0,1.51.55,1.73,1.14v-3.13h.91v6.93h-.91v-1ZM24.13,65.53c0-1.05-.66-1.66-1.53-1.66-.95,0-1.47.7-1.47,1.8s.53,1.8,1.47,1.8c.87,0,1.53-.62,1.53-1.67v-.27Z"/>
    <path class="cls-2-67f6c2561f464" d="M26.31,61.14h.95v1.03h-.95v-1.03ZM27.25,63.27v4.81h-.91v-4.81h.91Z"/>
    <path class="cls-2-67f6c2561f464" d="M32.42,67.13c0,.25.14.37.37.37.11,0,.29-.03.42-.11v.49c-.17.17-.36.29-.74.29-.5,0-.87-.38-.92-.98-.25.56-.92,1.01-1.74,1.01-.9,0-1.51-.5-1.51-1.33,0-.91.77-1.28,1.94-1.51l1.3-.26v-.2c0-.66-.38-1.07-1.06-1.07s-1.07.41-1.22.97l-.8-.11c.18-.9.9-1.56,2.04-1.56,1.21,0,1.93.62,1.93,1.84v2.16ZM31.54,65.69l-1.08.22c-.77.17-1.24.34-1.24.9,0,.41.28.74.83.74.85,0,1.5-.64,1.5-1.62v-.24Z"/>
  </g>
  <line class="cls-1-67f6c2561f464" y1=".25" x2="91.33" y2=".25"/>
</svg>