<svg xmlns="http://www.w3.org/2000/svg" viewBox="0 0 33 33" aria-hidden="true" width="33px" height="33px"><defs><linearGradient class="cerosgradient" data-cerosgradient="true" id="CerosGradient_ida743d2143" gradientUnits="userSpaceOnUse" x1="50%" y1="100%" x2="50%" y2="0%"><stop offset="0%" stop-color="#d1d1d1"/><stop offset="100%" stop-color="#d1d1d1"/></linearGradient><linearGradient/></defs><path d="M24.5,13.23l-8.68-1.92,2.59-1.65L15.53,5.13a3,3,0,0,0-5.19.22L7.25,11.26l-.69-.36L9.65,5a3.77,3.77,0,0,1,6.53-.27l3.3,5.18L17.81,11l6.1,1.35,1.35-6.1-1.59,1-1.29-2a3.13,3.13,0,0,0-2.66-1.46h-3V3h3A3.88,3.88,0,0,1,23,4.79l.87,1.38,2.52-1.61-1.93,8.69Z" style="fill:#001d34"/><path d="M11.64,13.52l3.28-6.23.69.36-3.28,6.23Z" style="fill:#001d34"/><path d="M9.56,11.29l3.28-6.23.69.36-3.28,6.23Z" style="fill:#001d34"/><path d="M22.21,32.23,15.89,26l6.26-6.31,0,3.07,5.37,0a3,3,0,0,0,2.57-4.52l-3.36-5.76.67-.39,3.36,5.76a3.79,3.79,0,0,1-3.24,5.68l-6.15,0v-2L17,26l4.43,4.4V28.47h2.4A3.19,3.19,0,0,0,26.47,27l1.58-2.53.66.41L27.13,27.4a3.92,3.92,0,0,1-3.32,1.83H22.19Z" style="fill:#001d34"/><path d="M21.84,15.33l.67-.39L26,21l-.68.39Z" style="fill:#001d34"/><path d="M24.83,14.75l.67-.39L29,20.46l-.67.39Z" style="fill:#001d34"/><path d="M9.31,29.17A3.78,3.78,0,0,1,6.05,27.3a3.74,3.74,0,0,1,0-3.77l3-5.34,1.72,1-1.66-6-6,1.66,1.64.94L3.57,17.82a3.13,3.13,0,0,0,0,3l1.4,2.63-.68.37-1.4-2.64a3.93,3.93,0,0,1,.05-3.79L3.69,16,1.1,14.55l8.57-2.36L12,20.77,9.36,19.24,6.69,23.92a3,3,0,0,0,0,3A2.94,2.94,0,0,0,9.3,28.4h0l6.67,0v.78l-6.66,0h0Z" style="fill:#001d34"/><path d="M8.9,22.67l7,0v.78h-7Z" style="fill:#001d34"/><path d="M7.9,25.54h7v.78h-7Z" style="fill:#001d34"/></svg>