<svg xmlns:sketch="http://www.bohemiancoding.com/sketch/ns" xmlns="http://www.w3.org/2000/svg" xmlns:xlink="http://www.w3.org/1999/xlink" version="1.1" x="0px" y="0px" viewBox="0 0 100 100" enable-background="new 0 0 100 100" xml:space="preserve" aria-hidden="true" width="100px" height="100px" style="fill:url(#CerosGradient_ideb6bb1ea4);"><defs><linearGradient class="cerosgradient" data-cerosgradient="true" id="CerosGradient_ideb6bb1ea4" gradientUnits="userSpaceOnUse" x1="50%" y1="100%" x2="50%" y2="0%"><stop offset="0%" stop-color="#000000"/><stop offset="100%" stop-color="#000000"/></linearGradient><linearGradient/></defs><title>upload</title><desc>Created with Sketch.</desc><g sketch:type="MSPage"><path sketch:type="MSShapeGroup" d="M54,62.2V9c0-2.2-1.8-4-4-4s-4,1.8-4,4v53.3L26.6,45c-1.7-1.5-4.2-1.3-5.6,0.3   c-1.4,1.6-1.3,4.2,0.3,5.6l26,23.1l2.7,2.4l2.7-2.4l26-23.1c1.7-1.5,1.8-4,0.3-5.6c-1.5-1.7-4-1.8-5.6-0.3L54,62.2L54,62.2z M76,87   c2.2,0,4,1.8,4,4s-1.8,4-4,4H24c-2.2,0-4-1.8-4-4s1.8-4,4-4H76L76,87z" style="fill:url(#CerosGradient_ideb6bb1ea4);"/></g></svg>