<!-- Generator: Adobe Illustrator 25.0.1, SVG Export Plug-In  -->
<svg version="1.1" xmlns="http://www.w3.org/2000/svg" xmlns:xlink="http://www.w3.org/1999/xlink" x="0px" y="0px" width="33.6px"
	 height="33.6px" viewBox="0 0 33.6 33.6" style="overflow:visible;enable-background:new 0 0 33.6 33.6;" xml:space="preserve">
<style type="text/css">
	.st0{fill:#373E4E;}
</style>
<defs>
</defs>
<g>
	<path class="st0" d="M25.4,0H8.2C3.7,0,0,3.7,0,8.2v0.9h1.5V8.2c0-1.8,0.8-3.5,2-4.7c1.2-1.2,2.9-2,4.7-2h17.1c1.8,0,3.5,0.8,4.7,2
		c1.2,1.2,2,2.9,2,4.7v17.1c0,1.8-0.8,3.5-2,4.7c-1.2,1.2-2.9,2-4.7,2H8.2c-1.8,0-3.5-0.8-4.7-2c-1.2-1.2-2-2.9-2-4.7V12.2H0l0,13.1
		c0,4.5,3.7,8.2,8.2,8.2h17.1c4.5,0,8.2-3.7,8.2-8.2V8.2C33.6,3.7,29.9,0,25.4,0z"/>
	<rect x="9.1" y="12.2" class="st0" width="1.5" height="13.8"/>
	<path class="st0" d="M15.3,12.2v5.4c0,0,0,0,0,0h0v8.5h1.5v-8.5c0-1,0.4-1.9,1.1-2.5c0.7-0.7,1.6-1.1,2.6-1.1h0.3
		c1,0,1.9,0.4,2.6,1.1c0.7,0.7,1.1,1.6,1.1,2.6v8.5h1.5v-8.5c0-2.8-2.3-5.1-5.1-5.1h-0.3c-1.4,0-2.7,0.6-3.6,1.5v-1.7H15.3z"/>
	<path class="st0" d="M9.9,9C9.4,9,9,9.4,9,9.9c0,0.3,0.1,0.5,0.3,0.7c0.2,0.2,0.4,0.3,0.7,0.3c0.5,0,0.9-0.4,0.9-0.9
		C10.9,9.4,10.4,9,9.9,9z"/>
</g>
</svg>
