<?xml version="1.0" encoding="UTF-8"?><svg xmlns="http://www.w3.org/2000/svg" id="Icons67f84382a4562" viewBox="0 0 55.784 84.182" aria-hidden="true" style="fill:url(#CerosGradient_idc489176e0);" width="55px" height="84px"><defs><linearGradient class="cerosgradient" data-cerosgradient="true" id="CerosGradient_idc489176e0" gradientUnits="userSpaceOnUse" x1="50%" y1="100%" x2="50%" y2="0%"><stop offset="0%" stop-color="#0065DF"/><stop offset="100%" stop-color="#0065DF"/></linearGradient><linearGradient/></defs><path d="M39.475,41.229V4.984c0-2.079-1.672-3.764-3.734-3.764s-3.733,1.685-3.733,3.764v36.246" fill="none" stroke="#001d34" stroke-miterlimit="10" stroke-width="2.439" style="stroke:url(#CerosGradient_idc489176e0);"/><path d="M32.025,10.964c0-2.079-1.672-3.764-3.734-3.764s-3.733,1.685-3.733,3.764v30.265" fill="none" stroke="#001d34" stroke-miterlimit="10" stroke-width="2.439" style="stroke:url(#CerosGradient_idc489176e0);"/><path d="M24.498,23.854c0-2.079-1.672-3.764-3.734-3.764s-3.656,1.685-3.656,3.764v23.169" fill="none" stroke="#001d34" stroke-miterlimit="10" stroke-width="2.439" style="stroke:url(#CerosGradient_idc489176e0);"/><path d="M46.925,34.81V10.861c0-2.079-1.672-3.762-3.734-3.762s-3.733,1.683-3.733,3.762" fill="none" stroke="#001d34" stroke-miterlimit="10" stroke-width="2.439" style="stroke:url(#CerosGradient_idc489176e0);"/><path d="M54.508,56.34c0-21.603.05-28.311.05-28.311,0,0-7.664-1.545-7.664,7.528v11.529" fill="none" stroke="#001d34" stroke-miterlimit="10" stroke-width="2.439" style="stroke:url(#CerosGradient_idc489176e0);"/><path d="M35.821,75.927c10.339,0,18.72-8.769,18.72-19.588" fill="none" stroke="#001d34" stroke-miterlimit="10" stroke-width="2.439" style="stroke:url(#CerosGradient_idc489176e0);"/><path d="M20.568,50.051l-1.404-1.404c-1.906-1.936-4.557-3.137-7.489-3.137-5.803,0-10.507,4.704-10.507,10.507,0,2.846,1.132,5.428,2.97,7.32l19.192,19.192,19.192-19.192c1.838-1.892,2.97-4.474,2.97-7.32,0-5.803-4.704-10.507-10.507-10.507-2.932,0-5.583,1.201-7.489,3.137l-1.714,1.714-3.219,3.219" fill="none" stroke="#001d34" stroke-width="2.337" style="stroke:url(#CerosGradient_idc489176e0);"/></svg>