<?xml version="1.0" encoding="UTF-8"?><svg xmlns="http://www.w3.org/2000/svg" id="Text67f6c2561f461" viewBox="0 0 91.33 126.04" aria-hidden="true" width="91px" height="126px">
  <defs><linearGradient class="cerosgradient" data-cerosgradient="true" id="CerosGradient_ida3cac8013" gradientUnits="userSpaceOnUse" x1="50%" y1="100%" x2="50%" y2="0%"><stop offset="0%" stop-color="#d1d1d1"/><stop offset="100%" stop-color="#d1d1d1"/></linearGradient><linearGradient/>
    <style>
      .cls-1-67f6c2561f461{
        fill: none;
        stroke: #001d34;
        stroke-width: .5px;
      }

      .cls-2-67f6c2561f461{
        fill: #001d34;
      }
    </style>
  </defs>
  <g>
    <path class="cls-2-67f6c2561f461" d="M6.79,12.17H1.61v-6.93h5.08v1.14h-3.73v1.68h2.93v1.13h-2.93v1.83h3.83v1.14Z"/>
    <path class="cls-2-67f6c2561f461" d="M10.95,7.32h1.32v4.85h-1.32v-.79c-.25.56-.83.92-1.56.92-1.29,0-1.73-.87-1.73-1.95v-3.04h1.32v2.77c0,.74.27,1.18.92,1.18s1.04-.53,1.04-1.35v-2.6Z"/>
    <path class="cls-2-67f6c2561f461" d="M16.7,8.61c-.25-.14-.47-.21-.79-.21-.68,0-1.14.48-1.14,1.36v2.4h-1.32v-4.85h1.32v.92c.18-.55.68-1.06,1.35-1.06.3,0,.54.08.68.2l-.1,1.23Z"/>
    <path class="cls-2-67f6c2561f461" d="M19.62,12.3c-1.5,0-2.55-1.04-2.55-2.55s1.06-2.56,2.55-2.56,2.56,1.06,2.56,2.56-1.06,2.55-2.56,2.55ZM19.62,11.3c.81,0,1.23-.64,1.23-1.55s-.42-1.56-1.23-1.56-1.22.64-1.22,1.56.42,1.55,1.22,1.55Z"/>
    <path class="cls-2-67f6c2561f461" d="M24.38,13.97h-1.32v-6.66h1.32v.94c.22-.59.8-1.07,1.67-1.07,1.43,0,2.19,1.13,2.19,2.56s-.76,2.55-2.19,2.55c-.87,0-1.45-.47-1.67-1.06v2.73ZM24.37,9.83c0,.89.53,1.43,1.28,1.43.84,0,1.26-.6,1.26-1.52s-.43-1.53-1.26-1.53c-.75,0-1.28.55-1.28,1.43v.19Z"/>
    <path class="cls-2-67f6c2561f461" d="M33.8,10.55c-.24,1.1-1.1,1.75-2.34,1.75-1.5,0-2.57-.96-2.57-2.49s1.09-2.63,2.54-2.63c1.58,0,2.4,1.1,2.4,2.42v.42h-3.64c.04.79.61,1.28,1.32,1.28.65,0,1.04-.29,1.23-.86l1.07.11ZM32.53,9.33c-.02-.63-.38-1.18-1.12-1.18s-1.13.53-1.21,1.18h2.33Z"/>
  </g>
  <g>
    <path class="cls-2-67f6c2561f461" d="M1.68,26.17v-6.93h.96v2.97h3.98v-2.97h.96v6.93h-.96v-3.18h-3.98v3.18h-.96Z"/>
    <path class="cls-2-67f6c2561f461" d="M12.76,25.22c0,.25.14.37.37.37.11,0,.29-.03.42-.11v.5c-.17.17-.36.29-.74.29-.5,0-.87-.39-.92-.98-.25.56-.92,1.01-1.74,1.01-.9,0-1.51-.5-1.51-1.33,0-.91.77-1.28,1.94-1.51l1.3-.26v-.2c0-.66-.39-1.07-1.06-1.07s-1.07.41-1.22.97l-.8-.11c.18-.9.9-1.56,2.04-1.56,1.21,0,1.93.62,1.93,1.84v2.16ZM11.88,23.78l-1.08.22c-.77.17-1.24.34-1.24.9,0,.41.27.74.83.74.85,0,1.5-.64,1.5-1.62v-.24Z"/>
    <path class="cls-2-67f6c2561f461" d="M18.61,25h.04l1.11-3.64h.85l-1.53,4.81h-.88l-1.02-3.59h-.04l-1.01,3.59h-.88l-1.54-4.81h.91l1.13,3.64h.04l1.01-3.64h.77l1.03,3.64Z"/>
    <path class="cls-2-67f6c2561f461" d="M23.49,26.3c-1.41,0-2.44-1.03-2.44-2.53s1.03-2.54,2.44-2.54,2.46,1.05,2.46,2.54-1.04,2.53-2.46,2.53ZM23.49,25.6c.98,0,1.53-.76,1.53-1.83s-.55-1.83-1.53-1.83-1.51.75-1.51,1.83.54,1.83,1.51,1.83Z"/>
    <path class="cls-2-67f6c2561f461" d="M29.82,22.28c-.26-.14-.45-.2-.75-.2-.69,0-1.21.63-1.21,1.55v2.54h-.91v-4.81h.91v.98c.18-.55.67-1.11,1.36-1.11.3,0,.52.08.68.22l-.09.83Z"/>
    <path class="cls-2-67f6c2561f461" d="M30.94,22.02h-.73v-.5l.31-.06c.45-.09.55-.31.66-.77l.14-.67h.52v1.33h1.35v.66h-1.35v2.92c0,.43.18.63.59.63.31,0,.63-.13.9-.29v.62c-.35.26-.7.41-1.23.41-.68,0-1.17-.32-1.17-1.25v-3.03Z"/>
    <path class="cls-2-67f6c2561f461" d="M35.11,26.17h-.91v-6.93h.91v2.98c.23-.58.88-.99,1.6-.99,1.25,0,1.76.84,1.76,1.96v2.98h-.91v-2.9c0-.8-.38-1.31-1.14-1.31s-1.3.57-1.3,1.45v2.76Z"/>
    <path class="cls-2-67f6c2561f461" d="M44.9,26.3c-2.02,0-3.44-1.46-3.44-3.6s1.42-3.6,3.44-3.6,3.44,1.46,3.44,3.6-1.43,3.6-3.44,3.6ZM44.9,19.92c-1.5,0-2.46,1.09-2.46,2.78s.97,2.78,2.46,2.78,2.45-1.09,2.45-2.78-.96-2.78-2.45-2.78Z"/>
    <path class="cls-2-67f6c2561f461" d="M53.78,25h.04l1.11-3.64h.85l-1.53,4.81h-.88l-1.02-3.59h-.04l-1.01,3.59h-.88l-1.54-4.81h.91l1.13,3.64h.04l1.01-3.64h.77l1.03,3.64Z"/>
    <path class="cls-2-67f6c2561f461" d="M57.46,26.17h-.91v-4.81h.91v.86c.23-.58.88-.99,1.6-.99,1.25,0,1.76.84,1.76,1.96v2.98h-.91v-2.9c0-.8-.38-1.31-1.14-1.31s-1.3.57-1.3,1.45v2.76Z"/>
    <path class="cls-2-67f6c2561f461" d="M66.47,24.54c-.23,1.1-1.05,1.76-2.25,1.76-1.43,0-2.47-.97-2.47-2.46s1.04-2.61,2.43-2.61c1.53,0,2.31,1.09,2.31,2.4v.35h-3.83c.04.96.71,1.61,1.57,1.61.8,0,1.29-.39,1.47-1.13l.76.09ZM65.56,23.42c-.02-.78-.47-1.5-1.38-1.5s-1.4.69-1.5,1.5h2.87Z"/>
    <path class="cls-2-67f6c2561f461" d="M71.13,25.17c-.22.59-.83,1.13-1.73,1.13-1.43,0-2.2-1.11-2.2-2.53s.77-2.54,2.2-2.54c.9,0,1.51.55,1.73,1.14v-3.14h.91v6.93h-.91v-1ZM71.14,23.63c0-1.04-.66-1.66-1.53-1.66-.95,0-1.47.7-1.47,1.8s.53,1.8,1.47,1.8c.87,0,1.53-.62,1.53-1.67v-.28Z"/>
  </g>
  <g>
    <path class="cls-2-67f6c2561f461" d="M4.71,40.17l-2.1-5.96h-.04v5.96h-.89v-6.93h1.53l1.95,5.64h.03l1.85-5.64h1.51v6.93h-.96v-5.96h-.04l-2.02,5.96h-.8Z"/>
    <path class="cls-2-67f6c2561f461" d="M13.72,39.23c0,.25.14.37.37.37.11,0,.29-.03.42-.11v.5c-.17.17-.36.29-.74.29-.5,0-.87-.39-.92-.98-.25.56-.92,1.01-1.74,1.01-.9,0-1.51-.5-1.51-1.33,0-.91.77-1.28,1.94-1.51l1.3-.26v-.2c0-.66-.39-1.07-1.06-1.07s-1.07.41-1.22.97l-.8-.11c.18-.9.9-1.56,2.04-1.56,1.21,0,1.93.62,1.93,1.84v2.16ZM12.84,37.79l-1.08.22c-.77.17-1.24.34-1.24.9,0,.41.27.74.83.74.85,0,1.5-.64,1.5-1.62v-.24Z"/>
    <path class="cls-2-67f6c2561f461" d="M16.19,40.17h-.91v-4.81h.91v.86c.23-.58.88-.99,1.6-.99,1.25,0,1.76.84,1.76,1.96v2.98h-.91v-2.9c0-.8-.38-1.31-1.14-1.31s-1.3.57-1.3,1.45v2.76Z"/>
    <path class="cls-2-67f6c2561f461" d="M24.02,35.37h.91v4.81h-.91v-.85c-.23.57-.85.98-1.57.98-1.25,0-1.72-.82-1.72-1.95v-2.99h.91v2.9c0,.8.35,1.32,1.11,1.32.72,0,1.27-.57,1.27-1.46v-2.76Z"/>
    <path class="cls-2-67f6c2561f461" d="M25.68,36.03v-.66h.74v-.56c0-1.02.58-1.69,1.59-1.69.83,0,1.29.37,1.51,1.1l-.63.22c-.12-.37-.4-.66-.84-.66-.51,0-.74.36-.74.94v.66h1.35v.66h-1.35v4.15h-.9v-4.15h-.74Z"/>
    <path class="cls-2-67f6c2561f461" d="M33.21,39.23c0,.25.14.37.37.37.11,0,.29-.03.42-.11v.5c-.17.17-.36.29-.74.29-.5,0-.87-.39-.92-.98-.25.56-.92,1.01-1.74,1.01-.9,0-1.51-.5-1.51-1.33,0-.91.77-1.28,1.94-1.51l1.3-.26v-.2c0-.66-.38-1.07-1.06-1.07s-1.07.41-1.22.97l-.8-.11c.18-.9.9-1.56,2.04-1.56,1.21,0,1.92.62,1.92,1.84v2.16ZM32.33,37.79l-1.08.22c-.77.17-1.24.34-1.24.9,0,.41.28.74.83.74.85,0,1.5-.64,1.5-1.62v-.24Z"/>
    <path class="cls-2-67f6c2561f461" d="M36.88,35.23c1.41,0,2.17.95,2.27,2.1l-.8.06c-.08-.85-.58-1.42-1.47-1.42s-1.52.69-1.52,1.8.62,1.8,1.52,1.8,1.4-.6,1.47-1.45l.8.08c-.1,1.17-.86,2.1-2.27,2.1s-2.46-1-2.46-2.53,1.01-2.54,2.46-2.54Z"/>
    <path class="cls-2-67f6c2561f461" d="M40.3,36.03h-.73v-.5l.31-.06c.45-.09.55-.31.66-.77l.14-.67h.52v1.33h1.35v.66h-1.35v2.92c0,.43.18.63.59.63.31,0,.63-.13.9-.29v.62c-.35.26-.7.41-1.23.41-.68,0-1.17-.32-1.17-1.25v-3.03Z"/>
    <path class="cls-2-67f6c2561f461" d="M46.78,35.37h.91v4.81h-.91v-.85c-.23.57-.85.98-1.57.98-1.25,0-1.72-.82-1.72-1.95v-2.99h.91v2.9c0,.8.35,1.32,1.11,1.32.71,0,1.26-.57,1.26-1.46v-2.76Z"/>
    <path class="cls-2-67f6c2561f461" d="M51.87,36.28c-.26-.14-.45-.2-.75-.2-.69,0-1.21.63-1.21,1.55v2.54h-.91v-4.81h.91v.98c.18-.55.67-1.11,1.36-1.11.3,0,.52.08.68.22l-.09.83Z"/>
    <path class="cls-2-67f6c2561f461" d="M52.66,33.24h.95v1.03h-.95v-1.03ZM53.6,35.37v4.81h-.91v-4.81h.91Z"/>
    <path class="cls-2-67f6c2561f461" d="M55.81,40.17h-.91v-4.81h.91v.86c.23-.58.88-.99,1.6-.99,1.25,0,1.76.84,1.76,1.96v2.98h-.91v-2.9c0-.8-.38-1.31-1.14-1.31s-1.3.57-1.3,1.45v2.76Z"/>
    <path class="cls-2-67f6c2561f461" d="M62.33,38.5c-.4,0-.75-.07-1.05-.2-.17.1-.33.26-.33.48,0,.26.15.42.58.42h1.88c1.04,0,1.59.54,1.59,1.3,0,1.18-1.33,1.65-2.77,1.65-1.3,0-2.38-.41-2.38-1.3,0-.55.4-.9.99-1.02-.44-.13-.63-.45-.63-.81,0-.42.29-.71.71-.9-.4-.29-.63-.72-.63-1.24,0-1.01.84-1.64,2.01-1.64.62,0,1.14.18,1.51.5.25-.4.7-.66,1.22-.66v.79c-.32,0-.69.08-.94.19.15.23.24.52.24.83,0,1-.85,1.63-2.04,1.63ZM62.24,41.57c1.11,0,1.9-.25,1.9-.97,0-.44-.37-.6-.93-.6h-1.57c-.5,0-.92.16-.92.69,0,.63.64.88,1.53.88ZM62.34,35.82c-.67,0-1.08.4-1.08,1.06s.41,1.07,1.08,1.07,1.09-.4,1.09-1.07-.41-1.06-1.09-1.06Z"/>
  </g>
  <path class="cls-2-67f6c2561f461" d="M2.83,52.69c-.74,0-1.32-.55-1.32-1.33s.58-1.33,1.32-1.33,1.34.56,1.34,1.33-.59,1.33-1.34,1.33Z"/>
  <g>
    <path class="cls-2-67f6c2561f461" d="M14.62,54.18h-.95v-6.93h2.52c1.72,0,2.7.81,2.7,2.17s-.98,2.18-2.7,2.18h-1.57v2.59ZM16.18,50.81c1.21,0,1.79-.49,1.79-1.4s-.58-1.39-1.79-1.39h-1.55v2.78h1.55Z"/>
    <path class="cls-2-67f6c2561f461" d="M21.75,54.31c-1.41,0-2.44-1.03-2.44-2.53s1.03-2.54,2.44-2.54,2.46,1.05,2.46,2.54-1.04,2.53-2.46,2.53ZM21.75,53.6c.98,0,1.53-.76,1.53-1.83s-.55-1.83-1.53-1.83-1.51.75-1.51,1.83.54,1.83,1.51,1.83Z"/>
    <path class="cls-2-67f6c2561f461" d="M26.12,47.24v6.93h-.91v-6.93h.91Z"/>
    <path class="cls-2-67f6c2561f461" d="M31.29,53.23c0,.25.14.37.37.37.11,0,.29-.03.42-.11v.5c-.17.17-.36.29-.74.29-.5,0-.87-.39-.92-.98-.25.56-.92,1.01-1.74,1.01-.9,0-1.51-.5-1.51-1.33,0-.91.77-1.28,1.94-1.51l1.3-.26v-.2c0-.66-.39-1.07-1.06-1.07s-1.07.41-1.22.97l-.8-.11c.18-.9.9-1.56,2.04-1.56,1.21,0,1.93.62,1.93,1.84v2.16ZM30.41,51.79l-1.08.22c-.77.17-1.24.34-1.24.9,0,.41.27.74.83.74.85,0,1.5-.64,1.5-1.62v-.24Z"/>
    <path class="cls-2-67f6c2561f461" d="M33.75,54.18h-.91v-4.81h.91v.86c.23-.58.88-.99,1.6-.99,1.25,0,1.76.84,1.76,1.96v2.98h-.91v-2.9c0-.8-.38-1.31-1.14-1.31s-1.3.57-1.3,1.45v2.76Z"/>
    <path class="cls-2-67f6c2561f461" d="M41.97,53.17c-.22.59-.83,1.13-1.73,1.13-1.43,0-2.2-1.11-2.2-2.53s.77-2.54,2.2-2.54c.9,0,1.51.55,1.73,1.14v-3.14h.91v6.93h-.91v-1ZM41.98,51.63c0-1.04-.66-1.66-1.53-1.66-.95,0-1.47.7-1.47,1.8s.53,1.8,1.47,1.8c.87,0,1.53-.62,1.53-1.67v-.28Z"/>
  </g>
  <path class="cls-2-67f6c2561f461" d="M2.83,66.69c-.74,0-1.32-.55-1.32-1.33s.58-1.33,1.32-1.33,1.34.56,1.34,1.33-.59,1.33-1.34,1.33Z"/>
  <g>
    <path class="cls-2-67f6c2561f461" d="M13.68,68.18v-6.93h4.73v.79h-3.79v2.3h2.97v.79h-2.97v3.05h-.95Z"/>
    <path class="cls-2-67f6c2561f461" d="M21.83,64.28c-.26-.14-.45-.2-.75-.2-.69,0-1.21.63-1.21,1.55v2.54h-.91v-4.81h.91v.98c.18-.55.67-1.11,1.36-1.11.3,0,.52.08.68.22l-.09.83Z"/>
    <path class="cls-2-67f6c2561f461" d="M26.47,67.23c0,.25.14.37.37.37.11,0,.29-.03.42-.11v.5c-.17.17-.36.29-.74.29-.5,0-.87-.39-.92-.98-.25.56-.92,1.01-1.74,1.01-.9,0-1.51-.5-1.51-1.33,0-.91.77-1.28,1.94-1.51l1.3-.26v-.2c0-.66-.39-1.07-1.06-1.07s-1.07.41-1.22.97l-.8-.11c.18-.9.9-1.56,2.04-1.56,1.21,0,1.93.62,1.93,1.84v2.16ZM25.59,65.79l-1.08.22c-.77.17-1.24.34-1.24.9,0,.41.27.74.83.74.85,0,1.5-.64,1.5-1.62v-.24Z"/>
    <path class="cls-2-67f6c2561f461" d="M28.94,68.18h-.91v-4.81h.91v.86c.23-.58.88-.99,1.6-.99,1.25,0,1.76.84,1.76,1.96v2.98h-.91v-2.9c0-.8-.38-1.31-1.14-1.31s-1.3.57-1.3,1.45v2.76Z"/>
    <path class="cls-2-67f6c2561f461" d="M35.69,63.24c1.41,0,2.17.95,2.27,2.1l-.8.06c-.08-.85-.58-1.42-1.47-1.42s-1.52.69-1.52,1.8.62,1.8,1.52,1.8,1.4-.6,1.47-1.45l.8.08c-.1,1.17-.86,2.1-2.27,2.1s-2.46-1-2.46-2.53,1.01-2.54,2.46-2.54Z"/>
    <path class="cls-2-67f6c2561f461" d="M43.39,66.55c-.23,1.1-1.04,1.76-2.24,1.76-1.43,0-2.48-.97-2.48-2.46s1.04-2.61,2.43-2.61c1.53,0,2.31,1.09,2.31,2.4v.35h-3.83c.04.96.71,1.61,1.57,1.61.8,0,1.29-.39,1.47-1.13l.76.09ZM42.48,65.43c-.02-.78-.47-1.5-1.38-1.5s-1.4.69-1.5,1.5h2.87Z"/>
  </g>
  <path class="cls-2-67f6c2561f461" d="M2.83,80.7c-.74,0-1.32-.55-1.32-1.33s.58-1.33,1.32-1.33,1.34.56,1.34,1.33-.59,1.33-1.34,1.33Z"/>
  <g>
    <path class="cls-2-67f6c2561f461" d="M14.62,82.18h-.95v-6.93h2.52c1.72,0,2.7.81,2.7,2.17s-.98,2.18-2.7,2.18h-1.57v2.59ZM16.18,78.81c1.21,0,1.79-.49,1.79-1.4s-.58-1.39-1.79-1.39h-1.55v2.78h1.55Z"/>
    <path class="cls-2-67f6c2561f461" d="M21.75,82.31c-1.41,0-2.44-1.03-2.44-2.53s1.03-2.54,2.44-2.54,2.46,1.05,2.46,2.54-1.04,2.53-2.46,2.53ZM21.75,81.61c.98,0,1.53-.76,1.53-1.83s-.55-1.83-1.53-1.83-1.51.75-1.51,1.83.54,1.83,1.51,1.83Z"/>
    <path class="cls-2-67f6c2561f461" d="M28.08,78.29c-.26-.14-.45-.2-.75-.2-.69,0-1.21.63-1.21,1.55v2.54h-.91v-4.81h.91v.98c.18-.55.67-1.11,1.36-1.11.3,0,.52.08.68.22l-.09.83Z"/>
    <path class="cls-2-67f6c2561f461" d="M29.2,78.03h-.73v-.5l.31-.06c.45-.09.55-.31.66-.77l.14-.67h.52v1.33h1.35v.66h-1.35v2.92c0,.43.18.63.59.63.31,0,.63-.13.9-.29v.62c-.35.26-.7.41-1.23.41-.68,0-1.17-.32-1.17-1.25v-3.03Z"/>
    <path class="cls-2-67f6c2561f461" d="M35.69,77.37h.91v4.81h-.91v-.85c-.23.57-.85.98-1.57.98-1.25,0-1.72-.82-1.72-1.95v-2.99h.91v2.9c0,.8.35,1.32,1.11,1.32.72,0,1.27-.57,1.27-1.46v-2.76Z"/>
    <path class="cls-2-67f6c2561f461" d="M39.83,80.51c-.4,0-.75-.07-1.04-.2-.17.1-.33.26-.33.48,0,.26.15.42.58.42h1.88c1.04,0,1.59.54,1.59,1.3,0,1.18-1.33,1.65-2.77,1.65-1.3,0-2.38-.41-2.38-1.3,0-.55.4-.9.99-1.02-.44-.13-.63-.45-.63-.81,0-.42.29-.71.71-.9-.4-.29-.63-.72-.63-1.24,0-1.01.84-1.64,2.01-1.64.62,0,1.14.18,1.51.5.25-.4.7-.66,1.22-.66v.79c-.32,0-.69.08-.93.19.15.23.24.52.24.83,0,1-.85,1.63-2.04,1.63ZM39.74,83.58c1.11,0,1.9-.25,1.9-.97,0-.44-.37-.6-.93-.6h-1.57c-.5,0-.92.16-.92.69,0,.63.64.88,1.53.88ZM39.84,77.82c-.67,0-1.08.4-1.08,1.06s.41,1.07,1.08,1.07,1.09-.4,1.09-1.07-.41-1.06-1.09-1.06Z"/>
    <path class="cls-2-67f6c2561f461" d="M47.06,81.24c0,.25.14.37.37.37.11,0,.29-.03.42-.11v.5c-.17.17-.36.29-.74.29-.49,0-.87-.39-.92-.98-.25.56-.92,1.01-1.74,1.01-.9,0-1.51-.5-1.51-1.33,0-.91.77-1.28,1.94-1.51l1.3-.26v-.2c0-.66-.38-1.07-1.06-1.07s-1.07.41-1.22.97l-.8-.11c.18-.9.9-1.56,2.04-1.56,1.21,0,1.93.62,1.93,1.84v2.16ZM46.18,79.79l-1.08.22c-.77.17-1.24.34-1.24.9,0,.41.27.74.83.74.85,0,1.5-.64,1.5-1.62v-.24Z"/>
    <path class="cls-2-67f6c2561f461" d="M49.54,75.25v6.93h-.91v-6.93h.91Z"/>
  </g>
  <path class="cls-2-67f6c2561f461" d="M2.83,94.7c-.74,0-1.32-.55-1.32-1.33s.58-1.33,1.32-1.33,1.34.56,1.34,1.33-.59,1.33-1.34,1.33Z"/>
  <g>
    <path class="cls-2-67f6c2561f461" d="M18.46,94.56v-5.3h.89v6.93h-.76l-4.03-5.57v5.57h-.89v-6.93h.99l3.8,5.3Z"/>
    <path class="cls-2-67f6c2561f461" d="M25.12,94.56c-.23,1.1-1.04,1.76-2.24,1.76-1.43,0-2.48-.97-2.48-2.46s1.05-2.61,2.43-2.61c1.53,0,2.31,1.09,2.31,2.4v.35h-3.83c.04.96.71,1.61,1.57,1.61.8,0,1.29-.39,1.47-1.13l.76.09ZM24.21,93.43c-.02-.78-.47-1.5-1.38-1.5s-1.4.69-1.5,1.5h2.87Z"/>
    <path class="cls-2-67f6c2561f461" d="M26.3,92.04h-.73v-.5l.31-.06c.45-.09.55-.31.66-.77l.14-.67h.52v1.33h1.35v.66h-1.35v2.92c0,.43.18.63.59.63.31,0,.63-.13.9-.29v.62c-.35.26-.7.41-1.23.41-.68,0-1.17-.32-1.17-1.25v-3.03Z"/>
    <path class="cls-2-67f6c2561f461" d="M30.46,96.18h-.91v-6.93h.91v2.98c.23-.58.88-.99,1.6-.99,1.25,0,1.76.84,1.76,1.96v2.98h-.91v-2.9c0-.8-.38-1.31-1.14-1.31s-1.3.57-1.3,1.45v2.76Z"/>
    <path class="cls-2-67f6c2561f461" d="M39.47,94.56c-.23,1.1-1.04,1.76-2.24,1.76-1.43,0-2.48-.97-2.48-2.46s1.04-2.61,2.43-2.61c1.53,0,2.31,1.09,2.31,2.4v.35h-3.83c.04.96.71,1.61,1.57,1.61.8,0,1.29-.39,1.47-1.13l.76.09ZM38.56,93.43c-.02-.78-.47-1.5-1.38-1.5s-1.4.69-1.5,1.5h2.87Z"/>
    <path class="cls-2-67f6c2561f461" d="M43.36,92.29c-.26-.14-.45-.2-.75-.2-.69,0-1.21.63-1.21,1.55v2.54h-.91v-4.81h.91v.98c.18-.55.67-1.11,1.36-1.11.3,0,.52.08.68.22l-.09.83Z"/>
    <path class="cls-2-67f6c2561f461" d="M45.08,89.25v6.93h-.91v-6.93h.91Z"/>
    <path class="cls-2-67f6c2561f461" d="M50.25,95.24c0,.25.14.37.37.37.11,0,.29-.03.42-.11v.5c-.17.17-.36.29-.74.29-.5,0-.87-.39-.92-.98-.25.56-.92,1.01-1.74,1.01-.9,0-1.51-.5-1.51-1.33,0-.91.77-1.28,1.94-1.51l1.3-.26v-.2c0-.66-.38-1.07-1.06-1.07s-1.07.41-1.22.97l-.8-.11c.18-.9.9-1.56,2.04-1.56,1.21,0,1.93.62,1.93,1.84v2.16ZM49.37,93.8l-1.08.22c-.77.17-1.24.34-1.24.9,0,.41.28.74.83.74.85,0,1.5-.64,1.5-1.62v-.24Z"/>
    <path class="cls-2-67f6c2561f461" d="M52.73,96.18h-.91v-4.81h.91v.86c.23-.58.88-.99,1.6-.99,1.25,0,1.76.84,1.76,1.96v2.98h-.91v-2.9c0-.8-.38-1.31-1.14-1.31s-1.3.57-1.3,1.45v2.76Z"/>
    <path class="cls-2-67f6c2561f461" d="M60.95,95.18c-.22.59-.83,1.13-1.73,1.13-1.43,0-2.2-1.11-2.2-2.53s.77-2.54,2.2-2.54c.9,0,1.51.55,1.73,1.14v-3.14h.91v6.93h-.91v-1ZM60.96,93.64c0-1.04-.66-1.66-1.53-1.66-.95,0-1.47.7-1.47,1.8s.53,1.8,1.47,1.8c.87,0,1.53-.62,1.53-1.67v-.28Z"/>
    <path class="cls-2-67f6c2561f461" d="M63.56,94.51c.1.74.61,1.14,1.44,1.14.66,0,1.11-.24,1.11-.73,0-.45-.32-.6-.91-.71l-.8-.13c-.91-.15-1.46-.54-1.46-1.36,0-.88.75-1.47,1.87-1.47,1.27,0,2.01.59,2.09,1.71l-.73.04c-.11-.75-.57-1.09-1.38-1.09-.61,0-1,.28-1,.72,0,.4.24.59.74.68l.9.14c.97.17,1.54.53,1.54,1.4,0,.96-.85,1.47-1.97,1.47-1.2,0-2.11-.56-2.2-1.75l.76-.06Z"/>
  </g>
  <path class="cls-2-67f6c2561f461" d="M2.83,108.7c-.74,0-1.32-.55-1.32-1.33s.58-1.33,1.32-1.33,1.34.56,1.34,1.33-.59,1.33-1.34,1.33Z"/>
  <g>
    <path class="cls-2-67f6c2561f461" d="M14.11,107.66c.05,1.27.92,1.91,2.09,1.91,1.03,0,1.68-.44,1.68-1.2,0-.64-.42-.95-1.32-1.12l-1.38-.26c-1.02-.2-1.73-.75-1.73-1.83,0-1.21.96-2.04,2.48-2.04,1.74,0,2.74.92,2.75,2.49l-.87.04c-.03-1.14-.73-1.79-1.87-1.79-1,0-1.56.47-1.56,1.24,0,.68.45.9,1.25,1.06l1.25.24c1.27.24,1.9.79,1.9,1.9,0,1.28-1.1,2.01-2.6,2.01-1.71,0-2.95-.94-2.95-2.61l.86-.05Z"/>
    <path class="cls-2-67f6c2561f461" d="M24.22,109.02h.04l1.11-3.64h.85l-1.53,4.81h-.88l-1.02-3.59h-.04l-1.01,3.59h-.88l-1.54-4.81h.91l1.13,3.64h.04l1.01-3.64h.77l1.03,3.64Z"/>
    <path class="cls-2-67f6c2561f461" d="M26.95,103.26h.95v1.03h-.95v-1.03ZM27.88,105.38v4.81h-.91v-4.81h.91Z"/>
    <path class="cls-2-67f6c2561f461" d="M29.34,106.04h-.73v-.5l.31-.06c.45-.09.55-.31.66-.77l.14-.67h.52v1.33h1.35v.66h-1.35v2.92c0,.43.18.63.59.63.31,0,.63-.13.9-.29v.62c-.35.26-.7.41-1.23.41-.68,0-1.17-.32-1.17-1.25v-3.03Z"/>
    <path class="cls-2-67f6c2561f461" d="M32.39,106.08v-.7h3.91v.63l-2.88,3.48h2.95v.7h-4.06v-.63l2.83-3.48h-2.74Z"/>
    <path class="cls-2-67f6c2561f461" d="M41.59,108.56c-.23,1.1-1.04,1.76-2.24,1.76-1.43,0-2.48-.97-2.48-2.46s1.05-2.61,2.43-2.61c1.53,0,2.31,1.09,2.31,2.4v.35h-3.83c.04.96.71,1.61,1.57,1.61.8,0,1.29-.39,1.47-1.13l.76.09ZM40.67,107.44c-.02-.78-.47-1.5-1.38-1.5s-1.4.69-1.5,1.5h2.87Z"/>
    <path class="cls-2-67f6c2561f461" d="M45.47,106.29c-.26-.14-.45-.2-.75-.2-.69,0-1.21.63-1.21,1.55v2.54h-.91v-4.81h.91v.98c.18-.55.67-1.11,1.36-1.11.3,0,.52.08.68.22l-.09.83Z"/>
    <path class="cls-2-67f6c2561f461" d="M47.2,103.26v6.93h-.91v-6.93h.91Z"/>
    <path class="cls-2-67f6c2561f461" d="M52.37,109.24c0,.25.14.37.37.37.11,0,.29-.03.42-.11v.5c-.17.17-.36.29-.74.29-.5,0-.87-.39-.92-.98-.25.56-.92,1.01-1.74,1.01-.9,0-1.51-.5-1.51-1.33,0-.91.77-1.28,1.94-1.51l1.3-.26v-.2c0-.66-.38-1.07-1.06-1.07s-1.07.41-1.22.97l-.8-.11c.18-.9.9-1.56,2.04-1.56,1.21,0,1.93.62,1.93,1.84v2.16ZM51.49,107.8l-1.08.22c-.77.17-1.24.34-1.24.9,0,.41.28.74.83.74.85,0,1.5-.64,1.5-1.62v-.24Z"/>
    <path class="cls-2-67f6c2561f461" d="M54.84,110.19h-.91v-4.81h.91v.86c.23-.58.88-.99,1.6-.99,1.25,0,1.76.84,1.76,1.96v2.98h-.91v-2.9c0-.8-.38-1.31-1.14-1.31s-1.3.57-1.3,1.45v2.76Z"/>
    <path class="cls-2-67f6c2561f461" d="M63.06,109.19c-.22.59-.83,1.13-1.73,1.13-1.43,0-2.2-1.11-2.2-2.53s.77-2.54,2.2-2.54c.9,0,1.51.55,1.73,1.14v-3.14h.91v6.93h-.91v-1ZM63.07,107.65c0-1.04-.66-1.66-1.53-1.66-.95,0-1.47.7-1.47,1.8s.53,1.8,1.47,1.8c.87,0,1.53-.62,1.53-1.67v-.28Z"/>
  </g>
  <path class="cls-2-67f6c2561f461" d="M2.83,122.71c-.74,0-1.32-.55-1.32-1.33s.58-1.33,1.32-1.33,1.34.56,1.34,1.33-.59,1.33-1.34,1.33Z"/>
  <g>
    <path class="cls-2-67f6c2561f461" d="M14.64,117.26v6.93h-.96v-6.93h.96Z"/>
    <path class="cls-2-67f6c2561f461" d="M16.15,120.04h-.73v-.5l.31-.06c.45-.09.55-.31.66-.77l.14-.67h.52v1.33h1.35v.66h-1.35v2.92c0,.43.18.63.59.63.31,0,.63-.13.9-.29v.62c-.35.26-.7.41-1.23.41-.68,0-1.17-.32-1.17-1.25v-3.03Z"/>
    <path class="cls-2-67f6c2561f461" d="M23.27,123.24c0,.25.14.37.37.37.11,0,.29-.03.42-.11v.5c-.17.17-.36.29-.74.29-.5,0-.87-.39-.92-.98-.25.56-.92,1.01-1.74,1.01-.9,0-1.51-.5-1.51-1.33,0-.91.77-1.28,1.94-1.51l1.3-.26v-.2c0-.66-.38-1.07-1.06-1.07s-1.07.41-1.22.97l-.8-.11c.18-.9.9-1.56,2.04-1.56,1.21,0,1.92.62,1.92,1.84v2.16ZM22.39,121.8l-1.08.22c-.77.17-1.24.34-1.24.9,0,.41.28.74.83.74.85,0,1.5-.64,1.5-1.62v-.24Z"/>
    <path class="cls-2-67f6c2561f461" d="M25.75,117.26v6.93h-.91v-6.93h.91Z"/>
    <path class="cls-2-67f6c2561f461" d="M27.74,126.04l.78-1.86-2.02-4.8h.96l1.53,3.7h.04l1.47-3.7h.9l-2.77,6.66h-.89Z"/>
  </g>
  <line class="cls-1-67f6c2561f461" y1=".25" x2="91.33" y2=".25"/>
</svg>