<svg xmlns="http://www.w3.org/2000/svg" xmlns:xlink="http://www.w3.org/1999/xlink" version="1.1" x="0px" y="0px" viewBox="-512 696.4 97.8 97.8" style="enable-background:new -512 696.4 97.8 97.8;fill:url(#CerosGradient_idd63736c42);" xml:space="preserve" aria-hidden="true" width="97px" height="97px"><defs><linearGradient class="cerosgradient" data-cerosgradient="true" id="CerosGradient_idd63736c42" gradientUnits="userSpaceOnUse" x1="50%" y1="100%" x2="50%" y2="0%"><stop offset="0%" stop-color="#FFFFFF"/><stop offset="100%" stop-color="#FFFFFF"/></linearGradient><linearGradient/></defs><path d="M-463.1,696.4c-27,0-48.9,21.9-48.9,48.9s21.9,48.9,48.9,48.9c26.9,0,48.9-21.9,48.9-48.9  C-414.2,718.4-436.2,696.4-463.1,696.4z M-463.1,790.7c-25,0-45.4-20.3-45.4-45.4c0-25,20.3-45.4,45.4-45.4  c25,0,45.4,20.3,45.4,45.4C-417.8,770.3-438.1,790.7-463.1,790.7z" style="fill:url(#CerosGradient_idd63736c42);"/><path d="M-441.9,724.1c-0.7-0.7-1.8-0.7-2.5,0l-18.7,18.7l-18.7-18.7c-0.7-0.7-1.8-0.7-2.5,0c-0.7,0.7-0.7,1.8,0,2.5l18.7,18.7  l-18.7,18.7c-0.7,0.7-0.7,1.8,0,2.5c0.3,0.3,0.8,0.5,1.3,0.5c0.4,0,0.9-0.2,1.3-0.5l18.7-18.7l18.7,18.7c0.3,0.3,0.8,0.5,1.2,0.5  c0.4,0,0.9-0.2,1.2-0.5c0.7-0.7,0.7-1.8,0-2.5l-18.7-18.7l18.7-18.7C-441.2,725.9-441.2,724.8-441.9,724.1z" style="fill:url(#CerosGradient_idd63736c42);"/></svg>