<svg xmlns="http://www.w3.org/2000/svg" xmlns:xlink="http://www.w3.org/1999/xlink" version="1.1" x="0px" y="0px" viewBox="0 0 100 100" enable-background="new 0 0 100 100" xml:space="preserve" aria-hidden="true" width="100px" height="100px" style="fill:url(#CerosGradient_id4d5f3b7cd);"><defs><linearGradient class="cerosgradient" data-cerosgradient="true" id="CerosGradient_id4d5f3b7cd" gradientUnits="userSpaceOnUse" x1="50%" y1="100%" x2="50%" y2="0%"><stop offset="0%" stop-color="#FFFFFF"/><stop offset="100%" stop-color="#FFFFFF"/></linearGradient><linearGradient/></defs><path fill="#000000" d="M50.127,10.148c-21.953,0-39.75,17.796-39.75,39.75s17.797,39.75,39.75,39.75s39.75-17.796,39.75-39.75  S72.08,10.148,50.127,10.148z M72.447,49.279L51.748,72.056l-4.194-3.811l14.525-15.983l-10.991-0.006l-5.666-0.004l-17.778-0.01  l0.003-5.666l17.777,0.01l5.667,0.003l10.056,0.006l-16.952-14.63l3.778-4.225l20.388,17.61l0.02-0.021l2.706,2.461l1.523,1.362  L72.447,49.279z" style="fill:url(#CerosGradient_id4d5f3b7cd);"/></svg>